<?xml version="1.0" standalone="no"?>
<!DOCTYPE svg PUBLIC "-//W3C//DTD SVG 1.1//EN" "http://www.w3.org/Graphics/SVG/1.1/DTD/svg11.dtd" >
<svg>
<metadata>
Created by FontForge 20090914 at Tue Aug 18 15:58:03 2015
 By www-data
Des
</metadata>
<defs>
<font id="CookieMonster" horiz-adv-x="455" >
  <font-face 
    font-family="CookieMonster"
    font-weight="500"
    font-stretch="normal"
    units-per-em="1000"
    panose-1="2 0 6 3 0 0 0 0 0 0"
    ascent="1000"
    descent="0"
    x-height="276"
    cap-height="922.001"
    bbox="-102.597 -128.172 958.466 922.064"
    underline-thickness="50"
    underline-position="-100"
    unicode-range="U+0020-U+3000"
  />
<missing-glyph horiz-adv-x="364" 
d="M66 33h199v600h-199v-600zM33 0v666h265v-666h-265z" />
    <glyph glyph-name=".notdef" horiz-adv-x="364" 
d="M66 33h199v600h-199v-600zM33 0v666h265v-666h-265z" />
    <glyph glyph-name="space" unicode=" " horiz-adv-x="300" 
 />
    <glyph glyph-name="exclam" unicode="!" 
d="M137 597c2 25.333 3.33301 47.665 4 66.998c0 2.66699 0.666992 5.33398 2 8.00098l-44 -2h-1c16.667 -19.333 29.667 -43.666 39 -72.999zM97 721.999c123.333 4 223.331 20.002 299.998 48.002c6.66699 2.66699 13.334 2.5 20.001 -0.5s11.167 -7.83301 13.5 -14.5
s2 -13.334 -1 -20.001s-7.83301 -11 -14.5 -13l-9 -4c-1.33301 -5.33301 -3 -11 -5 -17l-5 -17l-7 -18l-7 -15c-1.33301 -4 -3.83301 -9.5 -7.5 -16.5s-6.16699 -12.167 -7.5 -15.5s-4 -8.66602 -8 -15.999l-8 -15l-9 -15c-4 -8 -6.66699 -13 -8 -15
c-12 -61.333 -19.333 -96.333 -22 -105c-2 -6.66699 -6 -11.834 -12 -15.501s-12.667 -4.5 -20 -2.5c-0.666992 0 -1.66699 0.333008 -3 1c-18 -46 -37 -102.333 -57 -169c-2 -6.66699 -6.16699 -11.667 -12.5 -15s-13.166 -4 -20.499 -2
c-7.33301 2.66699 -12.666 7.33398 -15.999 14.001c-4 3.33301 -6.66699 7 -8 11c-10.667 27.333 -19.667 53 -27 77c-8 5.33301 -12 13 -12 23c0 5.33301 0.333008 11 1 17c-3.33301 11.333 -6 23 -8 35c-2.66699 12 -6.33398 34 -11.001 66
c-4 29.333 -7.66699 50.666 -11 63.999c-10.667 44.667 -29 76.667 -55 96c-5.33301 4.66699 -8.5 10.5 -9.5 17.5s0.666992 13.333 5 19s10 9 17 10s13.5 -0.5 19.5 -4.5c0 7.33301 2.33301 13.666 7 18.999s10.667 8 18 8zM233.998 675.001
c-4 -20 -6.99805 -40.835 -8.99805 -62.502s-3.5 -48.167 -4.5 -79.5s-1.83301 -53.666 -2.5 -66.999s-2.33398 -31.666 -5.00098 -54.999c8.66699 24.667 17.667 48 27 70c-2 5.33301 -2.33301 10.333 -1 15l19 87c9.33301 45.333 17.666 80 24.999 104
c-15.333 -2.66699 -31.333 -5 -48 -7c0 -2 -0.333008 -3.66699 -1 -5zM151 211.999c26.667 -28 61.666 -32.333 104.999 -13c6.66699 2.66699 13.334 2.66699 20.001 0s11.5 -7.16699 14.5 -13.5s3.16699 -12.833 0.5 -19.5s-7 -11.667 -13 -15
c-66 -29.333 -121 -21 -165 25c-4.66699 5.33301 -7 11.5 -7 18.5s2.66699 13 8 18s11.5 7.5 18.5 7.5s13.167 -2.66699 18.5 -8zM145.999 98.999c20 -6 35.499 -8.33496 46.499 -7.00195s28.167 6.33301 51.5 15c6.66699 2.66699 13.167 2.66699 19.5 0
s10.833 -7.5 13.5 -14.5s2.66699 -13.667 0 -20s-7.66699 -10.833 -15 -13.5c-18 -7.33301 -32.667 -12.5 -44 -15.5s-24.833 -4.16699 -40.5 -3.5s-32.167 4.33398 -49.5 11.001c-6.66699 2 -11.5 6.33301 -14.5 13s-3.33301 13.334 -1 20.001s6.83301 11.5 13.5 14.5
s13.334 3.16699 20.001 0.5zM170.998 23.9971l42 9c6.66699 2 13 1 19 -3s9.83301 -9.5 11.5 -16.5s0.5 -13.5 -3.5 -19.5s-9.66699 -9.66699 -17 -11l-42 -9c-6.66699 -2 -13 -1 -19 3s-9.83301 9.5 -11.5 16.5s-0.5 13.5 3.5 19.5s9.66699 9.66699 17 11zM71.998 694.997
v-1v1z" />
    <glyph glyph-name="quotedbl" unicode="&#x22;" horiz-adv-x="249" 
d="M136 755c2.66699 -46 5.33398 -131.668 8.00098 -257.001c0 -7.33301 -2.5 -13.666 -7.5 -18.999s-11 -8 -18 -8s-13.167 2.5 -18.5 7.5s-8 10.833 -8 17.5c-2.66699 125.333 -5.33398 211 -8.00098 257c-0.666992 6.66699 1.5 12.667 6.5 18s11 8.33301 18 9
s13.167 -1.5 18.5 -6.5s8.33301 -11.167 9 -18.5zM213 737.999c4 -22 6.66797 -49.666 8.00098 -82.999c2.66699 -44.667 4.33398 -71 5.00098 -79c0.666992 -6.66699 -1.33301 -12.834 -6 -18.501s-10.5 -8.83398 -17.5 -9.50098s-13.333 1.33301 -19 6
s-8.83398 10.667 -9.50098 18c-0.666992 8 -2.33398 34.667 -5.00098 80c-1.33301 31.333 -4 56.666 -8 75.999c-1.33301 7.33301 0.166992 13.833 4.5 19.5s10 9.33398 17 11.001s13.333 0.333984 19 -3.99902s9.5 -9.83301 11.5 -16.5z" />
    <glyph glyph-name="numbersign" unicode="#" horiz-adv-x="852" 
d="M377 361c30 56.667 70.4961 115.668 121.496 177.001s100.167 114 147.5 158c22.667 20.667 43.667 37.667 63 51c17.333 12 32.333 20.333 45 25c23.333 8.66699 42 6.66699 56 -6c12.667 -11.333 19 -30 19 -56c0 -17.333 -2.33301 -38.333 -7 -63
c-8 -36 -18 -69 -30 -99c-13.333 -33.333 -29.666 -67.166 -48.999 -101.499s-37.666 -64.5 -54.999 -90.5s-40 -56.667 -68 -92l-67 -81l-74 -85l-69 -79c-4.66699 -5.33301 -10.5 -8.33301 -17.5 -9s-13.167 1.33301 -18.5 6c-2 -4 -4.66699 -7 -8 -9
c-5.33301 -4.66699 -11.666 -6.66699 -18.999 -6s-13 4 -17 10c-14.667 19.333 -41 49.333 -79 90c-40 43.333 -68.333 75 -85 95c-67.333 81.333 -106 157.666 -116 228.999c-3.33301 24 -2.66602 51.333 2.00098 82s13 57.667 25 81c16 30.667 36.667 49.667 62 57
c29.333 8 61 -1 95 -27c13.333 -10.667 29.333 -31.334 48 -62.001c14 -24 30 -54.667 48 -92zM197.996 507.001l-30 -56c-3.33301 -6.66699 -8.5 -11 -15.5 -13s-13.667 -1.33301 -20 2s-10.5 8.5 -12.5 15.5s-1.33301 13.5 2 19.5l30 56c3.33301 6.66699 8.5 11 15.5 13
s13.667 1.33301 20 -2s10.5 -8.5 12.5 -15.5s1.33301 -13.5 -2 -19.5zM215.996 428.001l-21 -48c-2.66699 -6.66699 -7.5 -11.334 -14.5 -14.001s-13.667 -2.66699 -20 0s-10.833 7.5 -13.5 14.5s-2.66699 13.5 0 19.5l21 48c2.66699 6.66699 7.5 11.334 14.5 14.001
s13.667 2.66699 20 0s10.833 -7.5 13.5 -14.5s2.66699 -13.5 0 -19.5zM264.996 324.001c-0.666992 -5.33301 -1.66504 -11.334 -2.99805 -18.001l-3 -14c-0.666992 -3.33301 -1.33398 -6 -2.00098 -8c-0.666992 -2.66699 -6.33398 -14.334 -17.001 -35.001
c-3.33301 -6.66699 -8.33301 -11 -15 -13s-13.334 -1.33301 -20.001 2s-11 8.33301 -13 15s-1.33301 13.334 2 20.001l6 11l4 8c0.666992 1.33301 1.33398 2.5 2.00098 3.5s1.16699 1.83301 1.5 2.5s0.5 1.33398 0.5 2.00098v4l2 10l5 20c1.33301 7.33301 5 13 11 17
s12.5 5.16699 19.5 3.5s12.5 -5.5 16.5 -11.5s5 -12.333 3 -19zM331.998 272c-4 -20 -6 -30.335 -6 -31.002c-0.666992 -0.666992 -5 -10.667 -13 -30c-3.33301 -6 -8.33301 -10.333 -15 -13s-13.167 -2.5 -19.5 0.5s-10.833 7.83301 -13.5 14.5s-2.66699 13.334 0 20.001
c2 4 3.83301 7.83301 5.5 11.5s2.83398 6 3.50098 7s1.16699 2 1.5 3s0.666016 1.83301 0.999023 2.5s0.5 1.5 0.5 2.5s0.166992 2 0.5 3s0.833008 3.33301 1.5 7s1.66699 7.83398 3 12.501c1.33301 7.33301 5 13 11 17s12.5 5.16699 19.5 3.5s12.5 -5.5 16.5 -11.5
s5 -12.333 3 -19zM378.998 196.998c-2 -23.333 -2.99902 -35.3301 -2.99902 -35.9971c-0.666992 -1.33301 -4.33398 -12.333 -11.001 -33c-2.66699 -6.66699 -7.16699 -11.667 -13.5 -15s-12.833 -3.83301 -19.5 -1.5s-11.667 6.66602 -15 12.999s-4 12.833 -2 19.5
c2 5.33301 3.66699 10 5 14s2.16602 6.66699 2.49902 8s0.833008 2.33301 1.5 3l1 3v3c0 1.33301 0.333008 4.33301 1 9c0 3.33301 0.333008 9 1 17c0.666992 7.33301 3.83398 13.333 9.50098 18s12 6.66699 19 6s12.833 -3.83398 17.5 -9.50098s6.66699 -11.834 6 -18.501z
M506.999 301.001l-14.999 -58.999c-2 -6.66699 -6 -11.834 -12 -15.501s-12.5 -4.5 -19.5 -2.5s-12.333 6 -16 12s-4.5 12.667 -2.5 20l15 57c1.33301 7.33301 5.16602 12.833 11.499 16.5s13 4.66699 20 3s12.333 -5.66699 16 -12s4.5 -12.833 2.5 -19.5zM543 415.002
c-2.66699 -4.66699 -5.16797 -9.49805 -7.50098 -14.498s-3.66602 -7.83301 -3.99902 -8.5s-1.33301 -2.5 -3 -5.5s-2.83398 -4.66699 -3.50098 -5s-2.5 -2.83301 -5.5 -7.5s-5.83301 -9.33398 -8.5 -14.001c-4.66699 -6 -10.5 -9.66699 -17.5 -11s-13.5 0.166992 -19.5 4.5
s-9.66699 10 -11 17s0 13.5 4 19.5c3.33301 4 6.33301 8 9 12s4.33398 6.33301 5.00098 7s1.66699 2.16699 3 4.5s2.16602 3.83301 2.49902 4.5s1.5 3.16699 3.5 7.5s4.33301 8.83301 7 13.5c3.33301 6.66699 8.33301 11 15 13s13.334 1.33301 20.001 -2s11 -8.33301 13 -15
s1.33301 -13.334 -2 -20.001zM646.999 510.004c-0.666992 -4 -1.66406 -11.998 -2.99707 -23.998c-0.666992 -6 -1.33398 -10.667 -2.00098 -14c-0.666992 -2.66699 -2 -7 -4 -13l-7 -25c-2 -7.33301 -6.16699 -12.666 -12.5 -15.999s-13 -4 -20 -2
s-12.167 6.16699 -15.5 12.5s-4 12.833 -2 19.5l8 26c1.33301 4.66699 2.16602 7.66699 2.49902 9s0.5 4.33301 0.5 9c1.33301 12 2.33301 20 3 24c0.666992 7.33301 3.83398 13.166 9.50098 17.499s12.167 6.16602 19.5 5.49902s13.166 -3.83398 17.499 -9.50098
s6.16602 -12.167 5.49902 -19.5zM713.002 624.006l-17.0039 -21.0078c-4.66699 -6 -10.5 -9.33301 -17.5 -10s-13.167 1.33301 -18.5 6c-10.667 8.66699 -13 19 -7 31c-50.667 -49.333 -99.667 -104.666 -147 -165.999s-81.666 -117.333 -102.999 -168
c2 -6 1.66699 -12 -1 -18s-6.66699 -10.333 -12 -13c-7.33301 -11.333 -17.333 -15 -30 -11c-7.33301 2.66699 -12.5 7.16699 -15.5 13.5s-3.5 12.833 -1.5 19.5l4 10c-18.667 47.333 -40 95.666 -64 144.999c-16.667 35.333 -32 64.333 -46 87
c-14.667 25.333 -26.334 41 -35.001 47c-20 16 -36.333 22.333 -49 19c-11.333 -3.33301 -21.333 -13.666 -30 -30.999c-9.33301 -18 -15.666 -40 -18.999 -66c-4 -25.333 -4.66699 -47 -2 -65c9.33301 -63.333 44 -131.333 104 -204c16 -19.333 43.667 -50.333 83 -93
c36.667 -39.333 62.667 -68.666 78 -87.999c0.666992 2 1.66699 3.66699 3 5l72 81l77 89l65 79c26 32.667 48.667 63.834 68 93.501s37 59.834 53 90.501c-6 -2.66699 -12.333 -2.66699 -19 0s-11.334 7.33398 -14.001 14.001s-2.66699 13.334 0 20.001l10 25
c2.66699 6.66699 7.33398 11.334 14.001 14.001s13.334 2.66699 20.001 0c8.66699 -3.33301 14 -10 16 -20l12 29c10.667 26.667 19.667 56.667 27 90c4 20.667 6 37.667 6 51c0 6.66699 -0.333008 12 -1 16c-1.33301 -0.666992 -2.66602 -1 -3.99902 -1
c-8.66699 -3.33301 -19.667 -9.66602 -33 -18.999c-14.667 -10.667 -31 -23.667 -49 -39c7.33301 0.666992 13.833 -1.33301 19.5 -6s8.83398 -10.5 9.50098 -17.5s-1.33301 -13.167 -6 -18.5zM457.998 181.998l-23.9961 -52
c-2.66699 -6.66699 -7.33398 -11.334 -14.001 -14.001s-13.334 -2.66699 -20.001 0s-11.334 7.33398 -14.001 14.001s-2.66699 13.334 0 20.001c7.33301 18 16 36.667 26 56c3.33301 6 8.33301 10.167 15 12.5s13.167 1.83301 19.5 -1.5s10.666 -8.33301 12.999 -15
s1.83301 -13.334 -1.5 -20.001zM591.002 326.998l-14 -30c-3.33301 -6.66699 -8.33301 -11.167 -15 -13.5s-13.334 -2 -20.001 1s-11.167 7.83301 -13.5 14.5s-2.16602 13.334 0.500977 20.001l14 30c3.33301 6.66699 8.33301 11.167 15 13.5s13.334 2 20.001 -1
s11.167 -7.83301 13.5 -14.5s2.16602 -13.334 -0.500977 -20.001z" />
    <glyph glyph-name="dollar" unicode="$" horiz-adv-x="980" 
d="M-23 131c10.667 -10.667 25.001 -19.998 43.001 -27.998l10 -5v2c0 7.33301 2.5 13.5 7.5 18.5s11.167 7.5 18.5 7.5s13.5 -2.5 18.5 -7.5s7.5 -11.167 7.5 -18.5c0 -6 -1.66699 -11.333 -5 -16c12.667 -2.66699 24.667 -3 36 -1c3.33301 0.666992 12 5.33398 26 14.001
l5 3c-3.33301 3.33301 -6 6.66602 -8 9.99902c-6.66699 9.33301 -14 20.666 -22 33.999l-20 30c-4 7.33301 -10 14.666 -18 21.999s-17 13.333 -27 18c-22.667 11.333 -45.667 10.666 -69 -2.00098c-12.667 -7.33301 -20.334 -16.666 -23.001 -27.999
c14.667 -0.666992 31 -1 49 -1c7.33301 0 13.5 -2.5 18.5 -7.5s7.5 -11.167 7.5 -18.5s-2.5 -13.5 -7.5 -18.5s-11.167 -7.5 -18.5 -7.5h-29zM850.001 123.002c10.667 1.33301 22.002 2.99805 34.002 4.99805c-16 2.66699 -37.667 4.33398 -65 5.00098
c-16.667 0.666992 -40 1 -70 1c-26.667 0 -43.334 0.333008 -50.001 1c-4 0.666992 -7.66699 1.66699 -11 3c-20 -14 -40 -25.667 -60 -35c-58.667 -26.667 -131.334 -45 -218.001 -55c-25.333 -2.66699 -47.333 -4.33398 -66 -5.00098
c44 -11.333 97.667 -14.666 161 -9.99902c4 0 12.833 0.5 26.5 1.5s23.167 1.66699 28.5 2s13.5 1.33301 24.5 3s19.5 3.33398 25.5 5.00098s12.667 4 20 7s13.666 6.5 18.999 10.5c3.33301 2 6.33301 4.33301 9 7l10 10l10 11c15.333 15.333 32.333 24.666 51 27.999
c2.66699 0.666992 9 1.33398 19 2.00098h12h16c28.667 0 53.334 1 74.001 3zM-67.9971 524c5.33301 8.66699 13.3379 12.6582 24.0049 11.9912c7.33301 -0.666992 13.333 -3.66699 18 -9s6.66699 -11.666 6 -18.999c-0.666992 -5.33301 -1.66699 -11 -3 -17
c1.33301 2.66699 3.33301 5.33398 6 8.00098c5.33301 4.66699 11.666 7 18.999 7c3.33301 0 6.33301 -0.666992 9 -2l1 2c2 6.66699 6 11.834 12 15.501s12.5 4.5 19.5 2.5s12.333 -6 16 -12s4.5 -12.667 2.5 -20c-10.667 -40.667 -18.667 -66.667 -24 -78
c-2.66699 -5.33301 -5 -9.33301 -7 -12c0.666992 -2 1 -4.33301 1 -7c2 -51.333 4 -92.666 6 -123.999c12 -1.33301 23 -4.33301 33 -9c14 -6.66699 27 -15.667 39 -27s21 -21.666 27 -30.999l23 -35c8.66699 -14.667 14.667 -24.334 18 -29.001
c16.667 -24 49 -38.667 97 -44c32.667 -3.33301 75.667 -2 129 4c6 0.666992 11.667 1.33398 17 2.00098c-30 -2 -65 2.33301 -105 13c-80.667 21.333 -139.667 53.666 -177 96.999c-46 52 -61.667 119.667 -47 203c11.333 62.667 44.666 122.667 99.999 180
c55.333 56.667 121.333 103.334 198 140.001c50.667 24 100.667 41.667 150 53c50 10.667 100 13 150 7s93 -22.333 129 -49c48.667 -36.667 78 -82.334 88 -137.001c12 -69.333 2.5 -143.166 -28.5 -221.499s-75.5 -145.5 -133.5 -201.5h4c30.667 0 54.667 -0.333008 72 -1
c29.333 -0.666992 52.666 -2.33398 69.999 -5.00098c12 -2 21.667 -4.33301 29 -7c12 -3.33301 20.667 -8.66602 26 -15.999c12 -14 15.333 -28.333 10 -43c-4.66699 -11.333 -14 -20.333 -28 -27c-16 -7.33301 -40.667 -12.666 -74 -15.999c-20.667 -2 -46.667 -3 -78 -3
h-16h-12h-9c-8.66699 -2 -17 -7 -25 -15c-0.666992 -1.33301 -3.16699 -4.33301 -7.5 -9s-8.66602 -9 -12.999 -13s-8.5 -7.66699 -12.5 -11c-8 -6 -17.167 -11.167 -27.5 -15.5s-20 -7.66602 -29 -9.99902s-19.833 -4.5 -32.5 -6.5s-22.5 -3.16699 -29.5 -3.5
s-17 -1 -30 -2s-20.833 -1.5 -23.5 -1.5c-54.667 -4 -102.334 -2.66699 -143.001 4c-0.666992 -2.66699 -1.66699 -5 -3 -7c-8.66699 -17.333 -16.667 -34.666 -24 -51.999c-2.66699 -6.66699 -7.33398 -11.334 -14.001 -14.001s-13.334 -2.66699 -20.001 0
s-11.334 7.33398 -14.001 14.001s-2.66699 13.334 0 20.001c8 18.667 15.667 35.667 23 51c-5.33301 1.33301 -10.666 3 -15.999 5c-0.666992 -2.66699 -1.33398 -5 -2.00098 -7c-10.667 -18.667 -21.667 -32 -33 -40c-7.33301 -5.33301 -14.666 -8.33301 -21.999 -9
c-12.667 -1.33301 -22.334 3 -29.001 13c-8.66699 11.333 -9.66699 26.666 -3 45.999c3.33301 10.667 9 22 17 34l-11 8c-14 9.33301 -23.333 14.333 -28 15c-3.33301 0.666992 -10 -2.33301 -20 -9c-20 -12.667 -35.333 -20 -46 -22c-36.667 -5.33301 -77.667 3 -123 25
c-52 24 -82.333 54.667 -91 92c-6 23.333 -4.5 44.5 4.5 63.5s22.5 33.833 40.5 44.5c-4.66699 11.333 -11 28.333 -19 51c-10 29.333 -19 50.333 -27 63c-3.33301 6 -4 12.5 -2 19.5s6 12.333 12 16s12.5 4.5 19.5 2.5s12.5 -6 16.5 -12c8.66699 -16 18.667 -40 30 -72
l1 -3c-0.666992 19.333 -1.66699 43.333 -3 72c0 3.33301 0.666992 6.66602 2 9.99902c-1.33301 2.66699 -2.33301 5 -3 7c-4 11.333 -5.33301 35 -4 71v4c-0.666992 -3.33301 -1.66699 -7 -3 -11c-5.33301 -13.333 -10.666 -23.666 -15.999 -30.999
c-6 -8 -12.667 -13.333 -20 -16c-8.66699 -2 -17 -0.333008 -25 5c-4.66699 3.33301 -8 8.33301 -10 15c-4 10 -4.66699 28.333 -2 55c0.666992 6.66699 3.83398 12.334 9.50098 17.001s12.167 6.66699 19.5 6c1.33301 0 2.66602 -0.333008 3.99902 -1zM620.008 403.991
l-26.002 -39.999c-5.33301 -8.66699 -14.666 -21.5 -27.999 -38.5s-25.333 -29.667 -36 -38s-24.5 -16.833 -41.5 -25.5s-34.833 -14.334 -53.5 -17.001c-35.333 -4.66699 -66 0.5 -92 15.5s-45 36.5 -57 64.5c-11.333 25.333 -15.833 53.333 -13.5 84s11.833 59 28.5 85
c24 37.333 66.167 70.333 126.5 99s120.833 45.334 181.5 50.001c70.667 5.33301 126 -7.33398 166 -38.001c48.667 -36.667 68 -94 58 -172c-9.33301 -68 -57.666 -136.333 -144.999 -205c-35.333 -28 -72.666 -52 -111.999 -72
c-39.333 -21.333 -75.666 -36.666 -108.999 -45.999c-3.33301 -1.33301 -7 -2.33301 -11 -3c58 10 108 24.667 150 44c49.333 23.333 95 59.666 137 108.999c42 50 73.5 105.833 94.5 167.5s26.833 118.834 17.5 171.501c-7.33301 42 -30 77 -68 105
c-46 31.333 -102 45.166 -168 41.499s-135 -22.5 -207 -56.5c-70.667 -34 -130.667 -76.667 -180 -128c-50 -51.333 -79.333 -102.666 -88 -153.999c-12 -67.333 -0.666992 -121 34 -161c30.667 -34.667 81.334 -61.667 152.001 -81
c48.667 -12.667 89.667 -14.334 123 -5.00098c29.333 8.66699 62.333 22.667 99 42s71.334 41.666 104.001 66.999c76 59.333 117.667 116 125 170c8 58 -4.33301 99.667 -37 125c-30 22 -73.667 31 -131 27c-54.667 -4 -108.5 -18.667 -161.5 -44s-88.5 -52.333 -106.5 -81
c-12 -18.667 -18.833 -39.167 -20.5 -61.5s1.16602 -41.833 8.49902 -58.5c17.333 -39.333 48.666 -55.666 93.999 -48.999c16.667 2 32 6.66699 46 14s27.167 18 39.5 32s22.666 26.833 30.999 38.5s19.166 28.5 32.499 50.5c4 6 9.5 9.83301 16.5 11.5s13.5 0.5 19.5 -3.5
s9.83301 -9.5 11.5 -16.5s0.5 -13.5 -3.5 -19.5z" />
    <glyph glyph-name="percent" unicode="%" horiz-adv-x="775" 
d="M305 353c0.666992 -6 -0.667969 -11.666 -4.00098 -16.999c-4 -6 -9.5 -9.83301 -16.5 -11.5s-13.5 -0.5 -19.5 3.5c-11.333 7.33301 -29 20 -53 38c-6 2 -10.667 5.66699 -14 11l-16 12c-32.667 23.333 -59.667 38.666 -81 45.999c-26 9.33301 -54 13 -84 11
c-14.667 -1.33301 -24.667 -4 -30 -8c-2 -2 -2.66699 -5.33301 -2 -10c3.33301 -13.333 18 -31.666 44 -54.999c22 -19.333 54.667 -44.333 98 -75l43 -30l46 -32l40 -30c15.333 -10.667 28 -20.334 38 -29.001l95 97c8.66699 8.66699 34 30 76 64l106 87
c40.667 34.667 71.667 64 93 88c23.333 27.333 35.333 47 36 59l-1 6c-4.66699 2 -13.667 1.33301 -27 -2c-15.333 -3.33301 -41.333 -13 -78 -29c-127.333 -56 -223.666 -120.667 -288.999 -194zM426.998 727.001c-4.66699 -0.666992 -10.335 -3.33301 -17.002 -8
c-16 -10.667 -30.333 -25 -43 -43c-39.333 -56 -62.666 -123 -69.999 -201l63 114c22.667 42 40 76 52 102c6.66699 14.667 11.334 26 14.001 34zM149.997 558.002c-10.667 31.333 -18.998 56.999 -24.998 76.999c-4 15.333 -6.66699 28 -8 38
c-2.66699 14.667 -2.33398 26 0.999023 34c10.667 22.667 31.667 33.334 63 32.001c28.667 -1.33301 49 -11 61 -29c5.33301 -8 10.333 -23.667 15 -47c5.33301 -22 8.66602 -46.667 9.99902 -74c13.333 42 32.666 81 57.999 117c16 22.667 34.667 41.334 56 56.001
c16.667 11.333 32.334 17 47.001 17c22 0 38.333 -10.667 49 -32c3.33301 -6.66699 4.33301 -14.334 3 -23.001c-1.33301 -4.66699 -3 -10 -5 -16c-2 -5.33301 -5 -12.666 -9 -21.999c39.333 28 80.333 48.333 123 61c0.666992 0 1.33398 0.333008 2.00098 1s2 1.5 4 2.5
s4.66699 2.16699 8 3.5c17.333 7.33301 31.666 6 42.999 -4c10.667 -10 15.334 -23.333 14.001 -40c-1.33301 -9.33301 -4.33301 -18.666 -9 -27.999c-2 -4.66699 -7.66699 -11.334 -17 -20.001l-27 -25l-68 -58l35 16c39.333 17.333 68.333 28 87 32
c23.333 5.33301 42.333 5 57 -1c23.333 -8.66699 34.666 -27.334 33.999 -56.001c-0.666992 -24 -17 -54.333 -49 -91c-23.333 -26.667 -56 -58 -98 -94l-107 -88c-38 -30 -62.333 -50.333 -73 -61c-42.667 -42.667 -74.667 -75.667 -96 -99
c1.33301 -9.33301 -1.66699 -17 -9 -23c-5.33301 -5.33301 -11.5 -7.66602 -18.5 -6.99902s-12.833 3.66699 -17.5 9c-8 8.66699 -19.667 19 -35 31l-40 31l-57 40l-55 37c-46.667 32.667 -81 59 -103 79c-34 30.667 -53.667 58 -59 82
c-6.66699 26.667 0.333008 47.667 21 63c13.333 10.667 32.333 17 57 19h19c-27.333 30.667 -36.666 62 -27.999 94c6 22.667 16.333 37 31 43c13.333 5.33301 27.666 4.33301 42.999 -3c9.33301 -5.33301 19.666 -13.333 30.999 -24
c12.667 -12.667 26.334 -29.334 41.001 -50.001zM166.999 686.001c0.666992 -2 1 -3.66699 1 -5c1.33301 -8 4 -18.667 8 -32c5.33301 -20 15.333 -51.667 30 -95l9 -26c1.33301 49.333 -1.33398 90.333 -8.00098 123c-4 18 -7 28.333 -9 31
c-0.666992 0.666992 -1.5 1.16699 -2.5 1.5s-2.16699 0.833008 -3.5 1.5s-3.16602 1.16699 -5.49902 1.5s-4.83301 0.5 -7.5 0.5c-4.66699 0 -8.66699 -0.333008 -12 -1zM590.999 693.001c-42 -14 -81.332 -36.5 -117.999 -67.5s-64.334 -65.5 -83.001 -103.5l104 87l78 67z
M56 584.001c-0.666992 -1.33301 -1.33301 -3.33203 -2 -5.99902c-5.33301 -20.667 8.66699 -43 42 -67c11.333 -8.66699 24 -16.334 38 -23.001l-12 18c-20 30 -36.667 51.667 -50 65c-6 6.66699 -11.333 11 -16 13zM113.001 408.002l19 -23
c4.66699 -6 6.66699 -12.5 6 -19.5s-3.83398 -12.833 -9.50098 -17.5s-12 -6.66699 -19 -6s-12.833 3.66699 -17.5 9l-19 23c-4.66699 6 -6.66699 12.5 -6 19.5s3.83398 12.833 9.50098 17.5s12 6.66699 19 6s12.833 -3.66699 17.5 -9zM222.001 323.002l6.00098 -6.99902
l4 -6l1.5 -3l0.5 -1l2 -2c0.666992 -0.666992 1.16699 -1 1.5 -1s0.833008 -0.333008 1.5 -1s1.66699 -1.33398 3 -2.00098s3.33301 -2 6 -4l9 -7c6 -4 9.5 -9.5 10.5 -16.5s-0.5 -13.5 -4.5 -19.5s-9.5 -9.5 -16.5 -10.5s-13.5 0.5 -19.5 4.5
c-17.333 12 -26.333 18.333 -27 19s-7.33398 9 -20.001 25c-4 6 -5.5 12.5 -4.5 19.5s4.33301 12.667 10 17s12 6 19 5s12.833 -4.16699 17.5 -9.5zM360.002 391.003l19 25c4.66699 5.33301 10.5 8.5 17.5 9.5s13.333 -0.666992 19 -5s9 -10 10 -17s-0.5 -13.5 -4.5 -19.5
l-19 -25c-4.66699 -5.33301 -10.5 -8.5 -17.5 -9.5s-13.333 0.666992 -19 5s-9 10 -10 17s0.5 13.5 4.5 19.5zM537.002 488.003c19.333 15.333 40.3301 31 62.9971 47c6 4 12.667 5.16699 20 3.5s13 -5.33398 17 -11.001s5.16699 -12.167 3.5 -19.5s-5.16699 -13 -10.5 -17
c-22.667 -14.667 -43 -29 -61 -43c-5.33301 -4.66699 -11.666 -6.66699 -18.999 -6s-13.166 3.83398 -17.499 9.50098s-6.16602 12.167 -5.49902 19.5s4 13 10 17zM357.999 284.003l-13 -33c-2.66699 -6.66699 -7.33398 -11.334 -14.001 -14.001s-13.334 -2.66699 -20.001 0
s-11.334 7.33398 -14.001 14.001s-2.66699 13.334 0 20.001l13 33c2.66699 6.66699 7.33398 11.334 14.001 14.001s13.334 2.66699 20.001 0s11.334 -7.33398 14.001 -14.001s2.66699 -13.334 0 -20.001z" />
    <glyph glyph-name="ampersand" unicode="&#x26;" horiz-adv-x="708" 
d="M387 334c-2 2 -4.33301 4 -7 6c-0.666992 0.666992 -2.5 1.16699 -5.5 1.5s-7.5 0 -13.5 -1s-12 -2.5 -18 -4.5c-6.66699 -2.66699 -11.667 -5.33398 -15 -8.00098s-5.33301 -5 -6 -7v-2v-1c0 -0.666992 0.333008 -1 1 -1h1
c7.33301 -1.33301 18.666 0.333984 33.999 5.00098c8.66699 3.33301 18.334 7.33301 29.001 12zM161 577c32.667 40.667 68.3398 73.9932 107.007 99.9932c39.333 26 84.666 49 135.999 69c0.666992 46 1.33398 77 2.00098 93c0 7.33301 2.66699 13.333 8 18
s11.666 7 18.999 7s13.333 -2.66699 18 -8s7 -11.666 7 -18.999c-0.666992 -17.333 -1.33398 -41.666 -2.00098 -72.999c17.333 5.33301 33.666 9.33301 48.999 12c53.333 9.33301 95.333 4.66602 126 -14.001c38.667 -23.333 56.667 -65 54 -125
c-1.33301 -33.333 -9.33301 -66.333 -24 -99c-14.667 -33.333 -33.667 -63.666 -57 -90.999s-46.833 -51.666 -70.5 -72.999s-49.167 -41.333 -76.5 -60c-1.33301 -1.33301 -3.33301 -2.66602 -6 -3.99902c1.33301 -18.667 -2.33398 -37.667 -11.001 -57
c-9.33301 -20 -22.333 -38.333 -39 -55s-34 -29 -52 -37c-6.66699 -2.66699 -13.334 -2.66699 -20.001 0s-11.334 7.33398 -14.001 14.001s-2.66699 13.334 0 20.001s7.33398 11.334 14.001 14.001c12 4.66699 24 13 36 25c12 12.667 21 26 27 40
c1.33301 2.66699 2.33301 5 3 7c-7.33301 -3.33301 -14.333 -6 -21 -8c-22.667 -7.33301 -42 -10 -58 -8c-26 4 -41.333 19.333 -46 46c-2.66699 18 1.66602 33.167 12.999 45.5s25 21.5 41 27.5c35.333 14 64 13.333 86 -2c9.33301 -6 17 -13.333 23 -22
c55.333 39.333 101.833 83 139.5 131s57.834 97.333 60.501 148c2 39.333 -7.66699 65.333 -29 78c-19.333 12 -49.333 14.667 -90 8c-18 -3.33301 -37.667 -8.33301 -59 -15c-0.666992 -43.333 -2.66699 -81.333 -6 -114
c-0.666992 -6.66699 -3.83398 -12.334 -9.50098 -17.001s-12 -6.66699 -19 -6s-12.833 3.83398 -17.5 9.50098s-6.66699 12.167 -6 19.5c2.66699 26 4.66699 55.333 6 88c-41.333 -18 -77 -37 -107 -57c-33.333 -22.667 -65 -52 -95 -88
c-4.66699 -6 -10.5 -9.33301 -17.5 -10s-13.333 1.33301 -19 6s-8.83398 10.5 -9.50098 17.5s1.33301 13.167 6 18.5zM429.006 61.9932c-2 -18.667 -3.66797 -39.332 -5.00098 -61.999c-0.666992 -6.66699 -3.66699 -12.5 -9 -17.5s-11.5 -7.16699 -18.5 -6.5
s-13 3.66699 -18 9s-7.16699 11.666 -6.5 18.999c1.33301 22.667 3 44 5 64c0.666992 6.66699 3.83398 12.334 9.50098 17.001s12 6.66699 19 6s12.833 -3.83398 17.5 -9.50098s6.66699 -12.167 6 -19.5z" />
    <glyph glyph-name="quotesingle" unicode="'" horiz-adv-x="206" 
d="M110 823c15.333 -21.333 29 -49.332 41 -83.999c16 -44 26 -70 30 -78c2.66699 -6.66699 2.83398 -13.334 0.500977 -20.001s-6.83301 -11.5 -13.5 -14.5s-13.334 -3.33301 -20.001 -1s-11.667 6.83301 -15 13.5l-31 83c-10.667 29.333 -22 53 -34 71
c-4 6 -5.5 12.5 -4.5 19.5s4.5 12.5 10.5 16.5s12.5 5.5 19.5 4.5s12.5 -4.5 16.5 -10.5z" />
    <glyph glyph-name="parenleft" unicode="(" horiz-adv-x="336" 
d="M242 809l24.9951 32c4.66699 5.33301 10.5 8.33301 17.5 9s13.333 -1.33301 19 -6s8.83398 -10.5 9.50098 -17.5s-1.33301 -13.5 -6 -19.5c-16.667 -20 -32 -40.667 -46 -62l-24 -41c-15.333 -26.667 -26.666 -49 -33.999 -67
c-44.667 -104.667 -56.334 -234.667 -35.001 -390c1.33301 -10 6.33301 -32.667 15 -68c8.66699 -32 13 -57.667 13 -77v-1v-5c-1.33301 -12.667 -7.66602 -20.334 -18.999 -23.001h-6c-11.333 -1.33301 -19.666 4 -24.999 16l-1 4v1c0 0.666992 -0.333008 1 -1 1v3v1
c-3.33301 13.333 -9.33301 35 -18 65c-21.333 74 -32.666 139.333 -33.999 196c-3.33301 144.667 38.334 282.334 125.001 413.001l13 24c2.66699 5.33301 6.66699 9.33301 12 12z" />
    <glyph glyph-name="parenright" unicode=")" horiz-adv-x="275" 
d="M198 329c3.33301 69.333 1.33496 122.667 -5.99805 160c-6 34 -22.333 80 -49 138c-29.333 62.667 -54.666 101.667 -75.999 117c-6 4 -9.5 9.66699 -10.5 17s0.5 13.833 4.5 19.5s9.66699 9 17 10s13.666 -0.5 18.999 -4.5c7.33301 -5.33301 15 -12.333 23 -21
c5.33301 -2 9.66602 -5.33301 12.999 -10c50 -68 83.333 -135 100 -201s22.334 -140.667 17.001 -224c-2.66699 -56.667 -4 -87 -4 -91c-0.666992 -37.333 -10.667 -85.333 -30 -144c-7.33301 -22 -14.333 -41 -21 -57c-3.33301 -7.33301 -6.33301 -13.333 -9 -18
c-2 -3.33301 -3.66699 -6 -5 -8c-2 -2.66699 -4 -4.66699 -6 -6c-6.66699 -4.66699 -14 -6 -22 -4c-14.667 3.33301 -23.334 12.333 -26.001 27c-0.666992 7.33301 0 16 2 26c2.66699 9.33301 9 27.333 19 54c24.667 62.667 39 113 43 151
c3.33301 25.333 5.66602 48.333 6.99902 69z" />
    <glyph glyph-name="asterisk" unicode="*" horiz-adv-x="669" 
d="M-1 384c3.33301 -2.66699 5.66699 -1.66699 7 3l-5 -2zM457.001 465c-5.33301 -2.66699 -10.667 -3.66699 -16 -3l-30 -44c38 -7.33301 67 -13.333 87 -18h2zM340 695h3l-2 2zM205 189l-4.99707 -24.9961c-1.33301 -7.33301 -5 -13 -11 -17s-12.5 -5.16699 -19.5 -3.5
s-12.5 5.5 -16.5 11.5s-5 12.333 -3 19c4 22 13.333 79 28 171l-84 26c-11.333 3.33301 -40.333 5.66602 -87 6.99902h-2c-0.666992 -0.666992 -2.16699 -1.16699 -4.5 -1.5s-3.83301 -0.833008 -4.5 -1.5c-6.66699 -1.33301 -12.667 -1.33301 -18 0
c-14.667 2.66699 -22.667 11.667 -24 27c0 4 0.666992 7.83301 2 11.5s2.66602 6.16699 3.99902 7.5l2 2c1.33301 1.33301 2.66602 2.33301 3.99902 3c0.666992 0.666992 1.5 1.16699 2.5 1.5s2.16699 0.833008 3.5 1.5c2 1.33301 5 2.66602 9 3.99902l27 11l61 24
c30.667 12.667 78 28 142 46c11.333 42.667 25 82.334 41 119.001c12 26.667 23 49.667 33 69c9.33301 18 17.333 32 24 42c4.66699 6.66699 9 12.334 13 17.001c8 8 17 12 27 12c4 0 7.66699 -0.833008 11 -2.5s5.66602 -3.5 6.99902 -5.5l2 -2
c0.666992 -1.33301 1.5 -2.83301 2.5 -4.5s2.16699 -3.83398 3.5 -6.50098c2 -4 4.66699 -10.333 8 -19l24 -58c12 -28.667 23.333 -54.334 34 -77.001l26 15l21 12c3.33301 2 6 3.5 8 4.5s4 1.83301 6 2.5s4.33301 1 7 1c8 0.666992 14.667 -2 20 -8
c4.66699 -5.33301 7 -11.666 7 -18.999c0 -2.66699 -0.333008 -5.33398 -1 -8.00098s-1.66699 -5.33398 -3 -8.00098l-8 -13l-24 -34l-17 -23c16 -26 48 -73.667 96 -143l45 -65l13 -21c2 -3.33301 3.66699 -5.66602 5 -6.99902l2 -4c0.666992 -2 1 -3.66699 1 -5
c1.33301 -6.66699 0.666016 -12.667 -2.00098 -18c-8 -14.667 -21.333 -20.667 -40 -18c-3.33301 0.666992 -7.33301 1.66699 -12 3c-3.33301 0.666992 -5.33301 1 -6 1c-30.667 6 -79 18.333 -145 37c-38 11.333 -67.667 19.333 -89 24l-6 -13
c-4.66699 -10 -12.334 -15 -23.001 -15c-22.667 -34.667 -43 -64.334 -61 -89.001c-1.33301 -2 -2.66602 -3.66699 -3.99902 -5v-1c0 -7.33301 -2.66699 -13.333 -8 -18s-11.666 -7 -18.999 -7s-13.333 2.66699 -18 8s-7 11.666 -7 18.999v6zM277.003 476.004l1 4.00098
l-15 -5l-9 -3l-1 -3c6 1.33301 14 3.66602 24 6.99902zM304.003 387.005h-2l-6 -19h1zM508.003 355.005l27 -6l-17 25c0 -1.33301 -0.333008 -3 -1 -5c-1.33301 -5.33301 -4.33301 -10 -9 -14zM377.003 607.005l2 2l-2 3v-5zM307.003 565.005c-0.666992 2 -1 4.33301 -1 7
c0 28 0.333008 46.333 1 55l-7 -16c-12 -27.333 -22 -54 -30 -80l27 9l1 2c1.33301 4.66699 3.66602 8.66699 6.99902 12c0.666992 3.33301 1.33398 7 2.00098 11z" />
    <glyph glyph-name="plus" unicode="+" horiz-adv-x="791" 
d="M190 406l3 12h-3v-12zM698 486c4 1.33301 8.00098 2.33301 12.001 3c-2.66699 0.666992 -5.33398 1.66699 -8.00098 3l-3 1zM207.001 238l-12 -2l12 -7v9zM408.001 393l-5 9.99902c-22 42.667 -35.333 67.334 -40 74.001l-21 -10c-13.333 -5.33301 -28.333 -11 -45 -17z
M343.001 367.999c0 -2.66699 -0.666992 -5.66699 -2 -9l-12 -34c20 6 40 12.333 60 19zM528.001 445.999c18 25.333 41.001 62.999 69.001 112.999l-19 15c-0.666992 -0.666992 -1.33398 -1 -2.00098 -1l-20 -8c1.33301 -5.33301 1.33301 -10.666 0 -15.999
c-12 -38.667 -21.333 -73 -28 -103zM467.002 394.998c5.33301 42.667 16 91.333 32 146l-40 -18l-49 -23l39 -73zM474.002 289.997c13.333 19.333 23.999 34 31.999 44l-5 -2c-1.33301 -5.33301 -4 -10 -8 -14c-9.33301 -8 -19.666 -8.66699 -30.999 -2
c2.66699 -8 6.66699 -16.667 12 -26zM576.001 156.997c-0.666992 -1.33301 -2 -3.66797 -4 -7.00098l-12 -20l31 -70c0.666992 0.666992 1 1.33398 1 2.00098l5 10c-2 3.33301 -3.33301 7 -4 11c-1.33301 5.33301 -7 30 -17 74zM555.001 344.995
c0 4 0.334961 7.66699 1.00195 11l-9 -4c1.33301 -0.666992 2.66602 -1.5 3.99902 -2.5s2.66602 -2.5 3.99902 -4.5zM217.003 315.995c13.333 28 26.667 59 40 93c0 1.33301 0.333008 2.33301 1 3l-11 6c-11.333 -44 -21.333 -78 -30 -102zM213.004 306.995
c-7.33301 -10.667 -17.332 -13.667 -29.999 -9c-2.66699 0.666992 -5.33398 2 -8.00098 4l-4 -23c3.33301 4 7.33301 6.33301 12 7l25 6c0 3.33301 1 6.33301 3 9zM525.005 402.995c-1.33301 1.33301 -2.66699 3 -4 5c-0.666992 -4 -1 -7.66699 -1 -11l5 2v4z
M622.004 454.995c0 -0.666992 0.333008 -1.33301 1 -2l19 10c4 24.667 7 44 9 58l-11 7l-6 -9h1c5.33301 -4 8.83301 -9.66699 10.5 -17s0.5 -14 -3.5 -20zM536.004 287.996l-33.001 -46l5 -10c12.667 20 19.334 30.667 20.001 32s2 5.33301 4 12zM535.003 190.996
c-2 -0.666992 -3.66699 -1 -5 -1l3 -5c0 1.33301 0.666992 3.33301 2 6zM329.003 230.996l-27.999 28.001c-0.666992 0.666992 -1.33398 1.66699 -2.00098 3l-41 -11v-2l4 -48l49 -25c0.666992 1.33301 1 2.33301 1 3c10 29.333 15.667 46.666 17 51.999zM387.004 247.997
l85.999 -76l15 -14l-19 38c-4 7.33301 -13.333 23 -28 47c-12.667 21.333 -22 39.333 -28 54v1c-17.333 -6.66699 -35 -12.667 -53 -18c2.66699 0 5.66699 -0.333008 9 -1c6.66699 -2 11.834 -6 15.501 -12s4.5 -12.333 2.5 -19zM419.003 149.997l-20 17.998
c-5.33301 -11.333 -14.333 -16.333 -27 -15c-4.66699 0.666992 -8.66699 2.33398 -12 5.00098c-1.33301 -1.33301 -2.33301 -2.66602 -3 -3.99902l15 -8l47 -23v2v25zM768.003 512.995c-2 -8 -6.16602 -30.1709 -12.499 -66.5039s-10.833 -60.5 -13.5 -72.5l-12 -65
c-6.66699 -31.333 -12.667 -55.666 -18 -72.999l-18 -64c-8 -25.333 -16.667 -48.666 -26 -69.999s-19.333 -42.666 -30 -63.999c-3.33301 -6 -8 -10.167 -14 -12.5s-12 -2.16602 -18 0.500977l3 -8c3.33301 -8 3 -15.667 -1 -23c-0.666992 -4 -2 -7.66699 -4 -11
c-4.66699 -6 -10.5 -9.66699 -17.5 -11s-13.5 0 -19.5 4c-24.667 17.333 -52 34.333 -82 51h-3c-11.333 0 -19.333 5 -24 15c-24 13.333 -60.333 32 -109 56c-112.667 56 -188.334 95.667 -227.001 119c-6.66699 3.33301 -10.834 8.5 -12.501 15.5s-0.5 13.5 3.5 19.5v1v6
l9 42c4 18.667 7 33.167 9 43.5s3.83301 22.833 5.5 37.5s2.16699 28.334 1.5 41.001c0 7.33301 2.33301 13.666 7 18.999s10.667 8 18 8h4c2 8.66699 7.33301 14.334 16 17.001c12.667 5.33301 36.334 13 71.001 23c28 8.66699 50 16.667 66 24l117 55
c48.667 22.667 89 39.667 121 51c5.33301 2 10.333 2.33301 15 1c10.667 6.66699 20.667 6 30 -2c31.333 -24.667 57 -43.334 77 -56.001h6c8 -2 14 -6.66699 18 -14l22 -12c6 5.33301 13 7.33301 21 6c6.66699 -1.33301 12 -5 16 -11s5.66699 -12.667 5 -20z
M608.004 355.991l-2 -52c0 -12 1.83301 -29.167 5.5 -51.5l8.5 -50.5l11 -51c24.667 66 47.667 159.667 69 281c-3.33301 -1.33301 -7 -3 -11 -5c-7.33301 -45.333 -14.333 -81.666 -21 -108.999c-1.33301 -6.66699 -5 -12 -11 -16s-12.5 -5.16699 -19.5 -3.5
s-12.5 5.5 -16.5 11.5s-5 12.667 -3 20c4.66699 20 9 42.667 13 68l-24 -14l-1 -2c-0.666992 -2.66699 -2 -5.33398 -4 -8.00098c4.66699 -5.33301 6.66699 -11.333 6 -18z" />
    <glyph glyph-name="comma" unicode="," horiz-adv-x="163" 
d="M140 90c-1.33301 -28.667 -3.99902 -51.001 -7.99902 -67.001s-12.667 -35.333 -26 -58c-3.33301 -6 -8.5 -9.83301 -15.5 -11.5s-13.667 -0.666992 -20 3s-10.333 9 -12 16s-0.5 13.833 3.5 20.5c10.667 17.333 17.5 31.833 20.5 43.5s4.83301 30.167 5.5 55.5
c0 7.33301 2.66699 13.333 8 18s11.666 7 18.999 7s13.333 -2.66699 18 -8s7 -11.666 7 -18.999z" />
    <glyph glyph-name="hyphen" unicode="-" horiz-adv-x="306" 
d="M105 347l18.999 0.000976562c5.33301 5.33301 11.666 8 18.999 8h13c4 0 8.83301 0.166992 14.5 0.5s9.83398 0.5 12.501 0.5c18 0 32.667 -0.333008 44 -1c1.33301 0 4.83301 -0.166992 10.5 -0.5s10.167 -0.833008 13.5 -1.5c7.33301 -0.666992 13 -2 17 -4
c10.667 -6 16 -14.667 16 -26c-0.666992 -9.33301 -5 -16.666 -13 -21.999c-3.33301 -2.66699 -7.66602 -4.33398 -12.999 -5.00098c-2 -0.666992 -4.33301 -1 -7 -1c-4.66699 -0.666992 -10.667 -1 -18 -1c-12 -0.666992 -28 -0.666992 -48 0
c-8.66699 0 -19.334 0.166992 -32.001 0.5s-23 0.5 -31 0.5h-15c-7.33301 0 -13.666 2.33301 -18.999 7s-8 10.667 -8 18s2.33301 13.666 7 18.999s10.667 8 18 8z" />
    <glyph glyph-name="period" unicode="." horiz-adv-x="230" 
d="M146 99c18 6.66699 32.999 5.00098 44.999 -4.99902s17.333 -26.667 16 -50c-1.33301 -18 -7.33301 -45 -18 -81c-2 -6.66699 -6.16699 -11.667 -12.5 -15s-13.166 -4 -20.499 -2c-12 4 -18 12 -18 24c-8 -4.66699 -16.333 -4.66699 -25 0c-26 12.667 -45 29.667 -57 51
s-13.333 41.666 -4 60.999c10 21.333 27.667 31.333 53 30c13.333 0 27 -4.33301 41 -13zM153.999 35.001c-6.66699 0 -12.3291 2.33105 -16.9961 6.99805l-2 1c-6.66699 2 -11.667 5.66699 -15 11c-6.66699 4 -12.334 6 -17.001 6h-4
c-0.666992 -1.33301 -0.833984 -3.66602 -0.500977 -6.99902s3.66602 -8.66602 9.99902 -15.999s15.833 -14.333 28.5 -21c4 -2 7.33301 -5.33301 10 -10c3.33301 11.333 5.66602 21 6.99902 29z" />
    <glyph glyph-name="slash" unicode="/" horiz-adv-x="409" 
d="M56 -25c20 73.333 36.3359 130.833 49.0029 172.5s31.167 93.167 55.5 154.5s50.5 116.333 78.5 165c18 30 39.667 62.667 65 98c1.33301 2 3.33301 5.66699 6 11c4.66699 11.333 7.33398 18 8.00098 20c5.33301 9.33301 10.666 16.333 15.999 21
c6.66699 5.33301 14 8 22 8c8.66699 -0.666992 16 -4.33398 22 -11.001c6 -5.33301 8.66699 -12 8 -20c0 -2 -0.333008 -4 -1 -6c-0.666992 -1.33301 -1.33398 -2.83301 -2.00098 -4.5s-1.66699 -3.83398 -3 -6.50098c-2 -3.33301 -5 -8.66602 -9 -15.999l-29 -47
c-30 -48.667 -46 -75 -48 -79l-64 -126c-16.667 -33.333 -33.834 -73.666 -51.501 -120.999s-30.167 -91.666 -37.5 -132.999c-2 -8 -6.66699 -14 -14 -18l-21 -76c-2 -6.66699 -6.16699 -11.834 -12.5 -15.501s-12.833 -4.5 -19.5 -2.5s-11.834 6.16699 -15.501 12.5
s-4.5 12.833 -2.5 19.5z" />
    <glyph glyph-name="zero" unicode="0" horiz-adv-x="598" 
d="M279 383c-5.33301 -9.33301 -13.666 -13.667 -24.999 -13c-2 0 -5 0.333008 -9 1c-4 0 -8 0.666992 -12 2h-2c-4.66699 0.666992 -8.33398 1 -11.001 1l-2 -2c-0.666992 -0.666992 -2.33398 -2 -5.00098 -4c-3.33301 -2.66699 -6 -4.66699 -8 -6
c-28.667 -20.667 -51.667 -47.334 -69 -80.001c-4.66699 -18.667 -7.66699 -38.667 -9 -60c-4 -52.667 -0.333008 -91 11 -115c26 -35.333 62.167 -56.666 108.5 -63.999s91.5 -1 135.5 19c37.333 16 68.333 37.667 93 65c19.333 24.667 32.333 51 39 79
c6.66699 28.667 7.33398 56 2.00098 82c-1.33301 6.66699 -3 13 -5 19c-9.33301 18.667 -23.5 35.667 -42.5 51s-39.167 27.333 -60.5 36l-23 8c-32 2 -67.333 -4.33301 -106 -19zM87 299.999c18 62.667 50.999 108.667 98.999 138c57.333 34 126.666 39 207.999 15
c24 -2 46 -7.33301 66 -16c48 -21.333 81 -58 99 -110c6 -12 10.333 -24.333 13 -37c14 -72 -4.66699 -137 -56 -195c-40.667 -52.667 -97 -88.334 -169 -107.001c-7.33301 -2 -22.666 -3 -45.999 -3h-34c-72 4 -125 27.667 -159 71c-5.33301 8 -10.333 16.333 -15 25l-3 3
c-14 22 -23.167 45.833 -27.5 71.5s-4.16602 50.334 0.500977 74.001s12.667 47.167 24 70.5z" />
    <glyph glyph-name="one" unicode="1" horiz-adv-x="472" 
d="M203 429c63.333 40.667 110.333 60.665 141 59.998c20.667 0 36.334 -7.66699 47.001 -23c8.66699 -11.333 13.334 -26.666 14.001 -45.999c0.666992 -20.667 -4 -56.667 -14 -108c-11.333 -54 -17.666 -92 -18.999 -114c-4 -54.667 -6.33301 -104.667 -7 -150
c27.333 1.33301 46.666 2 57.999 2c7.33301 0 13.5 -2.5 18.5 -7.5s7.5 -11.167 7.5 -18.5s-2.5 -13.5 -7.5 -18.5s-11.167 -7.5 -18.5 -7.5c-10 0 -29.333 -0.666992 -58 -2h-9c0 -0.666992 -0.333008 -1.33398 -1 -2.00098c-10.667 -7.33301 -23 -9 -37 -5
c-4.66699 1.33301 -8 2.66602 -10 3.99902h-2c-24.667 3.33301 -37.667 5.33301 -39 6l-4 2c-0.666992 0 -1.66699 0.333008 -3 1c-4 2.66699 -7 5.66699 -9 9c-4 6.66699 -5 13.667 -3 21c2 6.66699 6 11.667 12 15c3.33301 2 7 3.33301 11 4h5
c2 0 5.33301 -0.333008 10 -1c10.667 -2 17 -3 19 -3h8c0.666992 46.667 3 98.334 7 155.001c1.33301 24 8 64.333 20 121c9.33301 46.667 13.666 78.334 12.999 95.001c-0.666992 8.66699 -2 14.667 -4 18c0 0.666992 -1.66699 1 -5 1
c-20.667 0.666992 -58.334 -16.666 -113.001 -51.999c-6 -4 -12.5 -5.16699 -19.5 -3.5s-12.5 5.5 -16.5 11.5s-5.16699 12.5 -3.5 19.5s5.5 12.5 11.5 16.5z" />
    <glyph glyph-name="two" unicode="2" horiz-adv-x="565" 
d="M149 519c21.333 24 48.166 49.5 80.499 76.5s64.833 48.5 97.5 64.5c43.333 22 81.333 30 114 24c42 -7.33301 72 -35.333 90 -84c22.667 -59.333 12.334 -138.333 -30.999 -237c-6.66699 -16 -14 -31.333 -22 -46c-7.33301 -15.333 -15.666 -31 -24.999 -47l-23 -40
l-24 -40c-10 -17.333 -16.333 -28 -19 -32l-71 -121c9.33301 -0.666992 34 1.33301 74 6c46.667 5.33301 78.667 7.66602 96 6.99902c7.33301 0 13.333 -2.66699 18 -8s7 -11.666 7 -18.999s-2.66699 -13.333 -8 -18s-11.666 -7 -18.999 -7
c-14 0.666992 -43.333 -1.66602 -88 -6.99902s-74.667 -7.33301 -90 -6c-9.33301 1.33301 -18 3.66602 -26 6.99902c-12.667 5.33301 -21.334 13.666 -26.001 24.999c-6 14 -2.66699 27.333 10 40l7 6c10 15.333 23.667 38 41 68s27.666 47.667 30.999 53l19 32l24 40l22 38
l24 46c7.33301 14.667 14 29.334 20 44.001c38 86 48.333 152 31 198c-11.333 30 -28.333 47 -51 51c-21.333 4 -48.666 -2.33301 -81.999 -19c-29.333 -14.667 -58.833 -34.5 -88.5 -59.5s-54.5 -48.167 -74.5 -69.5c-4.66699 -5.33301 -10.5 -8.33301 -17.5 -9
s-13.167 1.5 -18.5 6.5s-8.33301 11 -9 18s1.66602 13.167 6.99902 18.5z" />
    <glyph glyph-name="three" unicode="3" horiz-adv-x="633" 
d="M109 439c19.333 29.333 53.0059 60.335 101.006 93.002s97 57.667 147 75c60 20.667 110.667 26 152 16c53.333 -13.333 86 -49.333 98 -108c7.33301 -32.667 4 -66.667 -10 -102c-16 -42 -39.167 -82 -69.5 -120s-64.5 -70.333 -102.5 -97
c28 -23.333 42.667 -51.666 44 -84.999c1.33301 -50 -25.667 -89.333 -81 -118c-34.667 -17.333 -77.667 -29.333 -129 -36c-6.66699 -0.666992 -12.834 1.16602 -18.501 5.49902s-9 10 -10 17s0.666992 13.333 5 19s10.166 9.16699 17.499 10.5
c45.333 5.33301 82.666 15.666 111.999 30.999c35.333 18 52.666 41 51.999 69c-0.666992 23.333 -14.334 42.333 -41.001 57l-9 -4c-26 -13.333 -51.333 -22.666 -76 -27.999c-22 -4.66699 -39.667 -5 -53 -1c-11.333 3.33301 -19.833 9.66602 -25.5 18.999
s-7.83398 20.666 -6.50098 33.999c3.33301 20 16.666 33.667 39.999 41c14.667 4.66699 32.667 6.66699 54 6c25.333 -0.666992 49.333 -4 72 -10c38.667 23.333 73.834 53.666 105.501 90.999s55.5 76.333 71.5 117c10 26 12.667 50.667 8 74c-8 36.667 -28.333 59 -61 67
c-31.333 8 -72 3.33301 -122 -14c-46 -15.333 -90.667 -38 -134 -68c-42 -29.333 -71 -55.666 -87 -78.999c-4 -6 -9.5 -9.83301 -16.5 -11.5s-13.5 -0.5 -19.5 3.5s-9.83301 9.5 -11.5 16.5s-0.5 13.5 3.5 19.5z" />
    <glyph glyph-name="four" unicode="4" horiz-adv-x="533" 
d="M312 190c-5.33301 89.333 -12.667 168.668 -22 238.001l-11 -24l-42 -89c-21.333 -44.667 -34.333 -72.667 -39 -84c-4.66699 -10 -8 -18 -10 -24c6.66699 -2.66699 15 -4.66699 25 -6c24 -4.66699 56.667 -8.33398 98 -11.001h1zM290.999 495.002
c4 4 8.99902 6.66406 14.999 7.99707c7.33301 0.666992 13.833 -1.16602 19.5 -5.49902s9.16699 -9.83301 10.5 -16.5c12 -83.333 21.333 -181 28 -293c32 -1.33301 72 -2 120 -2c7.33301 0 13.5 -2.5 18.5 -7.5s7.5 -11.167 7.5 -18.5s-2.5 -13.5 -7.5 -18.5
s-11.167 -7.5 -18.5 -7.5c-46 0 -85 0.333008 -117 1c2 -40 3.66699 -84 5 -132c0 -7.33301 -2.33301 -13.666 -7 -18.999s-10.667 -8 -18 -8s-13.666 2.33301 -18.999 7s-8 10.667 -8 18c-1.33301 50 -3.33301 95.667 -6 137h-6c-44 2.66699 -79 6.33398 -105 11.001
c-16 3.33301 -29 7 -39 11c-16.667 7.33301 -26.667 17.333 -30 30c-1.33301 5.33301 -1.33301 11.333 0 18c0.666992 3.33301 2 7.33301 4 12c2.66699 8 6.66699 18.667 12 32c8.66699 20 22 48.333 40 85l42 89c14.667 31.333 23 49.333 25 54
c2.66699 6.66699 7.16699 11.5 13.5 14.5s12.833 3.16699 19.5 0.5h1z" />
    <glyph glyph-name="five" unicode="5" horiz-adv-x="569" 
d="M427 485c-68 4.66699 -109.665 6.99316 -124.998 6.99316c-28.667 0.666992 -51.667 0 -69 -2c-6 -0.666992 -11.333 -1.66699 -16 -3v-8c0.666992 -9.33301 1.66699 -21.666 3 -36.999c0.666992 -4.66699 2 -18 4 -40c2 -14.667 3 -24.334 3 -29.001s0.333008 -12 1 -22
s1 -17.667 1 -23v-4l5 2c32 12.667 58.333 21.334 79 26.001c86 18 154.667 -8.33301 206 -79c14 -19.333 23 -48.666 27 -87.999c2 -20.667 -1 -39.334 -9 -56.001s-19.333 -30.5 -34 -41.5s-30.334 -20 -47.001 -27s-34.667 -12.167 -54 -15.5
c-35.333 -7.33301 -73.166 -8.33301 -113.499 -3s-71.833 16.333 -94.5 33c-5.33301 4.66699 -8.5 10.5 -9.5 17.5s0.666992 13.333 5 19s10 9 17 10s13.5 -0.5 19.5 -4.5c14.667 -11.333 37.667 -19.166 69 -23.499s64 -3.5 98 2.5c34 6.66699 59.833 17.334 77.5 32.001
s25.5 32.334 23.5 53.001c-2.66699 29.333 -8.33398 50 -17.001 62c-38 52 -89.333 71.333 -154 58c-18 -4 -41.333 -11.667 -70 -23c-13.333 -5.33301 -22.333 -9 -27 -11c-13.333 -4 -24.333 -4.33301 -33 -1c-11.333 4.66699 -18 13 -20 25
c-1.33301 6 -1.33301 12.667 0 20c0.666992 2.66699 1.33398 5.16699 2.00098 7.5s1.16699 3.83301 1.5 4.5s0.5 1.33398 0.5 2.00098v1c0 5.33301 -0.333008 13 -1 23s-1 17.333 -1 22c0 4 -0.666992 12.667 -2 26c-2.66699 22 -4.33398 35.333 -5.00098 40
c-1.33301 16.667 -2.33301 30 -3 40c-0.666992 16.667 0.666016 28.334 3.99902 35.001c4.66699 10.667 14 18.334 28 23.001c8 2.66699 18 5 30 7c19.333 2 44.666 2.66699 75.999 2c16 0 58.667 -2.33301 128 -7c6.66699 -0.666992 12.5 -3.66699 17.5 -9
s7.16699 -11.5 6.5 -18.5s-3.66699 -13 -9 -18s-11.666 -7.16699 -18.999 -6.5z" />
    <glyph glyph-name="six" unicode="6" horiz-adv-x="652" 
d="M384 53c16 0.666992 32.666 2.66699 49.999 6c22.667 4 45 15 67 33s39.333 38.667 52 62c24 42 30.667 77 20 105c-8 21.333 -24.667 34 -50 38c-28 4 -55.667 -5.66699 -83 -29c-27.333 -22.667 -44.666 -60 -51.999 -112c-6 -40.667 -7.33301 -75 -4 -103z
M286.999 550c-35.333 -36 -60.9951 -85.332 -76.9951 -147.999c-16 -61.333 -18.667 -121 -8 -179c10.667 -60 34 -104.667 70 -134c17.333 -14 37 -24 59 -30c-2 30 -0.333008 65 5 105c9.33301 64 33.166 112.333 71.499 145s79.5 45.667 123.5 39
c20.667 -2.66699 39.167 -10.167 55.5 -22.5s28.166 -28.5 35.499 -48.5c16 -42.667 8.33301 -92.334 -23 -149.001c-16.667 -28.667 -38.834 -54.5 -66.501 -77.5s-57.167 -37.5 -88.5 -43.5c-26.667 -4.66699 -52 -6.33398 -76 -5.00098h-1
c-4.66699 -1.33301 -9.33398 -1 -14.001 1c-44 4.66699 -81.667 19.667 -113 45c-46.667 38 -76.334 93 -89.001 165c-12 66 -9 133.667 9 203c18 70.667 47.667 127.334 89 170.001c5.33301 5.33301 11.5 8 18.5 8s13.167 -2.5 18.5 -7.5s8 -11 8 -18
s-2.33301 -13.167 -7 -18.5z" />
    <glyph glyph-name="seven" unicode="7" horiz-adv-x="433" 
d="M129 586c5.33301 0.666992 20.999 3.66992 46.999 9.00293l74 14c31.333 5.33301 56.333 8.66602 75 9.99902c12.667 0.666992 23 0.666992 31 0c12.667 -1.33301 22.667 -5 30 -11c22.667 -18 29 -47.667 19 -89c-2 -10.667 -6 -24 -12 -40l-9 -28
c-39.333 -163.333 -64 -300 -74 -410c-0.666992 -7.33301 -3.83398 -13.333 -9.50098 -18s-12 -6.66699 -19 -6s-12.833 3.83398 -17.5 9.50098s-6.66699 11.834 -6 18.501c10.667 113.333 36 252.666 76 417.999c1.33301 5.33301 4.66602 16.333 9.99902 33
c5.33301 14.667 9 26.334 11 35.001c4 18 4 29.667 0 35c-1.33301 0.666992 -2.66602 1 -3.99902 1c-5.33301 0.666992 -12.666 0.666992 -21.999 0c-17.333 -1.33301 -40.666 -4.33301 -69.999 -9l-73 -14c-27.333 -6 -44.333 -9.33301 -51 -10
c-7.33301 -0.666992 -13.666 1.16602 -18.999 5.49902s-8.5 10.166 -9.5 17.499s0.666992 13.666 5 18.999s10.166 8.66602 17.499 9.99902z" />
    <glyph glyph-name="eight" unicode="8" horiz-adv-x="561" 
d="M162 479c-26 -24.667 -47.667 -56 -65 -94c-28 -58.667 -33.667 -99.334 -17 -122.001c17.333 -23.333 59.333 -29.666 126 -18.999c62.667 10 130.334 43 203.001 99c40 30.667 64.333 60.667 73 90c7.33301 22.667 4.33301 43 -9 61c-14.667 19.333 -37.667 33 -69 41
s-69 8 -113 0c-12 -2.66699 -24.5 -7.16699 -37.5 -13.5s-22.833 -11.5 -29.5 -15.5l-36 -25c-8.66699 -6 -17.334 -6.66699 -26.001 -2zM202 191c-81.333 -11.333 -136 2.33203 -164 40.999c-28.667 39.333 -25 97.666 11 174.999c14 30 29.5 55.667 46.5 77
s38.5 42 64.5 62c10.667 8 21 8 31 0c32 20.667 61.333 33.667 88 39c49.333 10.667 95.5 10.667 138.5 0s75.167 -30.667 96.5 -60c24.667 -32 30.667 -67.667 18 -107c-12.667 -40 -43 -79 -91 -117c-25.333 -19.333 -51.333 -36.666 -78 -51.999
c30 -10 50.333 -25 61 -45c10 -19.333 10.333 -41.333 1 -66c-7.33301 -18 -19.5 -35.667 -36.5 -53s-36.167 -32.333 -57.5 -45c-50.667 -30 -92 -37.667 -124 -23c-21.333 10 -33 28.667 -35 56c-2 22.667 4.33301 52.334 19 89.001c4 10 7.33301 19.333 10 28z
M275 202.998l-18.998 -19.001l-2 -2c-0.666992 -0.666992 -1.66699 -3.66699 -3 -9c-2.66699 -7.33301 -6.66699 -17.666 -12 -30.999c-11.333 -28 -16.333 -49.667 -15 -65c0 -7.33301 1.66699 -11.666 5 -12.999c6 -2.66699 15.833 -2.33398 29.5 0.999023
s29.167 10 46.5 20s32.5 21.667 45.5 35s21.833 26 26.5 38c3.33301 8.66699 3.66602 16 0.999023 22c-4.66699 8 -15.334 14.667 -32.001 20c-10 3.33301 -33.667 4.33301 -71 3z" />
    <glyph glyph-name="nine" unicode="9" horiz-adv-x="489" 
d="M388 525c-18.667 11.333 -42.6729 17.334 -72.0059 18.001s-57.666 -4.33301 -84.999 -15c-29.333 -11.333 -51.166 -26.833 -65.499 -46.5s-19.166 -41.834 -14.499 -66.501c4 -18 14 -33 30 -45s37 -20 63 -24c24.667 -4 49.334 -4 74.001 0
c24.667 4.66699 44.334 12 59.001 22c2.66699 2 5.33398 4.33301 8.00098 7c2.66699 54.667 3.66699 103 3 145v5zM439.994 522.001c0.666992 -28 0.333984 -58.3301 -0.999023 -90.9971c6 0 11.333 -1.66699 16 -5c6 -4 9.5 -9.5 10.5 -16.5s-0.5 -13.5 -4.5 -19.5l-7 -10
l-8 -14l-10 -12c-0.666992 -18 -2 -40.667 -4 -68c-6.66699 -107.333 -10 -184.666 -10 -231.999c0 -7.33301 -2.5 -13.5 -7.5 -18.5s-11.167 -7.5 -18.5 -7.5s-13.5 2.5 -18.5 7.5s-7.5 11.167 -7.5 18.5c0 48.667 3.33301 127 10 235l2 22
c-44.667 -20 -93.667 -25.333 -147 -16c-33.333 5.33301 -62.5 17.166 -87.5 35.499s-40.5 43.166 -46.5 74.499c-8.66699 40.667 -1.83398 75.667 20.499 105s52.5 51.666 90.5 66.999c32.667 13.333 69 19.333 109 18s73.667 -11 101 -29
c9.33301 -6.66699 13 -15.667 11 -27c4.66699 -4.66699 7 -10.334 7 -17.001z" />
    <glyph glyph-name="colon" unicode=":" horiz-adv-x="234" 
d="M199 390c8.66699 -6 12.667 -14.001 12 -24.001c-2 -20 -6.66699 -36 -14 -48c-2.66699 -4 -5.83398 -7.5 -9.50098 -10.5s-9.16699 -6 -16.5 -9s-14.666 -1.83301 -21.999 3.5c-14 8.66699 -19.333 23.334 -16 44.001c2 14.667 8.66699 30.667 20 48
c4 6 9.5 9.83301 16.5 11.5s13.5 0.5 19.5 -3.5c4.66699 -3.33301 8 -7.33301 10 -12zM207 164.999c5.33301 -10 4.66992 -19.665 -1.99707 -28.998l-14 -18c-2 -3.33301 -4 -6.33301 -6 -9c-0.666992 -1.33301 -1.33398 -2.33301 -2.00098 -3
c-0.666992 -1.33301 -1.33398 -2.33301 -2.00098 -3l-2 -2c-2.66699 -2 -6 -3.66699 -10 -5c-8.66699 -2.66699 -16.334 -1.33398 -23.001 3.99902s-10 12 -10 20c-0.666992 3.33301 -0.333984 6.66602 0.999023 9.99902l2 4c0.666992 1.33301 1.66699 2.66602 3 3.99902
c0.666992 2 2.33398 4.66699 5.00098 8c4.66699 9.33301 7.33398 17.333 8.00098 24c0.666992 7.33301 3.66699 13.333 9 18s11.666 6.66699 18.999 6s13.333 -3.66699 18 -9s6.66699 -11.666 6 -18.999v-1z" />
    <glyph glyph-name="semicolon" unicode=";" horiz-adv-x="225" 
d="M132 393c-2.66699 9.33301 -0.333008 17.3311 7 23.998c4.66699 5.33301 10.667 8 18 8s13.333 -2.66699 18 -8c16.667 -16 25.667 -34 27 -54s-4 -35 -16 -45c-8 -7.33301 -17 -10.666 -27 -9.99902c-12 0.666992 -21.333 6.66699 -28 18c-7.33301 13.333 -8 33 -2 59
c0.666992 2.66699 1.66699 5.33398 3 8.00098zM199.001 31.998c-0.666992 -2 -2.50098 -7 -5.50098 -15s-4.83301 -13 -5.5 -15s-2.5 -6.16699 -5.5 -12.5s-5.83301 -11.166 -8.5 -14.499l-8 -13l-13 -15c-4.66699 -5.33301 -10.667 -8 -18 -8s-13.666 2.33301 -18.999 7
s-8 10.667 -8 18s2.33301 13.666 7 18.999c3.33301 3.33301 6.33301 6.83301 9 10.5s4.66699 6.5 6 8.5s3.16602 5.5 5.49902 10.5s3.83301 8.16699 4.5 9.5s2.33398 5.83301 5.00098 13.5s4.66699 12.5 6 14.5c2.66699 6.66699 7.16699 11.5 13.5 14.5
s12.833 3.16699 19.5 0.5s11.5 -7.16699 14.5 -13.5s3.16699 -12.833 0.5 -19.5z" />
    <glyph glyph-name="less" unicode="&#x3c;" horiz-adv-x="614" 
d="M584 423c-16 -17.333 -35.835 -33.668 -59.502 -49.001s-43 -26.666 -58 -33.999s-38.5 -17.666 -70.5 -30.999l-61 -25c-11.333 -5.33301 -26.666 -13.333 -45.999 -24c-24 -14 -40.333 -23.333 -49 -28c-10 -4.66699 -25.667 -13.667 -47 -27l10 -2
c14.667 -2 58.334 -6 131.001 -12c139.333 -12 217.666 -20.333 234.999 -25c6.66699 -2 11.834 -6.16699 15.501 -12.5s4.5 -12.833 2.5 -19.5s-6.16699 -11.834 -12.5 -15.501s-12.833 -4.5 -19.5 -2.5c-14 4 -89.333 11.667 -226 23
c-63.333 5.33301 -107.666 9.66602 -132.999 12.999c-20 2.66699 -35.667 5.33398 -47 8.00098l-18 5c-8.66699 4 -15 9 -19 15c-6 9.33301 -6 19 0 29c1.33301 2.66699 3.33301 5.33398 6 8.00098l12 10c6.66699 4.66699 17.334 11.334 32.001 20.001
c25.333 15.333 43.333 25.666 54 30.999c8 4 23.667 13 47 27c20 12 37.333 21 52 27l63 26c30.667 12.667 52.667 22.167 66 28.5s30.166 16.166 50.499 29.499s37.5 27.666 51.5 42.999c4.66699 5.33301 10.667 8 18 8s13.666 -2.33301 18.999 -7s8 -10.667 8 -18
s-2.33301 -13.666 -7 -18.999z" />
    <glyph glyph-name="equal" unicode="=" horiz-adv-x="547" 
d="M162 134c18.667 2 44.0029 7.00195 76.0029 15.002c37.333 9.33301 64.333 15.333 81 18c13.333 2 28.5 3.66699 45.5 5s31.5 2.16602 43.5 2.49902s28 0.666016 48 0.999023s33.667 0.5 41 0.5s13.666 -2.5 18.999 -7.5s8 -11 8 -18s-2.5 -13.167 -7.5 -18.5
s-10.833 -8 -17.5 -8c-9.33301 0 -23.666 -0.166992 -42.999 -0.5s-34.666 -0.666016 -45.999 -0.999023s-24.833 -1.16602 -40.5 -2.49902s-29.834 -3 -42.501 -5c-14.667 -2 -40.334 -7.33301 -77.001 -16c-34 -8.66699 -61.333 -14.334 -82 -17.001
c-6.66699 -0.666992 -12.834 1.16602 -18.501 5.49902s-9 10 -10 17s0.666992 13.333 5 19s10.166 9.16699 17.499 10.5zM228.003 273.002c76 -5.33301 141.334 -2.99902 196.001 7.00098c7.33301 0.666992 14 -1 20 -5s9.5 -9.5 10.5 -16.5s-0.5 -13.5 -4.5 -19.5
s-9.33301 -9.66699 -16 -11c-60 -10.667 -130 -13 -210 -7c-7.33301 0.666992 -13.333 3.66699 -18 9s-6.66699 11.666 -6 18.999s3.66699 13.333 9 18s11.666 6.66699 18.999 6z" />
    <glyph glyph-name="greater" unicode="&#x3e;" horiz-adv-x="675" 
d="M261 484c33.333 -15.333 68.8311 -28.832 106.498 -40.499s80.334 -23.834 128.001 -36.501s85.5 -23.334 113.5 -32.001c0.666992 -0.666992 1.33398 -1 2.00098 -1c1.33301 0.666992 4.33301 0.333984 9 -0.999023c16.667 -2.66699 27 -11 31 -25
c2.66699 -10 0.666992 -20 -6 -30c-3.33301 -4.66699 -8.33301 -9.33398 -15 -14.001c-8 -6 -19.333 -12.667 -34 -20c-16 -8 -36.667 -16.667 -62 -26c-14.667 -6 -38.667 -15.333 -72 -28l-78 -30l-68 -28c-26.667 -11.333 -50.667 -22.666 -72 -33.999
c-6.66699 -3.33301 -13.334 -3.83301 -20.001 -1.5s-11.667 6.66602 -15 12.999s-3.83301 12.833 -1.5 19.5s6.5 11.667 12.5 15c22.667 11.333 48 23 76 35l70 29l78 31l72 27c23.333 9.33301 42.333 17.666 57 24.999c-26 8 -60.333 17.667 -103 29
c-48.667 12.667 -91 24.834 -127 36.501s-70.667 24.834 -104 39.501c-6.66699 3.33301 -11.167 8.33301 -13.5 15s-2 13.334 1 20.001s7.83301 11.167 14.5 13.5s13.334 2.16602 20.001 -0.500977z" />
    <glyph glyph-name="question" unicode="?" horiz-adv-x="656" 
d="M93 611c-6.66699 8.66699 -7.33105 17.9951 -1.99805 27.9951l6 11c11.333 44.667 32.666 81.334 63.999 110.001c26 24 61 46.333 105 67s88.333 34.334 133 41.001c22 5.33301 44.833 7 68.5 5s45.5 -6.33301 65.5 -13s38.333 -18.334 55 -35.001
s29 -37.334 37 -62.001c12.667 -40.667 12.5 -80.667 -0.5 -120s-34.5 -81.333 -64.5 -126l-40 -56l-44 -62c-12.667 -18 -23 -35 -31 -51c-2.66699 -5.33301 -5 -10.666 -7 -15.999c-6.66699 -17.333 -13.334 -52.666 -20.001 -105.999c0.666992 -6 1 -12.667 1 -20
s-2.33301 -13.666 -7 -18.999s-10.667 -8 -18 -8s-13.666 2.33301 -18.999 7s-8 10.667 -8 18v15c-0.666992 2.66699 -1 5.33398 -1 8.00098v2c0 38.667 4.33301 71.334 13 98.001c4.66699 13.333 10.667 27.333 18 42c10.667 24 28.667 58 54 102l43 75
c40 74 55.667 137.667 47 191c-4.66699 30 -18.334 50.333 -41.001 61c-22 10.667 -51.667 13 -89 7c-34 -4.66699 -68.833 -15 -104.5 -31s-63.834 -32 -84.501 -48c-29.333 -24 -54.666 -55.667 -75.999 -95c-1.33301 -4 -2.33301 -8.66699 -3 -14
c-2 -7.33301 -5.83301 -13 -11.5 -17s-12.167 -5.33301 -19.5 -4c-8.66699 2 -15 7 -19 15zM373.003 129.995l17 11.001c6 3.33301 12.5 4 19.5 2s12.333 -6 16 -12s4.5 -12.5 2.5 -19.5s-6 -12.5 -12 -16.5c-4.66699 -2 -10.667 -5.66699 -18 -11
c-7.33301 -4.66699 -14 -7.33398 -20 -8.00098c-6.66699 -0.666992 -14 1 -22 5c-8.66699 3.33301 -15 6 -19 8c-6.66699 2.66699 -11.5 7.16699 -14.5 13.5s-3.16699 12.833 -0.5 19.5s7.16699 11.5 13.5 14.5s12.833 3.16699 19.5 0.5zM329.003 65.9961
c24.667 -6 54.332 -6.66797 88.999 -2.00098c6.66699 0.666992 12.834 -1.16602 18.501 -5.49902s9 -10 10 -17s-0.666992 -13.333 -5 -19s-10.166 -9.16699 -17.499 -10.5c-40.667 -5.33301 -76.334 -4 -107.001 4c-7.33301 2 -12.833 6 -16.5 12s-4.5 12.5 -2.5 19.5
s6 12.333 12 16s12.333 4.5 19 2.5zM329.001 11.9951l23 -8.00195l4 -2l8 1l31 2c7.33301 0 13.666 -2.33301 18.999 -7s8 -10.667 8 -18s-2.33301 -13.666 -7 -18.999s-10.667 -8 -18 -8l-28 -2c-8 -0.666992 -14 -0.666992 -18 0c-4.66699 0 -10.667 1.33301 -18 4l-22 9
c-6.66699 2 -11.5 6.33301 -14.5 13s-3.33301 13.334 -1 20.001s6.83301 11.5 13.5 14.5s13.334 3.16699 20.001 0.5z" />
    <glyph glyph-name="at" unicode="@" horiz-adv-x="716" 
d="M163 379c-24.667 -31.333 -37 -62.001 -37 -92.001c16.667 44.667 29 75.334 37 92.001zM410 479.999c4 2.66699 8.33398 3.99902 13.001 3.99902c8.66699 0 15.667 -3.33301 21 -10c1.33301 -2.66699 2.66602 -5 3.99902 -7l2 -8c1.33301 -4 2.33301 -9.33301 3 -16
c1.33301 -10.667 2.66602 -24.667 3.99902 -42c2.66699 -39.333 3.66699 -65.333 3 -78c-1.33301 -20.667 -5 -40.334 -11 -59.001c0.666992 -12.667 2 -30.667 4 -54l4 -45c0.666992 -7.33301 -1.33301 -13.666 -6 -18.999s-10.667 -8.33301 -18 -9
s-13.666 1.33301 -18.999 6s-8.33301 10.667 -9 18c-0.666992 6 -1 12.333 -1 19c-6 -6 -12 -11.667 -18 -17c-48.667 -41.333 -107 -52.333 -175 -33c-52 14.667 -90.333 41.334 -115 80.001c-14.667 22.667 -22 47.334 -22 74.001s5 51 15 73s23.667 43.333 41 64
c25.333 29.333 55.333 53.666 90 72.999s68 28.666 100 27.999c12.667 0 24 -1 34 -3c20 -3.33301 34.333 -9.66602 43 -18.999c4.66699 -5.33301 9 -12 13 -20zM172.001 205.998c-5.33301 5.33301 -8.00195 11.998 -8.00195 19.998c0 6 1.66699 13 5 21l5 10
c1.33301 2.66699 2.33301 4.83398 3 6.50098s1.33398 2.83398 2.00098 3.50098l13 50l-28 -75c-2.66699 -7.33301 -8 -12.333 -16 -15c6.66699 -8 14.334 -15.333 23.001 -22c0.666992 0 1 0.333008 1 1zM280.999 279.996h0.999023c6.66699 34 18.334 77.667 35.001 131
c-16 -29.333 -29.667 -74 -41 -134c1.33301 1.33301 3 2.33301 5 3zM283.998 181.996c-3.33301 -2.66699 -7 -4.66699 -11 -6l-15 -2c25.333 -2.66699 48.333 1.33301 69 12c-0.666992 1.33301 -1 3 -1 5c-14 -4.66699 -28 -7.66699 -42 -9zM282.998 614.996
c-2 0.666992 -4.66699 1.33496 -8 2.00195c-42 7.33301 -84 -5.66699 -126 -39c0 -10 -4 -17.667 -12 -23c-16 -10 -26 -20 -30 -30c-0.666992 -0.666992 -1.5 -3 -2.5 -7s-2.16699 -7.66699 -3.5 -11s-3.5 -7.5 -6.5 -12.5s-6.16699 -9.83301 -9.5 -14.5
c-5.33301 -6 -10.666 -10.667 -15.999 -14c0.666992 -1.33301 1 -2.66602 1 -3.99902v-9c0 -12 -1.33301 -35 -4 -69c-1.33301 -17.333 -8 -31.666 -20 -42.999l-1 -8c-0.666992 -6.66699 -1.33398 -11.334 -2.00098 -14.001s-1.33398 -4.66699 -2.00098 -6
c-0.666992 -2.66699 -2 -5.33398 -4 -8.00098c-2.66699 -4 -6.33398 -7 -11.001 -9c0.666992 -18.667 8 -35.667 22 -51c0.666992 -0.666992 3.66699 -3.5 9 -8.5s9 -9.16699 11 -12.5l10 -12c4.66699 -6 8.16699 -12.167 10.5 -18.5s4.16602 -13.166 5.49902 -20.499
c1.33301 -8.66699 0.666016 -18.334 -2.00098 -29.001c-0.666992 -1.33301 -1.16699 -3.16602 -1.5 -5.49902s-0.833008 -3.83301 -1.5 -4.5c-0.666992 -3.33301 -1 -6 -1 -8c-1.33301 -10 2.66699 -21 12 -33c6 -8.66699 15.833 -16.334 29.5 -23.001
s25.5 -10.334 35.5 -11.001l5 2c10.667 5.33301 20.667 7.33301 30 6c2.66699 -0.666992 6.33398 -2 11.001 -4l10 -5l29 -14c28 -13.333 45 -20.333 51 -21c29.333 -6 57.333 -5 84 3c1.33301 0 14 4.33301 38 13c18 6 34.667 10.667 50 14
c5.33301 0.666992 21.666 1.33398 48.999 2.00098c12 0 21.667 2.66699 29 8c22.667 15.333 36.667 29.333 42 42c2.66699 6.66699 2.66699 14 0 22l-8 16c-5.33301 9.33301 -8.66602 15.666 -9.99902 18.999c-10 20.667 -11.333 39.667 -4 57c4.66699 10 14 20 28 30l15 10
l12 10c7.33301 6 12 12 14 18c2 6.66699 1.33301 15.334 -2 26.001c-2 4.66699 -11.667 13.334 -29 26.001c-12 8 -20 13.667 -24 17c-11.333 10 -17.666 20.667 -18.999 32s4 23.333 16 36c1.33301 2 4.33301 5.5 9 10.5s8.33398 9.16699 11.001 12.5
c13.333 15.333 18.333 28.666 15 39.999c-3.33301 12.667 -8.66602 21.334 -15.999 26.001c-6 4 -15 6.66699 -27 8h-19c-10 0 -16.667 0.333008 -20 1c-20.667 1.33301 -36.334 6.66602 -47.001 15.999c-3.33301 3.33301 -6.33301 8.33301 -9 15c0 2 -0.666992 5 -2 9
l-6 21c-6 17.333 -12.667 28.333 -20 33c-9.33301 6 -24.333 8.66699 -45 8c-20 -0.666992 -35.667 -4.33398 -47 -11.001l-5 -8c-9.33301 -14.667 -21 -22.334 -35 -23.001c-11.333 -0.666992 -20.666 4 -27.999 14c-2.66699 3.33301 -4.66699 8 -6 14zM71.998 571.997
c23.333 32 54.6641 58.001 93.9971 78.001c39.333 19.333 78.333 25.666 117 18.999c16 -2.66699 28.333 -8.33398 37 -17.001c1.33301 -0.666992 2.33301 -1.33398 3 -2.00098c2.66699 2.66699 5.33398 5 8.00098 7c19.333 12 43.666 18.333 72.999 19
c31.333 1.33301 56.333 -4 75 -16c17.333 -11.333 31 -31.333 41 -60c2 -5.33301 4.33301 -13.666 7 -24.999c2.66699 -0.666992 6.33398 -1 11.001 -1c2.66699 -0.666992 8.66699 -1 18 -1s16.666 -0.333008 21.999 -1c20.667 -1.33301 37.667 -6.66602 51 -15.999
c18.667 -12 31.334 -30.333 38.001 -55c8 -29.333 -0.333008 -58.666 -25 -87.999c-2.66699 -3.33301 -6.33398 -7.33301 -11.001 -12l-8 -8c1.33301 -1.33301 6.66602 -5.33301 15.999 -12c26 -18.667 41.667 -35.334 47 -50.001c8 -22 9 -42.333 3 -61
c-5.33301 -14.667 -15 -28 -29 -40c-4 -4 -9.33301 -8.33301 -16 -13l-14 -10c-6.66699 -4.66699 -10.334 -8 -11.001 -10c-1.33301 -2 -0.333008 -6.33301 3 -13c0.666992 -2 3.33398 -7.33301 8.00098 -16s8.33398 -16 11.001 -22c8.66699 -21.333 8.66699 -42 0 -62
c-9.33301 -22 -30 -43.667 -62 -65c-15.333 -10 -34 -15.333 -56 -16c-24 -0.666992 -37.333 -1.33398 -40 -2.00098c-12.667 -2 -27 -5.66699 -43 -11l-41 -14c-34.667 -10.667 -70.667 -12.334 -108 -5.00098c-10.667 2.66699 -31.667 11.334 -63 26.001l-29 14l-7 3
c-9.33301 -4.66699 -17.666 -7 -24.999 -7c-18.667 0 -38.667 5.33301 -60 16s-37.666 23.334 -48.999 38.001c-18 24 -25.333 48.333 -22 73c0.666992 3.33301 1.66699 7.33301 3 12c0 0.666992 0.333008 2.16699 1 4.5s1 4.16602 1 5.49902
c1.33301 4 1.66602 7 0.999023 9c0 3.33301 -0.5 6.33301 -1.5 9s-2.5 5.33398 -4.5 8.00098l-6 8l-9 9l-10 10c-26 27.333 -38.333 60.333 -37 99c0.666992 22 7 40 19 54c2 21.333 5.33301 52.333 10 93c2 17.333 4 28.666 6 33.999c2 8.66699 6.33301 15 13 19
s13.667 5 21 3c0.666992 0.666992 1.33398 1.66699 2.00098 3c2.66699 2.66699 4.5 5 5.5 7s2.16699 5.33301 3.5 10s3 9.33398 5 14.001c2 6 4.66699 11.333 8 16c0.666992 4 2.33398 7.66699 5.00098 11zM360.996 461.998l-2.00098 2h-1
c0 0.666992 -1.33301 1.33398 -4 2.00098s-5.66699 1.33398 -9 2.00098c-7.33301 1.33301 -15.666 2 -24.999 2h-2c-0.666992 -0.666992 -1 -1.33398 -1 -2.00098c1.33301 -0.666992 2.33301 -1.33398 3 -2.00098c3.33301 -2 6 -4.33301 8 -7c4.66699 4.66699 10.667 7 18 7
c6 0 11 -1.33301 15 -4z" />
    <glyph glyph-name="A" unicode="A" horiz-adv-x="430" 
d="M74 244c-16.667 -25.333 -26.667 -50.333 -30 -75c8.66699 20 18.667 45 30 75zM339 195c-13.333 -28.667 -35.6689 -67.333 -67.002 -116c-1.33301 -2 -2.66602 -3.66699 -3.99902 -5c26 16.667 44 37 54 61c6.66699 16 12.334 36 17.001 60zM369.997 357.001
c6.66699 2 12.9971 1.33887 18.9971 -1.99414c4 -2.66699 7 -6 9 -10c1.33301 -2 2.33301 -4.33301 3 -7c0.666992 -1.33301 1.33398 -3.33301 2.00098 -6c0.666992 -4 1 -8.66699 1 -14c0.666992 -14.667 0 -30.334 -2 -47.001l-1 -8
c0 -6.66699 -0.166992 -26.167 -0.5 -58.5s-0.333008 -54.833 0 -67.5s1 -30.834 2 -54.501s2.5 -44.834 4.5 -63.501c0.666992 -7.33301 -1.16602 -13.833 -5.49902 -19.5s-10.166 -8.83398 -17.499 -9.50098s-13.833 1.16602 -19.5 5.49902
s-8.83398 10.166 -9.50098 17.499c-2 22 -3.66699 44.333 -5 67c-18 -24 -41.333 -43.667 -70 -59s-58.667 -24.666 -90 -27.999c-40.667 -4.66699 -78.5 1.33301 -113.5 18s-59.833 44.667 -74.5 84c-17.333 45.333 -14.666 91.666 8.00098 138.999
c22.667 48 56 88 100 120c26.667 19.333 55 33.666 85 42.999s61 11.333 93 6s59.333 -20.666 82 -45.999zM154.994 130.007c-13.333 -23.333 -24 -43 -32 -59c-4 -9.33301 -11 -14.333 -21 -15c12 -6 25.333 -9.66699 40 -11c-10.667 7.33301 -14 17 -10 29
c6 18 13.667 36.667 23 56zM78.9941 98.0068c-3.33301 0 -6.33301 1.00098 -9 3.00098c-6.66699 2.66699 -11.167 7.33398 -13.5 14.001s-2.16602 13 0.500977 19c-6.66699 3.33301 -11.334 8.66602 -14.001 15.999c0.666992 -12.667 3 -25 7 -37
c6 -14.667 14.333 -27.334 25 -38.001c-2 6.66699 -1.33301 12.667 2 18zM184.994 297.008c7.33301 16.667 13.667 32.6689 19 48.002c-14.667 -4.66699 -29 -11.334 -43 -20.001l-20 -50l11 15c9.33301 11.333 20.333 13.666 33 6.99902zM302.995 305.01
c-10 -24.667 -31.6699 -66.667 -65.0029 -126c-27.333 -50 -46 -90.333 -56 -121c-2 -6.66699 -6 -11.667 -12 -15l14 2c4 0 8 0.333008 12 1c-2 6.66699 -1 13 3 19l31 52l33 55c8 14 16.833 30.833 26.5 50.5s17.167 37.834 22.5 54.501
c2.66699 6.66699 7.16699 11.667 13.5 15s12.833 4 19.5 2l4 -2v10v6c-4.66699 2 -8.66699 5 -12 9c-19.333 23.333 -45 35.666 -77 36.999c0 -2.66699 -0.333008 -5 -1 -7c-6 -21.333 -14.333 -43.666 -25 -66.999c8 16 15 31 21 45
c2.66699 6.66699 7.33398 11.334 14.001 14.001s13.334 2.66699 20.001 0s11.334 -7.33398 14.001 -14.001s2.66699 -13.334 0 -20.001z" />
    <glyph glyph-name="B" unicode="B" horiz-adv-x="460" 
d="M39 556l-1 5.00098c-0.666992 6.66699 1 13 5 19s9.5 9.5 16.5 10.5s13.5 -0.5 19.5 -4.5s9.66699 -9.66699 11 -17c9.33301 -52.667 15 -114.334 17 -185.001c28 36 66.333 58.333 115 67c42 7.33301 77.667 3 107 -13c28 -14.667 51 -35.334 69 -62.001
s29.667 -55.667 35 -87c17.333 -100 -6.66699 -179.333 -72 -238c-58 -52 -137.333 -78 -238 -78c-9.33301 0 -16.666 4 -21.999 12c-6.66699 0 -12.334 2 -17.001 6c-2.66699 0 -5.66699 0.333008 -9 1c-7.33301 2 -13 6.33301 -17 13
c-1.33301 1.33301 -2.33301 3.33301 -3 6c-6.66699 16 -9.66699 38 -9 66c0.666992 6 1.33398 15.333 2.00098 28s1 22 1 28c0 47.333 2.33301 86.666 7 117.999v62c-0.666992 6 -1 12 -1 18c-0.666992 12 -1.33398 29.5 -2.00098 52.5s-1.16699 41.333 -1.5 55
s-1.83301 29.834 -4.5 48.501s-6 35.334 -10 50.001c-2 6.66699 -1.33301 13 2 19zM118 186.001c9.33301 18 27.499 51.333 54.499 100s47.167 86.667 60.5 114c-0.666992 0 -1.66699 -0.333008 -3 -1c-6.66699 -0.666992 -13 -2 -19 -4
c0.666992 -4 0.333984 -8 -0.999023 -12c-15.333 -47.333 -46.333 -110 -93 -188zM378.999 211.001c2 -0.666992 4 -1.66699 6 -3c0.666992 6 1 12 1 18c-0.666992 -4 -2 -7.66699 -4 -11zM284.999 387.001c-16 -32.667 -41.001 -79.332 -75.001 -139.999
c-34.667 -63.333 -60.667 -112.333 -78 -147c-1.33301 -4 -3.66602 -7.33301 -6.99902 -10c1.33301 -23.333 2 -45 2 -65c29.333 0 57 3 83 9c-2 7.33301 -1 14.333 3 21l61 91c28.667 42 50 74.333 64 97c4 6 9.5 9.83301 16.5 11.5s13.5 0.5 19.5 -3.5
c7.33301 -4.66699 11.333 -11 12 -19c0 15.333 -1.66699 31.666 -5 48.999c-4 23.333 -12.667 45 -26 65s-30 35.333 -50 46c-5.33301 2.66699 -11 4.66699 -17 6c0 -3.33301 -1 -7 -3 -11zM338.998 292.003c-83.333 -139.333 -129.333 -217.003 -138 -233.003
c-4 -6 -9.33301 -10 -16 -12s-13.167 -1.16699 -19.5 2.5s-10.5 8.83398 -12.5 15.501s-1.33301 13.334 2 20.001l140 233c3.33301 6.66699 8.5 10.834 15.5 12.501s13.667 0.666992 20 -3s10.333 -9 12 -16s0.5 -13.5 -3.5 -19.5z" />
    <glyph glyph-name="C" unicode="C" horiz-adv-x="394" 
d="M313 676c-4.66699 28 -13.9971 53.6709 -27.9971 77.0039s-30 41 -48 53c-40.667 25.333 -81.334 15.333 -122.001 -30c-17.333 -19.333 -33 -43 -47 -71c-20.667 -48.667 -35.167 -102.834 -43.5 -162.501s-9.5 -118.834 -3.5 -177.501
c8.66699 -78.667 29.667 -147.667 63 -207s78.666 -102.333 135.999 -129c6 -3.33301 10.333 -8.16602 13 -14.499s2.66699 -12.833 0 -19.5c6.66699 -2.66699 11.334 -7.16699 14.001 -13.5s2.66699 -12.833 0 -19.5c-2 -6.66699 -6.33301 -11.5 -13 -14.5
s-13.334 -3.16699 -20.001 -0.5c-22.667 8 -40.167 14.5 -52.5 19.5s-27.833 13.667 -46.5 26s-34 26.166 -46 41.499c-34.667 43.333 -61.167 100.166 -79.5 170.499s-27.5 143.833 -27.5 220.5c0 118 19.667 218.333 59 301c11.333 27.333 24.333 52 39 74
c14 22 32.167 42.5 54.5 61.5s45.5 32.833 69.5 41.5c30 10 57.333 10.333 82 1c28 -11.333 50.333 -34.333 67 -69c19.333 -42 32 -94.667 38 -158c0.666992 -7.33301 -1.33301 -13.833 -6 -19.5s-10.334 -8.83398 -17.001 -9.50098c-10 -0.666992 -18 3 -24 11
c-6 4 -9.66699 9.66699 -11 17z" />
    <glyph glyph-name="D" unicode="D" horiz-adv-x="575" 
d="M164 241c-15.333 -15.333 -25 -32.667 -29 -52zM466 852.999c-3.33301 -2.66699 -7.33203 -7.00293 -11.999 -13.0029c-8.66699 -12 -18 -29.333 -28 -52c-17.333 -41.333 -28 -75.333 -32 -102c-6 -35.333 -7 -83.666 -3 -144.999s12 -125 24 -191
c4 -21.333 8.33301 -42 13 -62c1.33301 6 4.33301 21.667 9 47s7.66699 42 9 50l8 46c3.33301 22.667 5.66602 39.334 6.99902 50.001s3.5 25.834 6.5 45.501s5.16699 36.167 6.5 49.5l3 46c1.33301 17.333 2.33301 34 3 50c2 54 2.33301 91.667 1 113
c-2 25.333 -5.33301 44.333 -10 57c-2 5.33301 -3.66699 9 -5 11zM467.001 164.996c21.333 -44 46 -76.333 74 -97c5.33301 -4.66699 8.5 -10.5 9.5 -17.5s-0.5 -13.5 -4.5 -19.5c-4 -4.66699 -9 -7.66699 -15 -9c-1.33301 -4.66699 -3.66602 -8.66699 -6.99902 -12
c-5.33301 -4.66699 -11.666 -6.83398 -18.999 -6.50098s-13.333 2.83301 -18 7.5c-12.667 14 -25 32.333 -37 55c-9.33301 -42 -28 -68.333 -56 -79c-36 -14 -84.333 -14.333 -145 -1c-74 15.333 -124.667 52 -152 110c-23.333 51.333 -23.166 98.333 0.500977 141
s59.167 71.334 106.5 86.001c25.333 8.66699 52.666 11.167 81.999 7.5s55.666 -13.5 78.999 -29.5l-8 39c-24 122 -31.667 238.667 -23 350c3.33301 40.667 10 79.667 20 117c7.33301 25.333 15.666 46.333 24.999 63c13.333 23.333 29 38.333 47 45
c30.667 12 56.667 4.33301 78 -23c14 -17.333 25 -43 33 -77c9.33301 -42 14.333 -89.667 15 -143c0.666992 -66.667 -7 -145.667 -23 -237s-36.667 -181.333 -62 -270zM377.001 52.9961l-8 -18l-2 -2h3l2 6zM301.001 243.996c-12.667 -21.333 -33.667 -62.002 -63 -122.002
c-2.66699 -6.66699 -7.5 -11.167 -14.5 -13.5s-13.667 -2 -20 1s-10.666 8 -12.999 15s-1.83301 13.5 1.5 19.5c29.333 61.333 51 103.333 65 126c2.66699 4.66699 6 8 10 10c-8 0.666992 -16 0.333984 -24 -0.999023c-0.666992 -3.33301 -1.66699 -6.66602 -3 -9.99902
c-4 -6.66699 -15.667 -27.334 -35 -62.001s-34.666 -61 -45.999 -79c-3.33301 -6 -8 -10 -14 -12c13.333 -26.667 33.666 -47 60.999 -61c0 2 0.666992 4 2 6c8.66699 18 23 44.833 43 80.5s34.667 62.834 44 81.501c3.33301 6 8.33301 10.167 15 12.5
s13.167 1.83301 19.5 -1.5s10.666 -8.33301 12.999 -15s1.83301 -13.334 -1.5 -20.001c-8.66699 -18 -23 -44.833 -43 -80.5s-34.667 -62.5 -44 -80.5l5 -2c8.66699 -1.33301 16.667 -2.66602 24 -3.99902c-2.66699 6 -3 12.333 -1 19c5.33301 18 15 41.667 29 71
c14 30 23.333 51.667 28 65c2.66699 7.33301 7.16699 12.5 13.5 15.5s12.833 3.5 19.5 1.5c7.33301 -2.66699 12.333 -7 15 -13c-18.667 46 -48.667 74.333 -90 85c10 -9.33301 11.333 -20 4 -32zM389.001 185.994c1.33301 -4.66699 1.33301 -9.66699 0 -15l-8 -20
c6 0.666992 11.333 -0.333008 16 -3c3.33301 -2 6 -4.33301 8 -7l2 4v9c-6 3.33301 -10 8.33301 -12 15c-2 6 -4 11.667 -6 17z" />
    <glyph glyph-name="E" unicode="E" horiz-adv-x="785" 
d="M-6 256c-2.66699 6 -2.99902 12.001 -0.999023 18.001c2.66699 6.66699 7.16699 11.667 13.5 15s12.833 4 19.5 2c10.667 -4 22.667 -7.33301 36 -10c-8.66699 71.333 -5.66699 145.666 9 222.999c21.333 113.333 60.333 205.333 117 276
c64.667 82.667 139.667 119.667 225 111c38 -4 72.667 -15 104 -33l2 -1c58.667 -25.333 105.667 -87.333 141 -186c18 -44.667 37.333 -114 58 -208c2.66699 -9.33301 5.33398 -18 8.00098 -26c14 -44 22.333 -71.667 25 -83c5.33301 -21.333 8.66602 -38 9.99902 -50
c1.33301 -9.33301 1.66602 -17 0.999023 -23c-1.33301 -12.667 -6 -22 -14 -28l-8 -4c-2 -14 -6.33301 -25 -13 -33c-9.33301 -10.667 -22.333 -14 -39 -10l-8 3c-50.667 2 -107.667 3.66699 -171 5c-53.333 0.666992 -92.166 1 -116.499 1s-63.5 -0.166992 -117.5 -0.5
s-93 -0.5 -117 -0.5c21.333 -71.333 51.333 -131 90 -179c6.66699 -4 14 -7.66699 22 -11c6.66699 -3.33301 11.167 -8.33301 13.5 -15s2 -13.334 -1 -20.001s-7.83301 -11.167 -14.5 -13.5s-13.334 -2.16602 -20.001 0.500977l-4 2
c-9.33301 -1.33301 -17.333 1.66699 -24 9l-7 9c-69.333 44.667 -116 117.334 -140 218.001c-20 0 -39.667 0.333008 -59 1c-6.66699 0 -12.5 2.66699 -17.5 8s-7.5 11.666 -7.5 18.999c0 5.33301 1.66699 10 5 14zM143.001 271.001
c42.667 -2.66699 92.668 -2.99805 150.001 -0.998047c41.333 2 135.666 10 282.999 24c4 0 14.667 0.333008 32 1h22c12 0 21.667 0.333008 29 1h31c-0.666992 10.667 -1.66699 22.667 -3 36c-4 38.667 -9.33301 73.667 -16 105l-4 15l-19 76c-12.667 50 -24 89.333 -34 118
l-3 8l-18 42c-27.333 53.333 -60.333 91.666 -99 114.999c-59.333 23.333 -122.333 13.666 -189 -29.001c-30 -19.333 -57.333 -43.5 -82 -72.5s-43.667 -58.5 -57 -88.5c-22 -47.333 -34.667 -102.5 -38 -165.5s1.66699 -124.5 15 -184.5z" />
    <glyph glyph-name="F" unicode="F" horiz-adv-x="431" 
d="M57 220c-23.333 -4.66699 -44.332 -8 -62.999 -10c-7.33301 -0.666992 -13.833 1.33301 -19.5 6s-8.83398 10.5 -9.50098 17.5s1.33301 13.333 6 19s10.334 8.83398 17.001 9.50098h2c3.33301 12 11.333 18.333 24 19c24 1.33301 37.667 2 41 2
c0 24.667 0.333008 49 1 73c1.33301 48.667 8 106.667 20 174c9.33301 57.333 22 110 38 158l4 12l3 9c16 48 30.667 84 44 108c24 43.333 52.667 73 86 89c26 14.667 50 19 72 13c3.33301 -1.33301 7 -2.66602 11 -3.99902c9.33301 -4 18 -9.66699 26 -17
c17.333 -15.333 30 -38.333 38 -69c12.667 -48 14.667 -96.667 6 -146c-5.33301 -26.667 -12.666 -52 -21.999 -76c-7.33301 -20 -18.333 -46 -33 -78c-5.33301 -10 -13.666 -15 -24.999 -15c-10.667 -8 -21.334 -7.66699 -32.001 1c-5.33301 4.66699 -8.33301 10.667 -9 18
s1.33301 13.666 6 18.999c18 20.667 32.667 45 44 73c10.667 28.667 17 54.667 19 78c2 20.667 1.66699 44 -1 70s-8 48 -16 66c-6 14 -13 23.333 -21 28c-6.66699 2 -14.334 1.66699 -23.001 -1c-5.33301 -1.33301 -10.666 -3.33301 -15.999 -6
c-5.33301 -3.33301 -11 -7.33301 -17 -12c-40.667 -32 -76.667 -107 -108 -225c-8.66699 -34 -16.334 -68.333 -23.001 -103c-10.667 -68.667 -16.667 -146 -18 -232c4 0.666992 8 1.5 12 2.5s7.66699 0.833008 11 -0.5c28.667 6 53.667 10.333 75 13
c7.33301 0.666992 13.833 -1.33301 19.5 -6s8.83398 -10.5 9.50098 -17.5s-1.33301 -13.333 -6 -19s-10.334 -8.83398 -17.001 -9.50098c-24 -2.66699 -58.667 -9 -104 -19c0 -14 0.333008 -30 1 -48c1.33301 -45.333 5 -109 11 -191
c0.666992 -7.33301 -1.5 -13.666 -6.5 -18.999s-11 -8.33301 -18 -9s-13.167 1.5 -18.5 6.5s-8.33301 10.833 -9 17.5v1c-2 3.33301 -3 6.66602 -3 9.99902c-4.66699 74 -7.33398 136.667 -8.00098 188c-0.666992 11.333 -1 22 -1 32z" />
    <glyph glyph-name="G" unicode="G" horiz-adv-x="475" 
d="M12 239c-14.667 33.333 -15.668 69.6689 -3.00098 109.002c14 46 44.333 91 91 135c44.667 41.333 94 72.666 148 93.999c55.333 21.333 104 25 146 11c5.33301 -2 11 -4.83301 17 -8.5s12 -7.66699 18 -12s9.66699 -6.83301 11 -7.5c6 -3.33301 9.83301 -8.5 11.5 -15.5
s0.5 -13.833 -3.5 -20.5c-3.33301 -5.33301 -8.33301 -9 -15 -11c-1.33301 -11.333 -3.33301 -25.666 -6 -42.999l-22 -131c-3.33301 -17.333 -6.66602 -39 -9.99902 -65l-8 -61c-2 -14.667 -5 -31 -9 -49c-4.66699 -17.333 -9.66699 -33 -15 -47
c-12 -30.667 -30.333 -59 -55 -85c-25.333 -26.667 -61 -55.334 -107 -86.001c-6 -4 -12.5 -5.16699 -19.5 -3.5s-12.5 5.5 -16.5 11.5s-5.16699 12.5 -3.5 19.5s5.5 12.5 11.5 16.5c44 29.333 75.667 54.666 95 75.999c21.333 22 37 45.333 47 70
c9.33301 23.333 18 65 26 125c-10 -14.667 -20.333 -27.667 -31 -39c-52 -55.333 -113.667 -77 -185 -65c-38.667 6.66699 -68.334 21.667 -89.001 45l-3 4c-1.33301 0.666992 -2.66602 1 -3.99902 1c-6.66699 2 -11.667 6.16699 -15 12.5s-4 12.833 -2 19.5z
M155.999 428.003c-30 -38.667 -58.999 -99.666 -86.999 -182.999c1.33301 -2.66699 3 -5 5 -7c-0.666992 5.33301 0.333008 10.333 3 15c8.66699 15.333 26.667 55.666 54 120.999c9.33301 21.333 17.666 39.333 24.999 54zM160 437.004c10.667 20 22 38 34 54
c-14 -9.33301 -27.333 -19.333 -40 -30c6.66699 -6.66699 8.66699 -14.667 6 -24zM189 378.004l-10 -24.002c-28 -68 -46.667 -110.333 -56 -127c-3.33301 -6 -8.33301 -10 -15 -12c8 -2.66699 16.333 -4.66699 25 -6c9.33301 -2 18 -3 26 -3c-2 0 -4 0.666992 -6 2
c-6.66699 2 -11.5 6.33301 -14.5 13s-3.16699 13.334 -0.5 20.001c34 90.667 51 136.334 51 137.001zM244 493.002c6.66699 12 13.667 23.667 21 35c-14 -5.33301 -28.333 -12 -43 -20c5.33301 -0.666992 10 -2.66699 14 -6c3.33301 -2.66699 6 -5.66699 8 -9zM257 277.002
c-8 -6.66699 -16.999 -7.99902 -26.999 -3.99902c-10.667 4 -16 12 -16 24l-28 -74c-3.33301 -10 -10.333 -15.667 -21 -17c40 0.666992 76 18 108 52l1 2c-0.666992 0.666992 -1.33398 1 -2.00098 1c-7.33301 3.33301 -12.333 8.66602 -15 15.999zM349.001 508.003
l2.99805 5.99805c3.33301 10.667 11 16.334 23 17.001c-0.666992 2.66699 -0.666992 5.33398 0 8.00098c-19.333 6 -42.666 6.33301 -69.999 1c5.33301 -4 8.66602 -9.66699 9.99902 -17c6.66699 2.66699 13.334 2.66699 20.001 0s11.334 -7.66699 14.001 -15z" />
    <glyph glyph-name="H" unicode="H" horiz-adv-x="329" 
d="M54 569c5.33301 -38 9.00098 -85.0039 11.001 -141.004c0 -9.33301 0.333008 -27.666 1 -54.999s1.33398 -48.333 2.00098 -63c23.333 23.333 49.333 38 78 44c42 9.33301 76 -2.66699 102 -36c12.667 -15.333 22.667 -35.666 30 -60.999c10 -22 17.333 -47.333 22 -76
c9.33301 -56 9.66602 -122 0.999023 -198c-0.666992 -7.33301 -3.83398 -13.166 -9.50098 -17.499s-12.167 -6.16602 -19.5 -5.49902c-6.66699 0.666992 -12.334 3.66699 -17.001 9s-6.66699 11.333 -6 18c-12.667 6 -17.334 16 -14.001 30c4 20.667 6.66699 47.5 8 80.5
s-0.666992 68.833 -6 107.5c-2 12.667 -4.66699 24 -8 34c-14 30.667 -34.333 49 -61 55c-9.33301 1.33301 -18.333 -2 -27 -10c-10.667 -9.33301 -20.667 -24 -30 -44c-16.667 -36 -27 -72.667 -31 -110c-0.666992 -5.33301 -1 -11.666 -1 -18.999v-11v-10v-20v-7v-1v-2v-1
v-1v-1c-0.666992 -2.66699 -1.66699 -5.33398 -3 -8.00098c-2.66699 -5.33301 -7 -9.33301 -13 -12c2 -6 2.33301 -11.667 1 -17c-1.33301 -6.66699 -4.33301 -12.334 -9 -17.001c-6 -4.66699 -12.667 -7 -20 -7c-4.66699 0 -8.83398 1 -12.501 3s-6.16699 4.33301 -7.5 7
l-2 3c-1.33301 1.33301 -2.33301 3 -3 5c-0.666992 1.33301 -1 3 -1 5c-0.666992 2 -1 4.33301 -1 7c-1.33301 6 -2 13.333 -2 22c-2 23.333 -2.33301 47 -1 71c0.666992 4.66699 1 9.33398 1 14.001v5c0 8 0.666992 39.667 2 95c0.666992 52 0.666992 96.667 0 134
c-2 105.333 -9.33301 173.666 -22 204.999c-2.66699 6.66699 -2.66699 13.334 0 20.001s7.33398 11.334 14.001 14.001s13.334 2.66699 20.001 0s11.334 -7.33398 14.001 -14.001l1 -2c10.667 -2.66699 17 -9.66699 19 -21z" />
    <glyph glyph-name="I" unicode="I" horiz-adv-x="442" 
d="M80 254c-0.666992 8 -1.33398 14.667 -2.00098 20c-0.666992 7.33301 1.33301 13.833 6 19.5s10.5 8.83398 17.5 9.50098s13.333 -1.33301 19 -6s8.83398 -10.334 9.50098 -17.001s1.33398 -14 2.00098 -22v-2c3.33301 -44.667 5.33301 -106.667 6 -186v-3v-29v-5v-1
c-1.33301 0.666992 -3 1 -5 1c-10.667 0.666992 -19.5 2 -26.5 4s-11.833 5 -14.5 9s-4.33398 7.16699 -5.00098 9.5s-1 5.5 -1 9.5c-4 100 -6 163 -6 189zM21 700c18 40 37 75.333 57 106c-26 -30 -41.667 -53.667 -47 -71c-4.66699 -11.333 -8 -23 -10 -35zM217 704
l40.9971 27c30.667 19.333 56.667 32.333 78 39c35.333 12 60.333 7.33301 75 -14c8 -12 10.333 -26 7 -42c-2 -10.667 -7 -22.667 -15 -36c-11.333 -20.667 -30 -45.334 -56 -74.001c-17.333 -20 -39 -43 -65 -69l-43 -43c-14 -14.667 -30 -34 -48 -58l-47 -64
c-4.66699 -5.33301 -10.5 -8.5 -17.5 -9.5s-13.5 0.5 -19.5 4.5c-6 4.66699 -9.33301 11 -10 19c-1.33301 -1.33301 -2.66602 -2.33301 -3.99902 -3c-6.66699 -2.66699 -13.334 -2.83398 -20.001 -0.500977s-11.667 6.83301 -15 13.5l-25 52c-12 24 -21 42.833 -27 56.5
s-13.167 32.334 -21.5 56.001s-13.666 44.5 -15.999 62.5s-2.66602 38.833 -0.999023 62.5s6.16699 46.834 13.5 69.501c6 16 19 37 39 63s41 48.667 63 68c28.667 24.667 55 37.334 79 38.001c34.667 1.33301 58.667 -18.334 72 -59.001
c12.667 -39.333 8.33398 -89 -12.999 -149zM96.9971 736c-19.333 -35.333 -38.668 -78.666 -58.001 -129.999c-2 -6 -5.66699 -10.333 -11 -13c2.66699 -10 6.33398 -20.667 11.001 -32c28 87.333 47.333 145.666 58 174.999zM132.995 683
c5.33301 0.666992 10.667 -0.331055 16 -2.99805c1.33301 -0.666992 2.33301 -1.33398 3 -2.00098c2 4.66699 5.33301 13.167 10 25.5s8 21.5 10 27.5c17.333 49.333 21.333 88 12 116c-0.666992 2.66699 -1.33398 5 -2.00098 7
c-1.33301 -3.33301 -3.66602 -6.33301 -6.99902 -9c-18 -18 -35 -39 -51 -63c6 1.33301 11.667 1 17 -1c6.66699 -2 11.5 -6.33301 14.5 -13s3.16699 -13.334 0.5 -20.001zM99.9961 441.002c-2 -0.666992 -3.66895 -1.33398 -5.00195 -2.00098l11 -23
c0.666992 -2 1.33398 -4.33301 2.00098 -7l8 11c-1.33301 0.666992 -2.33301 1 -3 1c-7.33301 4.66699 -11.666 11.334 -12.999 20.001zM176.994 545.002c0 5.33301 1.00098 9.99902 3.00098 13.999l48 88l-41 -32c-2.66699 -8.66699 -4.33398 -17 -5.00098 -25
c-1.33301 -10 -6.33301 -17 -15 -21l-13 -26c7.33301 4.66699 15 5.33398 23 2.00098z" />
    <glyph glyph-name="J" unicode="J" horiz-adv-x="292" 
d="M145 626c-6 -0.666992 -11.6689 -1.33594 -17.002 -2.00293h-7c-12.667 -3.33301 -21.667 -5.33301 -27 -6c-6.66699 -2 -13 -1 -19 3s-9.83301 9.5 -11.5 16.5s-0.5 13.5 3.5 19.5s9.66699 9.66699 17 11c5.33301 1.33301 17 4.66602 35 9.99902s32 9.33301 42 12
c18.667 4.66699 34.334 7.66699 47.001 9c18.667 2.66699 33.334 1.66699 44.001 -3c2.66699 -1.33301 4.66699 -2.66602 6 -3.99902c6 -4 9.66699 -9.33301 11 -16c2 -10 -0.666992 -18.333 -8 -25c-2.66699 -2 -5.66699 -3.66699 -9 -5s-8 -2.33301 -14 -3
c-2.66699 -0.666992 -5.33398 -1.16699 -8.00098 -1.5s-4.66699 -0.5 -6 -0.5h-3c-9.33301 -2.66699 -17.333 -4.66699 -24 -6v-4v-1c0 -19.333 2.33301 -61.333 7 -126c6 -81.333 10 -141 12 -179c2 -35.333 3 -66.333 3 -93l1 -4c10 -74 7 -129.667 -9 -167
c-27.333 -60.667 -80 -93.667 -158 -99c-7.33301 -0.666992 -13.666 1.5 -18.999 6.5s-8.33301 10.833 -9 17.5v6c-4 1.33301 -8 3 -12 5c-6.66699 2.66699 -11.334 7.33398 -14.001 14.001s-2.66699 13.334 0 20.001s7.33398 11.334 14.001 14.001s13.334 2.66699 20.001 0
c22 -10 43.5 -14 64.5 -12s37.167 10.667 48.5 26c10 14 16.667 45.667 20 95c1.33301 22 1.66602 47 0.999023 75c-0.666992 5.33301 -4.66699 30.333 -12 75c-6 34 -9.33301 60 -10 78c-1.33301 24 -2 49 -2 75s0.333008 57.167 1 93.5s1 61.5 1 75.5z" />
    <glyph glyph-name="K" unicode="K" horiz-adv-x="434" 
d="M132 633c14.667 -87.333 18.334 -203.67 11.001 -349.003c12.667 10.667 38.667 37.334 78 80.001c43.333 46.667 80.333 79.334 111 98.001c1.33301 0.666992 4 2.66699 8 6l13 10c7.33301 5.33301 14.333 8.33301 21 9c16 2.66699 27.667 -3.33301 35 -18
c5.33301 -12.667 3.66602 -24.667 -5.00098 -36c-4 -4.66699 -9.66699 -9.33398 -17 -14.001l-10 -5c-2.66699 -1.33301 -4.5 -2.16602 -5.5 -2.49902s-2.16699 -0.833008 -3.5 -1.5l-179 -167c49.333 -12 95.333 -30.667 138 -56c6 -3.33301 10 -8.5 12 -15.5
s1.16699 -13.5 -2.5 -19.5s-9 -10 -16 -12s-13.5 -1 -19.5 3c-47.333 27.333 -99 46 -155 56c-0.666992 0.666992 -2.33398 0.666992 -5.00098 0l-3 -2c-5.33301 -87.333 -8 -153.333 -8 -198c0 -7.33301 -2.5 -13.5 -7.5 -18.5s-11.167 -7.5 -18.5 -7.5
s-13.5 2.5 -18.5 7.5s-7.5 11.167 -7.5 18.5c0 48.667 2.66699 117.334 8 206.001c0 3.33301 0.333008 6.33301 1 9v8c-2 5.33301 -2.33301 10.666 -1 15.999c0.666992 2.66699 1.66699 5.33398 3 8.00098c4.66699 58 6.83398 121.5 6.50098 190.5s-5.5 131.833 -15.5 188.5
c-0.666992 6.66699 1 13 5 19s9.5 9.5 16.5 10.5s13.5 -0.5 19.5 -4.5s9.66699 -9.66699 11 -17z" />
    <glyph glyph-name="L" unicode="L" horiz-adv-x="377" 
d="M133 786c6.66699 -53.333 10.6699 -108.838 12.0029 -166.505s1 -126.667 -1 -207s-3 -134.833 -3 -163.5c0 -5.33301 -0.5 -21.833 -1.5 -49.5s-1.5 -50.167 -1.5 -67.5c-0.666992 -27.333 -0.666992 -49 0 -65c0.666992 -9.33301 1.33398 -16.666 2.00098 -21.999
c0 -1.33301 0.333008 -2.66602 1 -3.99902c0.666992 0 2.33398 -0.333008 5.00098 -1l8 -2l3 -1c13.333 -2.66699 33 -4.66699 59 -6c3.33301 -0.666992 7.33301 -1 12 -1h4h5c27.333 -1.33301 42.333 -2 45 -2c25.333 -1.33301 43 -3.66602 53 -6.99902
c7.33301 -2 12.666 -6.16699 15.999 -12.5s4 -13 2 -20s-6.16699 -12.167 -12.5 -15.5s-12.833 -4 -19.5 -2s-20.667 3.66699 -42 5c-6 0 -15.333 0.333008 -28 1s-20.667 1 -24 1c-2.66699 0 -9.33398 -0.333008 -20.001 -1c-14.667 -1.33301 -26 -2 -34 -2
c-34 -1.33301 -58.667 3.66699 -74 15c-6 5.33301 -11 13 -15 23c-2 6 -3.66699 13.667 -5 23c-2.66699 14.667 -4.66699 33.334 -6 56.001c-1.33301 17.333 -2.33301 48.666 -3 93.999c-0.666992 40.667 1.66602 148 6.99902 322
c0.666992 15.333 0.666992 57.666 0 126.999c-0.666992 54.667 0.666016 98.334 3.99902 131.001c0 1.33301 0.333008 3 1 5l-1 9c-0.666992 6.66699 1.16602 12.834 5.49902 18.501s10 9 17 10s13.333 -0.666992 19 -5s9.16699 -10.166 10.5 -17.499z" />
    <glyph glyph-name="M" unicode="M" horiz-adv-x="566" 
d="M333 205v-13.9951v-35v-12c-0.666992 -2.66699 -1 -4.66699 -1 -6s-0.333008 -3 -1 -5c-0.666992 -2.66699 -1.66699 -5 -3 -7c-2.66699 -2.66699 -5.66699 -5 -9 -7l1 -3c0 -1.33301 0.333008 -2.66602 1 -3.99902v-2c0.666992 -0.666992 1 -1.33398 1 -2.00098v-4
c0 -4 -1 -8 -3 -12c-2.66699 -6 -7.33398 -10 -14.001 -12c-6 -2.66699 -12 -2.66699 -18 0c-4 1.33301 -7.33301 3.33301 -10 6c-1.33301 1.33301 -2.33301 2.66602 -3 3.99902c0 0.666992 -0.333008 1.66699 -1 3l-1 1c-0.666992 0.666992 -1.33398 1.66699 -2.00098 3
c-15.333 23.333 -22.333 57.666 -21 102.999c0.666992 15.333 2.33398 31 5.00098 47c-1.33301 18 -3.33301 34 -6 48c-8.66699 42.667 -23 72.334 -43 89.001c-17.333 4.66699 -35.666 5.66699 -54.999 3c-39.333 -4.66699 -68.666 -18.667 -87.999 -42v-1
c1.33301 -20 2.66602 -42.333 3.99902 -67l8 -75c7.33301 -77.333 11 -144 11 -200c0 -7.33301 -2.5 -13.5 -7.5 -18.5s-11.167 -7.5 -18.5 -7.5s-13.5 2.5 -18.5 7.5s-7.5 11.167 -7.5 18.5v16c-5.33301 4.66699 -8.33301 10.667 -9 18c-2 22.667 -4.66699 84.667 -8 186
c-0.666992 20 -1.33398 37 -2.00098 51c-6 56 -10 96.667 -12 122v7v1c-0.666992 7.33301 1 13.833 5 19.5s9.66699 9.16699 17 10.5c8.66699 1.33301 16 -1 22 -7c62.667 26.667 114.334 33 155.001 19c10 -4 19.333 -8.66699 28 -14
c18.667 -6.66699 34.667 -16.334 48 -29.001c8 -7.33301 15.333 -15.333 22 -24c11.333 19.333 23.666 35.666 36.999 48.999c32.667 31.333 68 41.333 106 30c24.667 -7.33301 45.334 -25.333 62.001 -54c12.667 -22 22.334 -49.667 29.001 -83
c12.667 -59.333 15.334 -112 8.00098 -158c-4.66699 -28.667 -14 -59.334 -28 -92.001c-1.33301 -5.33301 -9.33301 -26 -24 -62c-4.66699 -12 -13.667 -17.333 -27 -16c-5.33301 -0.666992 -10.666 0.333008 -15.999 3c-6 4 -10 9.5 -12 16.5s-1.33301 13.5 2 19.5
c11.333 18.667 21 37.667 29 57c9.33301 26 14.666 49 15.999 69c1.33301 13.333 0.166016 35.333 -3.50098 66s-9.5 59.667 -17.5 87c-8.66699 32 -19 55 -31 69c-8.66699 10.667 -17.667 14 -27 10c-16 -6.66699 -29.333 -22 -40 -46
c-10.667 -22 -18.334 -50.333 -23.001 -85c-2.66699 -16.667 -4.66699 -34.334 -6 -53.001z" />
    <glyph glyph-name="N" unicode="N" horiz-adv-x="503" 
d="M124 244c0 -16 -0.34082 -33.9961 -1.00781 -53.9961c-3.33301 -100 -5 -153.667 -5 -161c0 -4.66699 -1 -8.66699 -3 -12c-0.666992 -6.66699 -3.5 -12.334 -8.5 -17.001s-10.833 -7 -17.5 -7c-7.33301 0 -13.5 2.5 -18.5 7.5s-7.5 11.167 -7.5 18.5
c0 25.333 1 61.5 3 108.5s3 88.833 3 125.5s-2.66699 71 -8 103c-0.666992 7.33301 1 13.833 5 19.5s9.66699 9.16699 17 10.5c10.667 1.33301 19 -2.33398 25 -11.001c8.66699 -4.66699 13.334 -11.667 14.001 -21c16.667 22 37.334 42.167 62.001 60.5
s50.334 32.5 77.001 42.5c40.667 15.333 77.334 18.333 110.001 9c39.333 -11.333 68.333 -38.333 87 -81c8 -18 13.667 -38.333 17 -61s5.33301 -42.167 6 -58.5s-1 -38.333 -5 -66s-7 -46.667 -9 -57s-6.66699 -31 -14 -62s-11.666 -48.167 -12.999 -51.5
c-1.33301 -6.66699 -5 -12 -11 -16s-12.667 -5 -20 -3c-7.33301 1.33301 -13 5.66602 -17 12.999c-11.333 6 -15.666 15.333 -12.999 28c0.666992 5.33301 6.66699 32 18 80c8.66699 35.333 14 62 16 80c7.33301 58.667 0.333008 106.667 -21 144
c-14 25.333 -33 40.333 -57 45c-22 4 -46.667 -0.333008 -74 -13s-52.166 -31 -74.499 -55s-37.166 -47.667 -44.499 -71c-3.33301 -8.66699 -9.33301 -14.334 -18 -17.001z" />
    <glyph glyph-name="O" unicode="O" horiz-adv-x="509" 
d="M46 335c14 36.667 31.667 77.6689 53 123.002c-12.667 -0.666992 -23.667 -4.33398 -33 -11.001c-14 -10 -21.667 -30.667 -23 -62c-0.666992 -16.667 0.333008 -33.334 3 -50.001zM85 232.002c7.33301 18.667 21 49.665 41 92.998c20.667 45.333 36 80.333 46 105
c0 0.666992 0.333008 1.33398 1 2.00098l-6 4c-5.33301 4 -11 7.33301 -17 10c-33.333 -73.333 -59.333 -136.666 -78 -189.999c4 -8 8.33301 -16 13 -24zM132 163c18.667 48 46.333 112.667 83 194c2.66699 4.66699 6 8.33398 10 11.001c-3.33301 8 -7.66602 16 -12.999 24
c-8.66699 -22.667 -21.334 -52.334 -38.001 -89.001c-27.333 -60 -43 -95 -47 -105c-2 -6 -6 -10.333 -12 -13zM271.999 390c41.333 29.333 83.3301 44 125.997 44c34 -0.666992 58.667 -12.334 74 -35.001c16.667 -24.667 18.667 -58.334 6 -101.001
c-14 -48 -45.667 -100 -95 -156c-10.667 -12.667 -31 -34.667 -61 -66l-56 -62c-4.66699 -6 -10.5 -9.33301 -17.5 -10s-13.167 1.33301 -18.5 6c-3.33301 2 -5.66602 4.66699 -6.99902 8c-12 -7.33301 -22.667 -6 -32 4c-23.333 22.667 -42.666 42.167 -57.999 58.5
s-33.166 37.833 -53.499 64.5s-36.5 51.667 -48.5 75s-22 49.833 -30 79.5s-11.333 58.834 -10 87.501c2.66699 48 17.667 82 45 102c16 12 34 18.833 54 20.5s38.667 -0.166016 56 -5.49902c17.333 -6 34 -14.333 50 -25c36.667 -24 62 -53.667 76 -89zM253.996 317
c-34 -75.333 -60.334 -136.999 -79.001 -184.999c-1.33301 -4.66699 -4 -8.33398 -8 -11.001l6 -6c10.667 28 26.334 63.667 47.001 107l47 97c-3.33301 -1.33301 -7 -2 -11 -2h-2zM391.995 308.001l5.99805 -1.99805c6 -4 10 -9.5 12 -16.5s1.33301 -13.5 -2 -19.5l-35 -59
c27.333 36 45.666 69.667 54.999 101c8 28 8.33301 47.333 1 58c-5.33301 8 -15.666 12 -30.999 12c-3.33301 0 -7 -0.333008 -11 -1c2.66699 0 5.33398 -0.666992 8.00098 -2c6.66699 -2.66699 11.334 -7.33398 14.001 -14.001s2.66699 -13.334 0 -20.001zM301.993 143.003
l-14 -27.001l22 22c-1.33301 0.666992 -2.33301 1.33398 -3 2.00098c-2 0.666992 -3.66699 1.66699 -5 3zM319.993 311.002c-6 -13.333 -23.6689 -50.3359 -53.002 -111.003c-21.333 -44.667 -37 -81.334 -47 -110.001c-2 -5.33301 -5.66699 -9.66602 -11 -12.999l18 -19
c2 -1.33301 3.33301 -3 4 -5c11.333 13.333 26 29.333 44 48c-7.33301 -3.33301 -14.666 -3 -21.999 1c-6.66699 2.66699 -11.167 7.33398 -13.5 14.001s-1.83301 13.334 1.5 20.001c10.667 22.667 31.334 61.334 62.001 116.001c27.333 48 46.666 85.667 57.999 113
c2.66699 6.66699 7.33398 11.334 14.001 14.001c-26.667 -5.33301 -51.334 -16 -74.001 -32c2 -0.666992 3.66699 -1.33398 5 -2.00098c6.66699 -3.33301 11.334 -8.33301 14.001 -15s2.66699 -13 0 -19z" />
    <glyph glyph-name="P" unicode="P" horiz-adv-x="457" 
d="M208 620c54.667 10 101.997 1.33301 141.997 -26c49.333 -33.333 77 -86.666 83 -159.999c5.33301 -63.333 -6 -114.333 -34 -153c-22 -30 -58 -58.333 -108 -85c-49.333 -26 -111.666 -44.333 -186.999 -55c-4 -64.667 -6.66699 -117.667 -8 -159
c0 -7.33301 -2.66699 -13.333 -8 -18s-11.666 -7 -18.999 -7s-13.333 2.66699 -18 8s-7 11.666 -7 18.999c0.666992 20.667 6 113.667 16 279c2 37.333 3.33301 63 4 77c-3.33301 0 -6.66602 1 -9.99902 3c-6.66699 2.66699 -11.167 7.5 -13.5 14.5s-1.83301 13.5 1.5 19.5
c6.66699 15.333 15 31.333 25 48c1.33301 40.667 1.33301 79 0 115c0 7.33301 2.33301 13.666 7 18.999s10.667 8 18 8h3c15.333 16.667 40.333 31 75 43l8 2c8 10.667 18 13.334 30 8.00098zM373.997 344l-52.001 -68c14.667 11.333 26.334 23 35.001 35
c7.33301 10 13 21 17 33zM247.996 572c-11.333 0 -22.668 -1.33203 -34.001 -3.99902c-12.667 -25.333 -32.667 -59.333 -60 -102l-35 -56l-2 -54c8.66699 14 27.334 46.667 56.001 98s53.667 90.666 75 117.999zM134.994 533.001
c-3.33301 -3.33301 -6.33301 -7.33301 -9 -12c-2 -2.66699 -4 -5 -6 -7v-5zM364.994 401.001c6 0 10.999 -1.66504 14.999 -4.99805l2 -2c0.666992 10.667 0.333984 22.667 -0.999023 36v5c-0.666992 -0.666992 -1 -1.33398 -1 -2.00098c-4 -10.667 -9 -21.334 -15 -32.001z
M335.993 474.003c-16.667 -26 -43 -63.0029 -79 -111.003l-44 -61c0.666992 -7.33301 -1.66602 -13.666 -6.99902 -18.999c-20.667 -24 -38.667 -51 -54 -81c23.333 5.33301 44.666 11.333 63.999 18c-4 0.666992 -8 2.33398 -12 5.00098
c-5.33301 4.66699 -8.5 10.5 -9.5 17.5s0.5 13.5 4.5 19.5l38 46l38.5 49c9 12 19 26.833 30 44.5s19.833 34.834 26.5 51.501c2.66699 6.66699 7.16699 11.334 13.5 14.001s13.166 2.66699 20.499 0c4.66699 -2 8.33398 -5 11.001 -9
c-8.66699 42.667 -27.667 73.667 -57 93c-7.33301 5.33301 -15.666 9.66602 -24.999 12.999c2 -8 0.333008 -15.333 -5 -22c-18 -23.333 -41.667 -61 -71 -113c-34.667 -61.333 -58.334 -101.666 -71.001 -120.999c-4 -6 -9.16699 -9.83301 -15.5 -11.5
s-12.5 -0.833984 -18.5 2.49902l-2 -39l-1 -25c7.33301 14.667 15 28 23 40c0.666992 2.66699 1.66699 5 3 7c18 26.667 44.333 63.667 79 111c34.667 48 60 84.333 76 109c4 6 9.5 9.83301 16.5 11.5s13.5 0.5 19.5 -3.5s9.83301 -9.5 11.5 -16.5s0.5 -13.5 -3.5 -19.5z
" />
    <glyph glyph-name="Q" unicode="Q" horiz-adv-x="535" 
d="M57 333c0 0.666992 3.00098 21.666 9.00098 62.999c5.33301 36.667 9 66.334 11 89.001c-28.667 -57.333 -35.334 -108 -20.001 -152zM268.001 -75.001c-0.666992 3.33301 -1.00195 6.66602 -1.00195 9.99902c2.66699 36 4.33398 57 5.00098 63
c-6 -6.66699 -11 -12.667 -15 -18c-13.333 -15.333 -21.666 -27.666 -24.999 -36.999c-2 -5.33301 -2 -9.33301 0 -12c7.33301 -7.33301 19.333 -9.33301 36 -6zM440.999 92.999l0.000976562 -3.00098c0 -17.333 -0.666992 -33.666 -2 -48.999
c7.33301 8 12.333 14.333 15 19c7.33301 12 8.66602 20.667 3.99902 26c-3.33301 4 -9 6.33301 -17 7zM343 52.998l-2 -2c-7.33301 -4 -15 -4.33301 -23 -1l-1 -2c12 -6.66699 16 -16.667 12 -30c-4 -15.333 -7 -39.333 -9 -72l12 7c-4 6 -5 12.667 -3 20
c7.33301 27.333 12 54 14 80zM276 80.998h1h-1zM273 75.998l-2.99609 10.0039l-16 47l-24 69c-44 -10.667 -88 -5.33398 -132 15.999c-12 5.33301 -23 11.666 -33 18.999c-4.66699 2 -8.33398 5 -11.001 9c-27.333 23.333 -44.5 53.166 -51.5 89.499s-6 72 3 107
s23.833 68.833 44.5 101.5c17.333 27.333 37.833 52 61.5 74s49.5 40 77.5 54s58.167 21 90.5 21s63.166 -8.66699 92.499 -26c36 -16.667 60.667 -44.667 74 -84c18.667 -54.667 13 -118 -17 -190c-15.333 -36 -36 -69.5 -62 -100.5s-55.333 -54.833 -88 -71.5l24 -72
l16 -47l1 -3c2 1.33301 7 4.5 15 9.5s14.5 8.66699 19.5 11s11.167 5.5 18.5 9.5s14.666 7.16699 21.999 9.5s14.666 4.16602 21.999 5.49902c34.667 6 61.334 -2 80.001 -24c21.333 -24.667 21.666 -54 0.999023 -88c-8.66699 -14 -25 -32.167 -49 -54.5
s-49.333 -42.5 -76 -60.5c-33.333 -21.333 -63 -35 -89 -41c-37.333 -9.33301 -66.666 -3 -87.999 19c-18 17.333 -22.333 39.333 -13 66c5.33301 15.333 16.666 33 33.999 53l40 44zM360.004 582.002c7.33301 5.33301 15.333 6.66797 24 4.00098l6 -4
c-6.66699 13.333 -16 23.666 -28 30.999c3.33301 -6 4 -12.333 2 -19zM398.004 548.004c1.33301 -0.666992 2.66797 -1 4.00098 -1c-0.666992 2 -1.33398 4.33301 -2.00098 7v-2zM130.006 524.004c0 -34 -4.00098 -78.9971 -12.001 -134.997
c-9.33301 -67.333 -14.666 -105.333 -15.999 -114l6 -4c-2.66699 5.33301 -3.66699 11 -3 17c4 18.667 9.5 50.167 16.5 94.5s14 84.166 21 119.499s15.833 67.666 26.5 96.999c-19.333 -14.667 -37 -32 -53 -52c9.33301 -4.66699 14 -12.334 14 -23.001zM291.005 601.007
c-7.33301 -18.667 -13.667 -45.666 -19 -80.999c-7.33301 -47.333 -12.666 -78 -15.999 -92l-11 -40l-11 -41c-3.33301 -10.667 -6.66602 -23.334 -9.99902 -38.001s-6 -28.667 -8 -42c-1.33301 -6.66699 -4.33301 -12 -9 -16c35.333 6 68.666 23.667 99.999 53
c-0.666992 0 -1.66699 0.333008 -3 1c-6 1.33301 -10.833 4.5 -14.5 9.5s-5.5 10.5 -5.5 16.5c-2.66699 -6 -6.83398 -10.5 -12.501 -13.5s-11.834 -3.5 -18.501 -1.5s-11.834 6 -15.501 12s-4.5 12.667 -2.5 20c8 30 34.333 117.333 79 262
c2.66699 8.66699 8.33398 14.334 17.001 17.001c-11.333 2.66699 -24 4 -38 4c-8 0 -14.667 3 -20 9c-20 -0.666992 -40 -5.66699 -60 -15c10.667 -7.33301 13.667 -17.333 9 -30c-10.667 -29.333 -19.667 -60.666 -27 -93.999c-7.33301 -34 -14.5 -74.333 -21.5 -121
s-12.5 -80.667 -16.5 -102c-2.66699 -11.333 -9.33398 -18 -20.001 -20c12.667 -4.66699 25.334 -7.33398 38.001 -8.00098c-8.66699 6 -12.334 14.333 -11.001 25c4 21.333 18 77 42 167c3.33301 13.333 8.33301 42 15 86c5.33301 39.333 12.666 70.333 21.999 93
c2.66699 6.66699 7.33398 11.334 14.001 14.001s13.334 2.66699 20.001 0s11.334 -7.33398 14.001 -14.001s2.66699 -13.334 0 -20.001z" />
    <glyph glyph-name="R" unicode="R" horiz-adv-x="320" 
d="M63 13l-0.000976562 1.99902c-0.666992 -2.66699 -1.33398 -5 -2.00098 -7c-1.33301 4 -2.33301 8.66699 -3 14c-1.33301 8 -2.33301 17.333 -3 28v43c0.666992 61.333 6 111.666 16 150.999c0 40 -1.33301 76 -4 108c-0.666992 6.66699 1.33301 12.834 6 18.501
s10.5 8.83398 17.5 9.50098s13.333 -1.33301 19 -6s8.83398 -10.667 9.50098 -18c0 -3.33301 0.333008 -6.66602 1 -9.99902c34.667 42.667 84 67.334 148 74.001c7.33301 0.666992 13.833 -1.33301 19.5 -6s8.83398 -10.5 9.50098 -17.5s-1.33301 -13.333 -6 -19
s-10.334 -8.83398 -17.001 -9.50098c-65.333 -6.66699 -110.666 -36.667 -135.999 -90c-6 -12 -11 -25.667 -15 -41c0 -16 -1.33301 -58.333 -4 -127l-3 -77l-1 -18v-4l3 15c0.666992 -14.667 -3.33301 -27.334 -12 -38.001c-9.33301 -11.333 -21 -9.66602 -35 5.00098
c-4 3.33301 -7 7.66602 -9 12.999c0.666992 2 1 4.33301 1 7zM61.999 5.99902c0 0.666992 -0.333984 1.33203 -1.00098 1.99902c-1.33301 -7.33301 -1.66602 -11.666 -0.999023 -12.999z" />
    <glyph glyph-name="S" unicode="S" horiz-adv-x="374" 
d="M298 450c18.667 -18 32.3389 -29.668 41.0059 -35.001c6 -4 9.83301 -9.5 11.5 -16.5s0.5 -13.5 -3.5 -19.5s-9.5 -9.83301 -16.5 -11.5s-13.5 -0.5 -19.5 3.5s-11.667 8.33301 -17 13c-12 0 -20.333 5 -25 15c-2 5.33301 -5 10.666 -9 15.999h-1c-8 8 -15 14.333 -21 19
c-18 11.333 -39 18.666 -63 21.999c-38 4.66699 -65 -2.33301 -81 -21c-10 -16.667 -11.667 -38.667 -5 -66c3.33301 -13.333 14 -34.333 32 -63c32 -52.667 49 -81 51 -85c42.667 -77.333 48.667 -137.666 18 -180.999c-10.667 -24 -31 -43.333 -61 -58
c-6.66699 -3.33301 -13.334 -3.83301 -20.001 -1.5s-11.667 6.5 -15 12.5c-0.666992 1.33301 -1.33398 2.33301 -2.00098 3c-3.33301 6 -4.5 12.333 -3.5 19s4.16699 12.334 9.5 17.001l19 12l16 11.5c4 3 7.66699 6.5 11 10.5h1c2 6.66699 2.66699 14.334 2 23.001
c-0.666992 22.667 -13.334 56.667 -38.001 102l-15 29l-18 33l-16 30c-6 12 -10.667 23 -14 33c-20.667 52.667 -22 97 -4 133c2.66699 6 5.66699 11.333 9 16c9.33301 14 21.666 25.333 36.999 34c21.333 12 45.166 17.5 71.499 16.5s52.166 -7.83301 77.499 -20.5
c10.667 -4.66699 21 -11 31 -19c11.333 -7.33301 21.333 -16 30 -26z" />
    <glyph glyph-name="T" unicode="T" horiz-adv-x="342" 
d="M118 409c-26.667 -1.33301 -49.999 -2 -69.999 -2c-7.33301 0 -13.5 2.5 -18.5 7.5s-7.5 11.167 -7.5 18.5s2.5 13.5 7.5 18.5s11.167 7.5 18.5 7.5c20 0 42.667 0.666992 68 2c-2.66699 58.667 -7.33398 124 -14.001 196c-0.666992 7.33301 1.33301 13.833 6 19.5
s10.5 8.83398 17.5 9.50098s13.333 -1.33301 19 -6s8.83398 -10.334 9.50098 -17.001c6 -61.333 10.667 -127.333 14 -198c58.667 4.66699 100 7.33398 124 8.00098c7.33301 0 13.666 -2.5 18.999 -7.5s8 -11 8 -18s-2.5 -13.167 -7.5 -18.5s-10.833 -8 -17.5 -8
c-23.333 -0.666992 -64 -3.33398 -122 -8.00098h-2c1.33301 -54 2 -189.333 2 -406c0 -7.33301 -2.5 -13.5 -7.5 -18.5s-11.167 -7.5 -18.5 -7.5s-13.5 2.5 -18.5 7.5s-7.5 11.167 -7.5 18.5c0 215.333 -0.666992 349.333 -2 402z" />
    <glyph glyph-name="U" unicode="U" horiz-adv-x="477" 
d="M97 358c0.666992 -9.33301 -0.337891 -39.3281 -3.00488 -89.9951c-2 -41.333 -2 -73.333 0 -96c4.66699 -55.333 24.334 -90 59.001 -104c3.33301 -0.666992 7 -1 11 -1c38 0 73.833 12 107.5 36s59.834 54.667 78.501 92c10.667 21.333 22.334 53.666 35.001 96.999v2
c0 0.666992 0.166992 2.16699 0.5 4.5s0.833008 5.16602 1.5 8.49902c0.666992 6.66699 2.33398 12 5.00098 16c1.33301 2.66699 3.33301 5 6 7v3c0.666992 2.66699 1.66699 5 3 7c2 5.33301 5.33301 9.33301 10 12c6.66699 4 14 5 22 3c5.33301 -2 9.66602 -5 12.999 -9
c4.66699 -6.66699 7.33398 -16.667 8.00098 -30c0.666992 -8 0.666992 -19 0 -33v-19v-1c0 -20.667 -2 -49.334 -6 -86.001c-3.33301 -29.333 -7 -59.333 -11 -90c-2 -20.667 -3.33301 -34 -4 -40c-0.666992 -4 -1.66699 -7.66699 -3 -11
c-0.666992 -2.66699 -1 -4.66699 -1 -6c-1.33301 -7.33301 -4.83301 -13.166 -10.5 -17.499s-12 -6 -19 -5s-12.667 4.33301 -17 10s-6.16602 11.834 -5.49902 18.501c0.666992 3.33301 1.33398 7.66602 2.00098 12.999s1.66699 12.5 3 21.5s2.33301 16.5 3 22.5l2 16
c-33.333 -49.333 -74.333 -81.333 -123 -96c-12 -3.33301 -28.833 -5.33301 -50.5 -6s-38.5 0.666016 -50.5 3.99902c-8.66699 1.33301 -16.667 3.33301 -24 6c-30 5.33301 -53.667 20 -71 44c-16 23.333 -26 55.666 -30 96.999
c-2.66699 27.333 -2.33398 62.666 0.999023 105.999c3.33301 50.667 5 79 5 85c0 2.66699 0.333008 5 1 7c0 7.33301 2.33301 13.5 7 18.5s10.5 7.83301 17.5 8.5s13.167 -1.5 18.5 -6.5s8.33301 -11.167 9 -18.5z" />
    <glyph glyph-name="V" unicode="V" horiz-adv-x="419" 
d="M27 406c0.666992 10.667 5.99902 18.0049 15.999 22.0049c6.66699 2.66699 13.334 2.66699 20.001 0s11.334 -7.33398 14.001 -14.001l12 -29c34 -54.667 68 -126.334 102 -215.001c1.33301 -3.33301 3 -7 5 -11l3 -8c28 72 70.667 148.333 128 229
c3.33301 4.66699 7.66602 8 12.999 10l8 12c4 6 9.5 9.83301 16.5 11.5s13.5 0.5 19.5 -3.5s9.83301 -9.5 11.5 -16.5s0.5 -13.5 -3.5 -19.5c-55.333 -85.333 -96.666 -168.666 -123.999 -249.999c-0.666992 -1.33301 -5.66699 -18.666 -15 -51.999l-9 -32
c-1.33301 -4.66699 -2.66602 -8.33398 -3.99902 -11.001l-2 -5c0 -0.666992 -0.333008 -1.33398 -1 -2.00098l-2 -4c-2.66699 -4.66699 -7.33398 -8 -14.001 -10c-5.33301 -1.33301 -9.83301 -1.33301 -13.5 0s-6.66699 2.66602 -9 3.99902s-3.5 2.33301 -3.5 3
c-1.33301 1.33301 -2.66602 3 -3.99902 5s-2.33301 4 -3 6c-1.33301 3.33301 -3.33301 7.66602 -6 12.999l-4 14c-0.666992 0 -1 0.333008 -1 1c-2 1.33301 -3.33301 3 -4 5c-1.33301 1.33301 -2.33301 3 -3 5s-1.33398 4.66699 -2.00098 8l-7 23
c-7.33301 22.667 -12 37.667 -14 45c-11.333 27.333 -30 67.666 -56 120.999c-22 44 -38 77 -48 99l-14 21c-4.66699 8 -5.33398 16.333 -2.00098 25z" />
    <glyph glyph-name="W" unicode="W" horiz-adv-x="545" 
d="M58 521c1.33301 -17.333 3.33008 -52.333 5.99707 -105l5 -127c3.33301 -51.333 7.33301 -93.333 12 -126c4.66699 -38 10.334 -63.667 17.001 -77c6 -12.667 14.5 -22.667 25.5 -30s21.833 -11 32.5 -11c11.333 0 20.333 2.33301 27 7
c5.33301 10.667 9.33301 24.667 12 42c2 10.667 4 26.667 6 48v7c0 6 0.666992 11 2 15c0.666992 4 2 7.33301 4 10c4.66699 9.33301 12 14.333 22 15c14.667 0.666992 25.334 -6 32.001 -20c2 -5.33301 3.66699 -12.333 5 -21c0.666992 -3.33301 1.66699 -9.33301 3 -18
c2.66699 -12 5.66699 -23.333 9 -34c12 -36 25.667 -58.667 41 -68c22 -8 41.333 -4.66699 58 10l3 2c17.333 18.667 33 49 47 91c10.667 32.667 20.334 72 29.001 118c5.33301 38 8 70.333 8 97c0 7.33301 2.5 13.5 7.5 18.5s11.167 7.5 18.5 7.5
c10.667 0 18.334 -5 23.001 -15c7.33301 -6 10.333 -13.667 9 -23c-7.33301 -47.333 -12.333 -78.666 -15 -93.999c-7.33301 -49.333 -17.333 -92.666 -30 -129.999c-16.667 -48 -37 -83.333 -61 -106c-31.333 -32.667 -67 -42.334 -107 -29.001c-4 1.33301 -8 3 -12 5
c-2 1.33301 -4.33301 2.33301 -7 3c-22.667 10.667 -40 28.667 -52 54l-4 -6c-3.33301 -4.66699 -7 -9 -11 -13c-12.667 -21.333 -30 -34.333 -52 -39c-26.667 -6 -52.667 0 -78 18c-21.333 15.333 -37 34.666 -47 57.999c-20 46.667 -33 125 -39 235
c-0.666992 20.667 -2 59.5 -4 116.5s-4 97.167 -6 120.5c-0.666992 6.66699 1.33301 12.834 6 18.501s10.667 8.83398 18 9.50098c11.333 1.33301 19.666 -3.33398 24.999 -14.001c7.33301 -4.66699 11.333 -11.334 12 -20.001z" />
    <glyph glyph-name="X" unicode="X" horiz-adv-x="399" 
d="M261 150c19.333 -21.333 39.667 -47.002 61 -77.002c4 -4.66699 5.66699 -10.334 5 -17.001l5 -7c4 -6 5.16699 -12.5 3.5 -19.5s-5.5 -12.5 -11.5 -16.5s-12.5 -5.16699 -19.5 -3.5s-12.5 5.5 -16.5 11.5c-26 39.333 -49 70.666 -69 93.999
c-38.667 -36 -66.667 -70.333 -84 -103c-4 -8 -10.333 -12.667 -19 -14c-8.66699 -10 -19.334 -12 -32.001 -6c-6 3.33301 -10.167 8.33301 -12.5 15s-1.83301 13.334 1.5 20.001c23.333 46.667 56.333 92.667 99 138c-32 28 -65.333 49 -100 63
c-6.66699 2.66699 -11.334 7.33398 -14.001 14.001s-2.66699 13.334 0 20.001s7.33398 11.334 14.001 14.001s13.334 2.66699 20.001 0l10 -4c2 -0.666992 3.66699 -1.33398 5 -2.00098c33.333 -11.333 67.666 -34 102.999 -68c20.667 19.333 45.334 41 74.001 65
c6 4.66699 12.5 6.66699 19.5 6s12.833 -3.66699 17.5 -9c0.666992 -1.33301 1.66699 -2.66602 3 -3.99902l12 8c6 4 12.5 5.16699 19.5 3.5s12.5 -5.5 16.5 -11.5s5.16699 -12.5 3.5 -19.5s-5.5 -12.5 -11.5 -16.5c-38 -24 -72.333 -48.667 -103 -74z" />
    <glyph glyph-name="Y" unicode="Y" 
d="M97 471c0.666992 -5.33301 2.33398 -34.6699 5.00098 -88.0029c2 -38.667 5.33301 -69 10 -91c6 -28.667 15.333 -50 28 -64c14 -15.333 34 -23 60 -23c24 0 48 7.83301 72 23.5s45.333 36.167 64 61.5c8.66699 11.333 15.334 21 20.001 29c2 8 4.66699 18 8 30l8 30
c1.33301 4.66699 2.33301 8 3 10s1 3.66699 1 5c1.33301 2 2.33301 3.66699 3 5c2.66699 4 5.66699 7 9 9c6 2.66699 12 3.66699 18 3c6 -1.33301 11 -4.66602 15 -9.99902c6.66699 -8 10.667 -20 12 -36c0.666992 -10.667 0 -24 -2 -40
c-2.66699 -26 -8.33398 -59.667 -17.001 -101c-16.667 -77.333 -31.667 -133.333 -45 -168c-15.333 -39.333 -36 -79.333 -62 -120c-6 -9.33301 -14.333 -13.333 -25 -12c-6 -0.666992 -11.667 0.666016 -17 3.99902c-6 4 -9.83301 9.5 -11.5 16.5s-0.5 13.5 3.5 19.5
c24.667 37.333 44 74 58 110c6 17.333 17 61.333 33 132c-34.667 -35.333 -74.667 -54.666 -120 -57.999c-44 -2.66699 -80.167 6.33301 -108.5 27s-48.833 49 -61.5 85c-20 56 -24.333 124 -13 204v1c-0.666992 6.66699 1.16602 12.834 5.49902 18.501s10 9 17 10
s13.333 -0.666992 19 -5s9.16699 -10.166 10.5 -17.499z" />
    <glyph glyph-name="Z" unicode="Z" 
d="M97 471c0.666992 -5.33301 2.33398 -34.6699 5.00098 -88.0029c2 -38.667 5.33301 -69 10 -91c6 -28.667 15.333 -50 28 -64c14 -15.333 34 -23 60 -23c24 0 48 7.83301 72 23.5s45.333 36.167 64 61.5c8.66699 11.333 15.334 21 20.001 29c2 8 4.66699 18 8 30l8 30
c1.33301 4.66699 2.33301 8 3 10s1 3.66699 1 5c1.33301 2 2.33301 3.66699 3 5c2.66699 4 5.66699 7 9 9c6 2.66699 12 3.66699 18 3c6 -1.33301 11 -4.66602 15 -9.99902c6.66699 -8 10.667 -20 12 -36c0.666992 -10.667 0 -24 -2 -40
c-2.66699 -26 -8.33398 -59.667 -17.001 -101c-16.667 -77.333 -31.667 -133.333 -45 -168c-15.333 -39.333 -36 -79.333 -62 -120c-6 -9.33301 -14.333 -13.333 -25 -12c-6 -0.666992 -11.667 0.666016 -17 3.99902c-6 4 -9.83301 9.5 -11.5 16.5s-0.5 13.5 3.5 19.5
c24.667 37.333 44 74 58 110c6 17.333 17 61.333 33 132c-34.667 -35.333 -74.667 -54.666 -120 -57.999c-44 -2.66699 -80.167 6.33301 -108.5 27s-48.833 49 -61.5 85c-20 56 -24.333 124 -13 204v1c-0.666992 6.66699 1.16602 12.834 5.49902 18.501s10 9 17 10
s13.333 -0.666992 19 -5s9.16699 -10.166 10.5 -17.499z" />
    <glyph glyph-name="bracketleft" unicode="[" horiz-adv-x="266" 
d="M227 755c-2 -0.666992 -9.00488 -3.33691 -21.0049 -8.00391l-24 -10c-15.333 -6.66699 -24.666 -12.667 -27.999 -18c-7.33301 -13.333 -11.666 -39.666 -12.999 -78.999c-1.33301 -35.333 0 -80.333 4 -135c2 -30 4.66699 -60.333 8 -91
c3.33301 -31.333 7 -62.666 11 -93.999c4 -30 6.33301 -48.667 7 -56c1.33301 -12 2.33301 -29.667 3 -53c0.666992 -27.333 1.33398 -45.666 2.00098 -54.999c2.66699 -40.667 10.334 -68 23.001 -82c4.66699 -5.33301 6.66699 -11.666 6 -18.999s-3.66699 -13.333 -9 -18
s-11.666 -6.66699 -18.999 -6s-13.333 3.66699 -18 9c-19.333 22.667 -31 60 -35 112c-0.666992 6.66699 -1.33398 26 -2.00098 58c-0.666992 22 -1.66699 38 -3 48c-0.666992 6 -3 25 -7 57s-7.66699 63.667 -11 95c-3.33301 30.667 -6 61.334 -8 92.001
c-4 56.667 -5.33301 103.334 -4 140.001c2 48 9 82.333 21 103c8 14.667 25 28 51 40l26 10c11.333 4.66699 18 7.33398 20 8.00098c6.66699 2.66699 13.334 2.66699 20.001 0s11.334 -7.33398 14.001 -14.001s2.66699 -13.334 0 -20.001s-7.33398 -11.334 -14.001 -14.001z
" />
    <glyph glyph-name="backslash" unicode="\" horiz-adv-x="434" 
d="M102 634c9.33301 -18.667 25.001 -44 47.001 -76c23.333 -35.333 40 -62.333 50 -81c9.33301 -16.667 42.666 -83.334 99.999 -200.001c39.333 -80 75 -143.333 107 -190c4.66699 -6 6.33398 -12.5 5.00098 -19.5s-5 -12.667 -11 -17s-12.5 -5.83301 -19.5 -4.5
s-12.5 5 -16.5 11c-34 49.333 -71.333 115 -112 197c-60 121.333 -93 187.333 -99 198c-8 15.333 -24 41 -48 77c-22.667 34 -39 61 -49 81c-3.33301 6.66699 -3.83301 13.334 -1.5 20.001s6.66602 11.667 12.999 15s12.833 3.83301 19.5 1.5s11.667 -6.5 15 -12.5z" />
    <glyph glyph-name="bracketright" unicode="]" horiz-adv-x="245" 
d="M171 42v-2v2zM54 792c37.333 -1.33301 58.667 -2.33301 64 -3c34 -6 56.667 -21.667 68 -47c6 -14 8.33301 -31.333 7 -52c0 -2 -0.333008 -9.33301 -1 -22c-0.666992 -7.33301 -1 -13.333 -1 -18c1.33301 -50.667 3.66602 -122.667 6.99902 -216l7 -201
c0 -4 1 -16 3 -36l7 -65l6 -63c0.666992 -9.33301 1 -16.666 1 -21.999c0.666992 -4 0.666992 -7 0 -9c0 -5.33301 -1 -10.333 -3 -15c-5.33301 -8.66699 -14 -15.667 -26 -21c-2.66699 -1.33301 -5.16699 -2.33301 -7.5 -3s-4.16602 -1.33398 -5.49902 -2.00098
c-6 -4 -12.5 -5 -19.5 -3s-12.333 6 -16 12s-4.5 12.5 -2.5 19.5s6 12.167 12 15.5c3.33301 2 8.66602 4.66699 15.999 8c0 4 -0.333008 9.33301 -1 16c-0.666992 14 -2.66699 34.333 -6 61l-6 65c-2.66699 22 -4 35.333 -4 40l-7 201
c-3.33301 94 -5.66602 166 -6.99902 216c0 6.66699 0.333008 14.667 1 24c0.666992 12.667 1 19.667 1 21c0.666992 12.667 -0.333008 22.334 -3 29.001c-3.33301 8 -12.666 13 -27.999 15c-4 0.666992 -23.333 1.66699 -58 3c-7.33301 0 -13.333 2.66699 -18 8
s-7 11.666 -7 18.999s2.66699 13.333 8 18s11.666 7 18.999 7z" />
    <glyph glyph-name="asciicircum" unicode="^" horiz-adv-x="456" 
d="M169 418c0 58 17.001 157.331 51.001 297.998v2v3v9c2 17.333 10 28.666 24 33.999c12 4.66699 24.667 2.33398 38 -6.99902c7.33301 -5.33301 15.333 -12.666 24 -21.999c13.333 -16 29 -37.667 47 -65c33.333 -52.667 54.333 -89.667 63 -111
c1.33301 -4 4.33301 -16 9 -36l7 -35c2 -6.66699 1 -13 -3 -19s-9.5 -9.83301 -16.5 -11.5s-13.5 -0.5 -19.5 3.5s-9.66699 9.66699 -11 17l-8 34c-3.33301 17.333 -5.33301 26.333 -6 27c-6.66699 18.667 -26.334 53 -59.001 103c-16 24.667 -29.333 43.334 -40 56.001
c-32 -132.667 -48 -226 -48 -280c0 -7.33301 -2.5 -13.5 -7.5 -18.5s-11.167 -7.5 -18.5 -7.5s-13.5 2.5 -18.5 7.5s-7.5 11.167 -7.5 18.5z" />
    <glyph glyph-name="underscore" unicode="_" horiz-adv-x="749" 
d="M192 47c18.667 6 37.667 11.165 57 15.498s41.666 7.5 66.999 9.5l56 6c11.333 0.666992 33.166 1.83398 65.499 3.50098s51.166 2.5 56.499 2.5c20 1.33301 53.333 5 100 11c44.667 6.66699 79.667 10.334 105 11.001c7.33301 0 13.666 -2.33301 18.999 -7
s8 -10.667 8 -18s-2.33301 -13.666 -7 -18.999s-10.667 -8 -18 -8c-23.333 -0.666992 -56.666 -4 -99.999 -10c-48 -6.66699 -83 -10.667 -105 -12c-5.33301 0 -24.166 -0.833008 -56.499 -2.5s-53.833 -2.83398 -64.5 -3.50098l-53 -6c-24 -2 -44.667 -4.83301 -62 -8.5
s-34.666 -8.5 -51.999 -14.5c-6.66699 -2 -13.167 -1.33301 -19.5 2s-10.666 8.33301 -12.999 15s-1.83301 13.167 1.5 19.5s8.33301 10.833 15 13.5z" />
    <glyph glyph-name="grave" unicode="`" horiz-adv-x="236" 
d="M84 816c13.333 -14 26.334 -29.002 39.001 -45.002l49 -64l36 -49c4 -5.33301 5.5 -11.5 4.5 -18.5s-4.33301 -12.667 -10 -17s-12 -6 -19 -5s-12.833 4.16699 -17.5 9.5l-36 49l-46 60c-12 16 -24.667 31.333 -38 46c-4.66699 4.66699 -6.83398 10.667 -6.50098 18
s3 13.333 8 18s11.167 6.83398 18.5 6.50098s13.333 -3.16602 18 -8.49902z" />
    <glyph glyph-name="a" unicode="a" horiz-adv-x="430" 
d="M74 244c-16.667 -25.333 -26.667 -50.333 -30 -75c8.66699 20 18.667 45 30 75zM339 195c-13.333 -28.667 -35.6689 -67.333 -67.002 -116c-1.33301 -2 -2.66602 -3.66699 -3.99902 -5c26 16.667 44 37 54 61c6.66699 16 12.334 36 17.001 60zM369.997 357.001
c6.66699 2 12.9971 1.33887 18.9971 -1.99414c4 -2.66699 7 -6 9 -10c1.33301 -2 2.33301 -4.33301 3 -7c0.666992 -1.33301 1.33398 -3.33301 2.00098 -6c0.666992 -4 1 -8.66699 1 -14c0.666992 -14.667 0 -30.334 -2 -47.001l-1 -8
c0 -6.66699 -0.166992 -26.167 -0.5 -58.5s-0.333008 -54.833 0 -67.5s1 -30.834 2 -54.501s2.5 -44.834 4.5 -63.501c0.666992 -7.33301 -1.16602 -13.833 -5.49902 -19.5s-10.166 -8.83398 -17.499 -9.50098s-13.833 1.16602 -19.5 5.49902
s-8.83398 10.166 -9.50098 17.499c-2 22 -3.66699 44.333 -5 67c-18 -24 -41.333 -43.667 -70 -59s-58.667 -24.666 -90 -27.999c-40.667 -4.66699 -78.5 1.33301 -113.5 18s-59.833 44.667 -74.5 84c-17.333 45.333 -14.666 91.666 8.00098 138.999
c22.667 48 56 88 100 120c26.667 19.333 55 33.666 85 42.999s61 11.333 93 6s59.333 -20.666 82 -45.999zM154.994 130.007c-13.333 -23.333 -24 -43 -32 -59c-4 -9.33301 -11 -14.333 -21 -15c12 -6 25.333 -9.66699 40 -11c-10.667 7.33301 -14 17 -10 29
c6 18 13.667 36.667 23 56zM78.9941 98.0068c-3.33301 0 -6.33301 1.00098 -9 3.00098c-6.66699 2.66699 -11.167 7.33398 -13.5 14.001s-2.16602 13 0.500977 19c-6.66699 3.33301 -11.334 8.66602 -14.001 15.999c0.666992 -12.667 3 -25 7 -37
c6 -14.667 14.333 -27.334 25 -38.001c-2 6.66699 -1.33301 12.667 2 18zM184.994 297.008c7.33301 16.667 13.667 32.6689 19 48.002c-14.667 -4.66699 -29 -11.334 -43 -20.001l-20 -50l11 15c9.33301 11.333 20.333 13.666 33 6.99902zM302.995 305.01
c-10 -24.667 -31.6699 -66.667 -65.0029 -126c-27.333 -50 -46 -90.333 -56 -121c-2 -6.66699 -6 -11.667 -12 -15l14 2c4 0 8 0.333008 12 1c-2 6.66699 -1 13 3 19l31 52l33 55c8 14 16.833 30.833 26.5 50.5s17.167 37.834 22.5 54.501
c2.66699 6.66699 7.16699 11.667 13.5 15s12.833 4 19.5 2l4 -2v10v6c-4.66699 2 -8.66699 5 -12 9c-19.333 23.333 -45 35.666 -77 36.999c0 -2.66699 -0.333008 -5 -1 -7c-6 -21.333 -14.333 -43.666 -25 -66.999c8 16 15 31 21 45
c2.66699 6.66699 7.33398 11.334 14.001 14.001s13.334 2.66699 20.001 0s11.334 -7.33398 14.001 -14.001s2.66699 -13.334 0 -20.001z" />
    <glyph glyph-name="b" unicode="b" horiz-adv-x="460" 
d="M39 556l-1 5.00098c-0.666992 6.66699 1 13 5 19s9.5 9.5 16.5 10.5s13.5 -0.5 19.5 -4.5s9.66699 -9.66699 11 -17c9.33301 -52.667 15 -114.334 17 -185.001c28 36 66.333 58.333 115 67c42 7.33301 77.667 3 107 -13c28 -14.667 51 -35.334 69 -62.001
s29.667 -55.667 35 -87c17.333 -100 -6.66699 -179.333 -72 -238c-58 -52 -137.333 -78 -238 -78c-9.33301 0 -16.666 4 -21.999 12c-6.66699 0 -12.334 2 -17.001 6c-2.66699 0 -5.66699 0.333008 -9 1c-7.33301 2 -13 6.33301 -17 13
c-1.33301 1.33301 -2.33301 3.33301 -3 6c-6.66699 16 -9.66699 38 -9 66c0.666992 6 1.33398 15.333 2.00098 28s1 22 1 28c0 47.333 2.33301 86.666 7 117.999v62c-0.666992 6 -1 12 -1 18c-0.666992 12 -1.33398 29.5 -2.00098 52.5s-1.16699 41.333 -1.5 55
s-1.83301 29.834 -4.5 48.501s-6 35.334 -10 50.001c-2 6.66699 -1.33301 13 2 19zM118 186.001c9.33301 18 27.499 51.333 54.499 100s47.167 86.667 60.5 114c-0.666992 0 -1.66699 -0.333008 -3 -1c-6.66699 -0.666992 -13 -2 -19 -4
c0.666992 -4 0.333984 -8 -0.999023 -12c-15.333 -47.333 -46.333 -110 -93 -188zM378.999 211.001c2 -0.666992 4 -1.66699 6 -3c0.666992 6 1 12 1 18c-0.666992 -4 -2 -7.66699 -4 -11zM284.999 387.001c-16 -32.667 -41.001 -79.332 -75.001 -139.999
c-34.667 -63.333 -60.667 -112.333 -78 -147c-1.33301 -4 -3.66602 -7.33301 -6.99902 -10c1.33301 -23.333 2 -45 2 -65c29.333 0 57 3 83 9c-2 7.33301 -1 14.333 3 21l61 91c28.667 42 50 74.333 64 97c4 6 9.5 9.83301 16.5 11.5s13.5 0.5 19.5 -3.5
c7.33301 -4.66699 11.333 -11 12 -19c0 15.333 -1.66699 31.666 -5 48.999c-4 23.333 -12.667 45 -26 65s-30 35.333 -50 46c-5.33301 2.66699 -11 4.66699 -17 6c0 -3.33301 -1 -7 -3 -11zM338.998 292.003c-83.333 -139.333 -129.333 -217.003 -138 -233.003
c-4 -6 -9.33301 -10 -16 -12s-13.167 -1.16699 -19.5 2.5s-10.5 8.83398 -12.5 15.501s-1.33301 13.334 2 20.001l140 233c3.33301 6.66699 8.5 10.834 15.5 12.501s13.667 0.666992 20 -3s10.333 -9 12 -16s0.5 -13.5 -3.5 -19.5z" />
    <glyph glyph-name="c" unicode="c" horiz-adv-x="413" 
d="M355 344l-0.00488281 -2.99707c-0.666992 -6.66699 -3.83398 -12.334 -9.50098 -17.001s-12.167 -6.66699 -19.5 -6c-21.333 2.66699 -45.666 -0.666016 -72.999 -9.99902s-52 -23 -74 -41c-23.333 -18.667 -39.666 -39 -48.999 -61s-10.666 -44 -3.99902 -66
c12.667 -40.667 52.334 -65 119.001 -73c22 -2.66699 46.333 -3.33398 73 -2.00098c7.33301 0 15.333 0.333008 24 1c4 0.666992 6.66699 1 8 1h3h4c2 -0.666992 4 -1 6 -1c6.66699 -2.66699 11.334 -7 14.001 -13c6 -12 4.33301 -22.333 -5 -31
c-2 -2 -4.33301 -3.66699 -7 -5l-6 -2c-2 -0.666992 -4.66699 -1.33398 -8 -2.00098c-6 -0.666992 -13.333 -1.33398 -22 -2.00098c-23.333 -2.66699 -47 -3.33398 -71 -2.00098c-76.667 2.66699 -133 21 -169 55c-33.333 32 -44 74.667 -32 128c10 44.667 33 87.667 69 129
c36.667 42 76.334 70.333 119.001 85c52 18.667 97 12.667 135 -18c6 -4 9.33301 -9.66699 10 -17s-1.33301 -13.666 -6 -18.999c-7.33301 -10 -17 -12.667 -29 -8z" />
    <glyph glyph-name="d" unicode="d" horiz-adv-x="575" 
d="M164 241c-15.333 -15.333 -25 -32.667 -29 -52zM466 852.999c-3.33301 -2.66699 -7.33203 -7.00293 -11.999 -13.0029c-8.66699 -12 -18 -29.333 -28 -52c-17.333 -41.333 -28 -75.333 -32 -102c-6 -35.333 -7 -83.666 -3 -144.999s12 -125 24 -191
c4 -21.333 8.33301 -42 13 -62c1.33301 6 4.33301 21.667 9 47s7.66699 42 9 50l8 46c3.33301 22.667 5.66602 39.334 6.99902 50.001s3.5 25.834 6.5 45.501s5.16699 36.167 6.5 49.5l3 46c1.33301 17.333 2.33301 34 3 50c2 54 2.33301 91.667 1 113
c-2 25.333 -5.33301 44.333 -10 57c-2 5.33301 -3.66699 9 -5 11zM467.001 164.996c21.333 -44 46 -76.333 74 -97c5.33301 -4.66699 8.5 -10.5 9.5 -17.5s-0.5 -13.5 -4.5 -19.5c-4 -4.66699 -9 -7.66699 -15 -9c-1.33301 -4.66699 -3.66602 -8.66699 -6.99902 -12
c-5.33301 -4.66699 -11.666 -6.83398 -18.999 -6.50098s-13.333 2.83301 -18 7.5c-12.667 14 -25 32.333 -37 55c-9.33301 -42 -28 -68.333 -56 -79c-36 -14 -84.333 -14.333 -145 -1c-74 15.333 -124.667 52 -152 110c-23.333 51.333 -23.166 98.333 0.500977 141
s59.167 71.334 106.5 86.001c25.333 8.66699 52.666 11.167 81.999 7.5s55.666 -13.5 78.999 -29.5l-8 39c-24 122 -31.667 238.667 -23 350c3.33301 40.667 10 79.667 20 117c7.33301 25.333 15.666 46.333 24.999 63c13.333 23.333 29 38.333 47 45
c30.667 12 56.667 4.33301 78 -23c14 -17.333 25 -43 33 -77c9.33301 -42 14.333 -89.667 15 -143c0.666992 -66.667 -7 -145.667 -23 -237s-36.667 -181.333 -62 -270zM377.001 52.9961l-8 -18l-2 -2h3l2 6zM301.001 243.996c-12.667 -21.333 -33.667 -62.002 -63 -122.002
c-2.66699 -6.66699 -7.5 -11.167 -14.5 -13.5s-13.667 -2 -20 1s-10.666 8 -12.999 15s-1.83301 13.5 1.5 19.5c29.333 61.333 51 103.333 65 126c2.66699 4.66699 6 8 10 10c-8 0.666992 -16 0.333984 -24 -0.999023c-0.666992 -3.33301 -1.66699 -6.66602 -3 -9.99902
c-4 -6.66699 -15.667 -27.334 -35 -62.001s-34.666 -61 -45.999 -79c-3.33301 -6 -8 -10 -14 -12c13.333 -26.667 33.666 -47 60.999 -61c0 2 0.666992 4 2 6c8.66699 18 23 44.833 43 80.5s34.667 62.834 44 81.501c3.33301 6 8.33301 10.167 15 12.5
s13.167 1.83301 19.5 -1.5s10.666 -8.33301 12.999 -15s1.83301 -13.334 -1.5 -20.001c-8.66699 -18 -23 -44.833 -43 -80.5s-34.667 -62.5 -44 -80.5l5 -2c8.66699 -1.33301 16.667 -2.66602 24 -3.99902c-2.66699 6 -3 12.333 -1 19c5.33301 18 15 41.667 29 71
c14 30 23.333 51.667 28 65c2.66699 7.33301 7.16699 12.5 13.5 15.5s12.833 3.5 19.5 1.5c7.33301 -2.66699 12.333 -7 15 -13c-18.667 46 -48.667 74.333 -90 85c10 -9.33301 11.333 -20 4 -32zM389.001 185.994c1.33301 -4.66699 1.33301 -9.66699 0 -15l-8 -20
c6 0.666992 11.333 -0.333008 16 -3c3.33301 -2 6 -4.33301 8 -7l2 4v9c-6 3.33301 -10 8.33301 -12 15c-2 6 -4 11.667 -6 17z" />
    <glyph glyph-name="e" unicode="e" horiz-adv-x="426" 
d="M351 286l-2.99902 -6c-2.66699 -4 -5.66699 -7 -9 -9l8 -1c1.33301 2.66699 2.66602 6.66699 3.99902 12v4zM86.001 365c-25.333 -24 -42.333 -51.333 -51 -82l37 60zM189.001 310l-17 -22c4 0 8 -0.333008 12 -1c-2 7.33301 -0.666992 14.333 4 21zM60.001 221
l-30.999 0.00390625c2 -22.667 8.33301 -44 19 -64c14 -26 33.833 -47.5 59.5 -64.5s57.334 -28.167 95.001 -33.5s79.834 -0.333008 126.501 15c6.66699 2 13.167 1.33301 19.5 -2s10.666 -8.33301 12.999 -15s1.83301 -13.167 -1.5 -19.5s-8.33301 -10.833 -15 -13.5
c-54 -17.333 -103.667 -23 -149 -17s-84.5 20 -117.5 42s-58.5 50 -76.5 84c-13.333 25.333 -21.5 52 -24.5 80s-0.666992 55.667 7 83s21.667 54 42 80s46.166 48.667 77.499 68c23.333 14 48.166 25.167 74.499 33.5s55.5 11 87.5 8s59.333 -14.167 82 -33.5
c12 -10.667 22.5 -26.5 31.5 -47.5s15.833 -42.833 20.5 -65.5c4 -24.667 4.66699 -46.334 2 -65.001c-2 -12.667 -5.66699 -23.667 -11 -33c2 -3.33301 3 -7.33301 3 -12c0 -7.33301 -2.5 -13.5 -7.5 -18.5s-11.167 -7.5 -18.5 -7.5c-22.667 0 -52.667 2.66699 -90 8
c-42 6 -70.333 9.33301 -85 10c-22 1.33301 -49 1.66602 -81 0.999023l-11 -9c-4.66699 -4.66699 -10.667 -6.83398 -18 -6.50098s-13.333 3.16602 -18 8.49902c-2 2 -3.66699 4 -5 6zM303.002 389.004c4.66699 7.33301 11.334 11.333 20.001 12
c-2.66699 4.66699 -5.33398 8 -8.00098 10zM301.002 284.004l-5 -7l9 -1c-2 2 -3.33301 4.66699 -4 8zM165.002 385.004c-13.333 -15.333 -29.333 -38.333 -48 -69l-17 -28c1.33301 0.666992 2.66602 1 3.99902 1c34.667 37.333 69.334 84.666 104.001 141.999
c-13.333 -3.33301 -27 -7.66602 -41 -12.999c8.66699 -11.333 8 -22.333 -2 -33zM296.002 378.004c-12 -20.667 -32.666 -52 -61.999 -94h1l13 15l10 14c3.33301 4 7.33301 10 12 18l10 16c1.33301 2.66699 4.66602 9 9.99902 19z" />
    <glyph glyph-name="f" unicode="f" horiz-adv-x="431" 
d="M57 220c-23.333 -4.66699 -44.332 -8 -62.999 -10c-7.33301 -0.666992 -13.833 1.33301 -19.5 6s-8.83398 10.5 -9.50098 17.5s1.33301 13.333 6 19s10.334 8.83398 17.001 9.50098h2c3.33301 12 11.333 18.333 24 19c24 1.33301 37.667 2 41 2
c0 24.667 0.333008 49 1 73c1.33301 48.667 8 106.667 20 174c9.33301 57.333 22 110 38 158l4 12l3 9c16 48 30.667 84 44 108c24 43.333 52.667 73 86 89c26 14.667 50 19 72 13c3.33301 -1.33301 7 -2.66602 11 -3.99902c9.33301 -4 18 -9.66699 26 -17
c17.333 -15.333 30 -38.333 38 -69c12.667 -48 14.667 -96.667 6 -146c-5.33301 -26.667 -12.666 -52 -21.999 -76c-7.33301 -20 -18.333 -46 -33 -78c-5.33301 -10 -13.666 -15 -24.999 -15c-10.667 -8 -21.334 -7.66699 -32.001 1c-5.33301 4.66699 -8.33301 10.667 -9 18
s1.33301 13.666 6 18.999c18 20.667 32.667 45 44 73c10.667 28.667 17 54.667 19 78c2 20.667 1.66699 44 -1 70s-8 48 -16 66c-6 14 -13 23.333 -21 28c-6.66699 2 -14.334 1.66699 -23.001 -1c-5.33301 -1.33301 -10.666 -3.33301 -15.999 -6
c-5.33301 -3.33301 -11 -7.33301 -17 -12c-40.667 -32 -76.667 -107 -108 -225c-8.66699 -34 -16.334 -68.333 -23.001 -103c-10.667 -68.667 -16.667 -146 -18 -232c4 0.666992 8 1.5 12 2.5s7.66699 0.833008 11 -0.5c28.667 6 53.667 10.333 75 13
c7.33301 0.666992 13.833 -1.33301 19.5 -6s8.83398 -10.5 9.50098 -17.5s-1.33301 -13.333 -6 -19s-10.334 -8.83398 -17.001 -9.50098c-24 -2.66699 -58.667 -9 -104 -19c0 -14 0.333008 -30 1 -48c1.33301 -45.333 5 -109 11 -191
c0.666992 -7.33301 -1.5 -13.666 -6.5 -18.999s-11 -8.33301 -18 -9s-13.167 1.5 -18.5 6.5s-8.33301 10.833 -9 17.5v1c-2 3.33301 -3 6.66602 -3 9.99902c-4.66699 74 -7.33398 136.667 -8.00098 188c-0.666992 11.333 -1 22 -1 32z" />
    <glyph glyph-name="g" unicode="g" horiz-adv-x="475" 
d="M12 239c-14.667 33.333 -15.668 69.6689 -3.00098 109.002c14 46 44.333 91 91 135c44.667 41.333 94 72.666 148 93.999c55.333 21.333 104 25 146 11c5.33301 -2 11 -4.83301 17 -8.5s12 -7.66699 18 -12s9.66699 -6.83301 11 -7.5c6 -3.33301 9.83301 -8.5 11.5 -15.5
s0.5 -13.833 -3.5 -20.5c-3.33301 -5.33301 -8.33301 -9 -15 -11c-1.33301 -11.333 -3.33301 -25.666 -6 -42.999l-22 -131c-3.33301 -17.333 -6.66602 -39 -9.99902 -65l-8 -61c-2 -14.667 -5 -31 -9 -49c-4.66699 -17.333 -9.66699 -33 -15 -47
c-12 -30.667 -30.333 -59 -55 -85c-25.333 -26.667 -61 -55.334 -107 -86.001c-6 -4 -12.5 -5.16699 -19.5 -3.5s-12.5 5.5 -16.5 11.5s-5.16699 12.5 -3.5 19.5s5.5 12.5 11.5 16.5c44 29.333 75.667 54.666 95 75.999c21.333 22 37 45.333 47 70
c9.33301 23.333 18 65 26 125c-10 -14.667 -20.333 -27.667 -31 -39c-52 -55.333 -113.667 -77 -185 -65c-38.667 6.66699 -68.334 21.667 -89.001 45l-3 4c-1.33301 0.666992 -2.66602 1 -3.99902 1c-6.66699 2 -11.667 6.16699 -15 12.5s-4 12.833 -2 19.5z
M155.999 428.003c-30 -38.667 -58.999 -99.666 -86.999 -182.999c1.33301 -2.66699 3 -5 5 -7c-0.666992 5.33301 0.333008 10.333 3 15c8.66699 15.333 26.667 55.666 54 120.999c9.33301 21.333 17.666 39.333 24.999 54zM160 437.004c10.667 20 22 38 34 54
c-14 -9.33301 -27.333 -19.333 -40 -30c6.66699 -6.66699 8.66699 -14.667 6 -24zM189 378.004l-10 -24.002c-28 -68 -46.667 -110.333 -56 -127c-3.33301 -6 -8.33301 -10 -15 -12c8 -2.66699 16.333 -4.66699 25 -6c9.33301 -2 18 -3 26 -3c-2 0 -4 0.666992 -6 2
c-6.66699 2 -11.5 6.33301 -14.5 13s-3.16699 13.334 -0.5 20.001c34 90.667 51 136.334 51 137.001zM244 493.002c6.66699 12 13.667 23.667 21 35c-14 -5.33301 -28.333 -12 -43 -20c5.33301 -0.666992 10 -2.66699 14 -6c3.33301 -2.66699 6 -5.66699 8 -9zM257 277.002
c-8 -6.66699 -16.999 -7.99902 -26.999 -3.99902c-10.667 4 -16 12 -16 24l-28 -74c-3.33301 -10 -10.333 -15.667 -21 -17c40 0.666992 76 18 108 52l1 2c-0.666992 0.666992 -1.33398 1 -2.00098 1c-7.33301 3.33301 -12.333 8.66602 -15 15.999zM349.001 508.003
l2.99805 5.99805c3.33301 10.667 11 16.334 23 17.001c-0.666992 2.66699 -0.666992 5.33398 0 8.00098c-19.333 6 -42.666 6.33301 -69.999 1c5.33301 -4 8.66602 -9.66699 9.99902 -17c6.66699 2.66699 13.334 2.66699 20.001 0s11.334 -7.66699 14.001 -15z" />
    <glyph glyph-name="h" unicode="h" horiz-adv-x="329" 
d="M54 569c5.33301 -38 9.00098 -85.0039 11.001 -141.004c0 -9.33301 0.333008 -27.666 1 -54.999s1.33398 -48.333 2.00098 -63c23.333 23.333 49.333 38 78 44c42 9.33301 76 -2.66699 102 -36c12.667 -15.333 22.667 -35.666 30 -60.999c10 -22 17.333 -47.333 22 -76
c9.33301 -56 9.66602 -122 0.999023 -198c-0.666992 -7.33301 -3.83398 -13.166 -9.50098 -17.499s-12.167 -6.16602 -19.5 -5.49902c-6.66699 0.666992 -12.334 3.66699 -17.001 9s-6.66699 11.333 -6 18c-12.667 6 -17.334 16 -14.001 30c4 20.667 6.66699 47.5 8 80.5
s-0.666992 68.833 -6 107.5c-2 12.667 -4.66699 24 -8 34c-14 30.667 -34.333 49 -61 55c-9.33301 1.33301 -18.333 -2 -27 -10c-10.667 -9.33301 -20.667 -24 -30 -44c-16.667 -36 -27 -72.667 -31 -110c-0.666992 -5.33301 -1 -11.666 -1 -18.999v-11v-10v-20v-7v-1v-2v-1
v-1v-1c-0.666992 -2.66699 -1.66699 -5.33398 -3 -8.00098c-2.66699 -5.33301 -7 -9.33301 -13 -12c2 -6 2.33301 -11.667 1 -17c-1.33301 -6.66699 -4.33301 -12.334 -9 -17.001c-6 -4.66699 -12.667 -7 -20 -7c-4.66699 0 -8.83398 1 -12.501 3s-6.16699 4.33301 -7.5 7
l-2 3c-1.33301 1.33301 -2.33301 3 -3 5c-0.666992 1.33301 -1 3 -1 5c-0.666992 2 -1 4.33301 -1 7c-1.33301 6 -2 13.333 -2 22c-2 23.333 -2.33301 47 -1 71c0.666992 4.66699 1 9.33398 1 14.001v5c0 8 0.666992 39.667 2 95c0.666992 52 0.666992 96.667 0 134
c-2 105.333 -9.33301 173.666 -22 204.999c-2.66699 6.66699 -2.66699 13.334 0 20.001s7.33398 11.334 14.001 14.001s13.334 2.66699 20.001 0s11.334 -7.33398 14.001 -14.001l1 -2c10.667 -2.66699 17 -9.66699 19 -21z" />
    <glyph glyph-name="i" unicode="i" horiz-adv-x="508" 
d="M159 227c-2 6 -5.66504 13.667 -10.998 23c-4 6 -5.16699 12.5 -3.5 19.5s5.66699 12.333 12 16s13 4.66699 20 3s12.167 -5.83398 15.5 -12.501c4 -5.33301 7 -10.666 9 -15.999c4.66699 -3.33301 7.66699 -8 9 -14c0 -3.33301 0.333008 -6.33301 1 -9
c4 -14 3 -27.333 -3 -40l-2 -4l-5 -12c-4.66699 -12.667 -7.33398 -22 -8.00098 -28c0 -1.33301 0.333008 -3 1 -5c4.66699 -12 7.66699 -20.667 9 -26c2 -15.333 2.66699 -37.666 2 -66.999l-1 -39c-8 0 -15.667 2 -23 6c-8.66699 0.666992 -15.167 3 -19.5 7
s-6.83301 7.66699 -7.5 11s-1 8.66602 -1 15.999v4c-6.66699 19.333 -11 44.333 -13 75v16v12c2 18 8 35 18 51c1.33301 4.66699 1.66602 9 0.999023 13zM87.002 685c18 40 37 75.333 57 106c-26 -30 -41.667 -53.667 -47 -71c-4.66699 -11.333 -8 -23 -10 -35zM283.002 689
l40.9971 27c30.667 19.333 56.667 32.333 78 39c35.333 12 60.333 7.33301 75 -14c8 -12 10.333 -26 7 -42c-2 -10.667 -7 -22.667 -15 -36c-11.333 -20.667 -30 -45.334 -56 -74.001c-17.333 -20 -39 -43 -65 -69l-43 -43c-14 -14.667 -30 -34 -48 -58l-47 -64
c-4.66699 -5.33301 -10.5 -8.5 -17.5 -9.5s-13.5 0.5 -19.5 4.5c-6 4.66699 -9.33301 11 -10 19c-1.33301 -1.33301 -2.66602 -2.33301 -3.99902 -3c-6.66699 -2.66699 -13.334 -2.83398 -20.001 -0.500977s-11.667 6.83301 -15 13.5l-25 51
c-12 24.667 -21 43.834 -27 57.501s-13.167 32.334 -21.5 56.001s-13.666 44.5 -15.999 62.5s-2.66602 38.833 -0.999023 62.5s6.16699 46.834 13.5 69.501c6 16 19 37.333 39 64c20 25.333 41 47.666 63 66.999c28.667 24.667 55 37.334 79 38.001
c34.667 1.33301 58.667 -18.334 72 -59.001c12.667 -39.333 8.33398 -89 -12.999 -149zM162.999 721c-19.333 -35.333 -38.668 -78.666 -58.001 -129.999c-2 -6 -5.66699 -10.333 -11 -13c2.66699 -10 6.33398 -20.667 11.001 -32c28 87.333 47.333 145.666 58 174.999z
M198.997 668c5.33301 0.666992 10.667 -0.331055 16 -2.99805c1.33301 -0.666992 2.33301 -1.33398 3 -2.00098c2 4.66699 5.33301 13.167 10 25.5s8 21.5 10 27.5c17.333 49.333 21.333 88 12 116c-0.666992 2.66699 -1.33398 5 -2.00098 7
c-1.33301 -3.33301 -3.66602 -6.33301 -6.99902 -9c-18 -18 -35 -39 -51 -63c6 1.33301 11.667 1 17 -1c6.66699 -2 11.5 -6.33301 14.5 -13s3.16699 -13.334 0.5 -20.001zM165.998 426.002c-2 -0.666992 -3.66895 -1.33398 -5.00195 -2.00098l11 -23
c0.666992 -2 1.33398 -4.33301 2.00098 -7l8 11c-1.33301 0.666992 -2.33301 1 -3 1c-7.33301 4.66699 -11.666 11.334 -12.999 20.001zM242.996 530.002c0 5.33301 1.00098 9.99902 3.00098 13.999l48 88l-41 -32c-2.66699 -8.66699 -4.33398 -17 -5.00098 -25
c-1.33301 -10 -6.33301 -17 -15 -21l-13 -26c7.33301 4.66699 15 5.33398 23 2.00098z" />
    <glyph glyph-name="j" unicode="j" horiz-adv-x="292" 
d="M145 626c-6 -0.666992 -11.6689 -1.33594 -17.002 -2.00293h-7c-12.667 -3.33301 -21.667 -5.33301 -27 -6c-6.66699 -2 -13 -1 -19 3s-9.83301 9.5 -11.5 16.5s-0.5 13.5 3.5 19.5s9.66699 9.66699 17 11c5.33301 1.33301 17 4.66602 35 9.99902s32 9.33301 42 12
c18.667 4.66699 34.334 7.66699 47.001 9c18.667 2.66699 33.334 1.66699 44.001 -3c2.66699 -1.33301 4.66699 -2.66602 6 -3.99902c6 -4 9.66699 -9.33301 11 -16c2 -10 -0.666992 -18.333 -8 -25c-2.66699 -2 -5.66699 -3.66699 -9 -5s-8 -2.33301 -14 -3
c-2.66699 -0.666992 -5.33398 -1.16699 -8.00098 -1.5s-4.66699 -0.5 -6 -0.5h-3c-9.33301 -2.66699 -17.333 -4.66699 -24 -6v-4v-1c0 -19.333 2.33301 -61.333 7 -126c6 -81.333 10 -141 12 -179c2 -35.333 3 -66.333 3 -93l1 -4c10 -74 7 -129.667 -9 -167
c-27.333 -60.667 -80 -93.667 -158 -99c-7.33301 -0.666992 -13.666 1.5 -18.999 6.5s-8.33301 10.833 -9 17.5v6c-4 1.33301 -8 3 -12 5c-6.66699 2.66699 -11.334 7.33398 -14.001 14.001s-2.66699 13.334 0 20.001s7.33398 11.334 14.001 14.001s13.334 2.66699 20.001 0
c22 -10 43.5 -14 64.5 -12s37.167 10.667 48.5 26c10 14 16.667 45.667 20 95c1.33301 22 1.66602 47 0.999023 75c-0.666992 5.33301 -4.66699 30.333 -12 75c-6 34 -9.33301 60 -10 78c-1.33301 24 -2 49 -2 75s0.333008 57.167 1 93.5s1 61.5 1 75.5z" />
    <glyph glyph-name="k" unicode="k" horiz-adv-x="434" 
d="M132 633c14.667 -87.333 18.334 -203.67 11.001 -349.003c12.667 10.667 38.667 37.334 78 80.001c43.333 46.667 80.333 79.334 111 98.001c1.33301 0.666992 4 2.66699 8 6l13 10c7.33301 5.33301 14.333 8.33301 21 9c16 2.66699 27.667 -3.33301 35 -18
c5.33301 -12.667 3.66602 -24.667 -5.00098 -36c-4 -4.66699 -9.66699 -9.33398 -17 -14.001l-10 -5c-2.66699 -1.33301 -4.5 -2.16602 -5.5 -2.49902s-2.16699 -0.833008 -3.5 -1.5l-179 -167c49.333 -12 95.333 -30.667 138 -56c6 -3.33301 10 -8.5 12 -15.5
s1.16699 -13.5 -2.5 -19.5s-9 -10 -16 -12s-13.5 -1 -19.5 3c-47.333 27.333 -99 46 -155 56c-0.666992 0.666992 -2.33398 0.666992 -5.00098 0l-3 -2c-5.33301 -87.333 -8 -153.333 -8 -198c0 -7.33301 -2.5 -13.5 -7.5 -18.5s-11.167 -7.5 -18.5 -7.5
s-13.5 2.5 -18.5 7.5s-7.5 11.167 -7.5 18.5c0 48.667 2.66699 117.334 8 206.001c0 3.33301 0.333008 6.33301 1 9v8c-2 5.33301 -2.33301 10.666 -1 15.999c0.666992 2.66699 1.66699 5.33398 3 8.00098c4.66699 58 6.83398 121.5 6.50098 190.5s-5.5 131.833 -15.5 188.5
c-0.666992 6.66699 1 13 5 19s9.5 9.5 16.5 10.5s13.5 -0.5 19.5 -4.5s9.66699 -9.66699 11 -17z" />
    <glyph glyph-name="l" unicode="l" horiz-adv-x="254" 
d="M-5 -4c-5.33301 -2.66699 -11.1689 -3.33203 -17.502 -1.99902s-11.5 4.66602 -15.5 9.99902s-5.5 11.666 -4.5 18.999s4.5 13 10.5 17c27.333 20 52.333 49.667 75 89c-28 99.333 -32 210.666 -12 333.999c2 24 4.66699 47.333 8 70c6 32.667 18.333 68.667 37 108
c2 5.33301 4 10 6 14l6 10c12.667 22 26.334 38.333 41.001 49c25.333 18.667 50.333 20 75 4c14 -8.66699 22.667 -24.667 26 -48c2 -14.667 2 -32.667 0 -54c-1.33301 -21.333 -5.33301 -51 -12 -89l-10 -50v-3c-2.66699 -45.333 -12.167 -97.833 -28.5 -157.5
s-37.166 -116.167 -62.499 -169.5c12.667 -50 28.667 -100.667 48 -152c2 -2.66699 3.33301 -5.33398 4 -8.00098l3 -9c2.66699 -7.33301 2.66699 -14.166 0 -20.499s-7.5 -10.833 -14.5 -13.5s-13.667 -2.66699 -20 0s-10.833 7.33398 -13.5 14.001l-5 13
c-20 27.333 -37 57 -51 89c-15.333 -22.667 -31 -41.667 -47 -57c-7.33301 -7.33301 -16 -9.66602 -26 -6.99902zM95.9971 246.002l5 15.998c20 58.667 38.333 132.334 55 221.001c2.66699 41.333 2.66699 75.666 0 102.999c-2 23.333 -5.66699 40.333 -11 51
c-2.66699 4.66699 -4.66699 7.33398 -6 8.00098c-2 -1.33301 -4.33301 -4 -7 -8l-3 -6c-2 -3.33301 -4 -7 -6 -11c-5.33301 -11.333 -10.333 -25.666 -15 -42.999c-6.66699 -23.333 -14 -58.333 -22 -105c-1.33301 -4.66699 -2.33301 -9.66699 -3 -15
c-4 -66 0.333008 -136.333 13 -211zM138.997 645h-1h1z" />
    <glyph glyph-name="m" unicode="m" horiz-adv-x="566" 
d="M333 205v-13.9951v-35v-12c-0.666992 -2.66699 -1 -4.66699 -1 -6s-0.333008 -3 -1 -5c-0.666992 -2.66699 -1.66699 -5 -3 -7c-2.66699 -2.66699 -5.66699 -5 -9 -7l1 -3c0 -1.33301 0.333008 -2.66602 1 -3.99902v-2c0.666992 -0.666992 1 -1.33398 1 -2.00098v-4
c0 -4 -1 -8 -3 -12c-2.66699 -6 -7.33398 -10 -14.001 -12c-6 -2.66699 -12 -2.66699 -18 0c-4 1.33301 -7.33301 3.33301 -10 6c-1.33301 1.33301 -2.33301 2.66602 -3 3.99902c0 0.666992 -0.333008 1.66699 -1 3l-1 1c-0.666992 0.666992 -1.33398 1.66699 -2.00098 3
c-15.333 23.333 -22.333 57.666 -21 102.999c0.666992 15.333 2.33398 31 5.00098 47c-1.33301 18 -3.33301 34 -6 48c-8.66699 42.667 -23 72.334 -43 89.001c-17.333 4.66699 -35.666 5.66699 -54.999 3c-39.333 -4.66699 -68.666 -18.667 -87.999 -42v-1
c1.33301 -20 2.66602 -42.333 3.99902 -67l8 -75c7.33301 -77.333 11 -144 11 -200c0 -7.33301 -2.5 -13.5 -7.5 -18.5s-11.167 -7.5 -18.5 -7.5s-13.5 2.5 -18.5 7.5s-7.5 11.167 -7.5 18.5v16c-5.33301 4.66699 -8.33301 10.667 -9 18c-2 22.667 -4.66699 84.667 -8 186
c-0.666992 20 -1.33398 37 -2.00098 51c-6 56 -10 96.667 -12 122v7v1c-0.666992 7.33301 1 13.833 5 19.5s9.66699 9.16699 17 10.5c8.66699 1.33301 16 -1 22 -7c62.667 26.667 114.334 33 155.001 19c10 -4 19.333 -8.66699 28 -14
c18.667 -6.66699 34.667 -16.334 48 -29.001c8 -7.33301 15.333 -15.333 22 -24c11.333 19.333 23.666 35.666 36.999 48.999c32.667 31.333 68 41.333 106 30c24.667 -7.33301 45.334 -25.333 62.001 -54c12.667 -22 22.334 -49.667 29.001 -83
c12.667 -59.333 15.334 -112 8.00098 -158c-4.66699 -28.667 -14 -59.334 -28 -92.001c-1.33301 -5.33301 -9.33301 -26 -24 -62c-4.66699 -12 -13.667 -17.333 -27 -16c-5.33301 -0.666992 -10.666 0.333008 -15.999 3c-6 4 -10 9.5 -12 16.5s-1.33301 13.5 2 19.5
c11.333 18.667 21 37.667 29 57c9.33301 26 14.666 49 15.999 69c1.33301 13.333 0.166016 35.333 -3.50098 66s-9.5 59.667 -17.5 87c-8.66699 32 -19 55 -31 69c-8.66699 10.667 -17.667 14 -27 10c-16 -6.66699 -29.333 -22 -40 -46
c-10.667 -22 -18.334 -50.333 -23.001 -85c-2.66699 -16.667 -4.66699 -34.334 -6 -53.001z" />
    <glyph glyph-name="n" unicode="n" horiz-adv-x="503" 
d="M124 244c0 -16 -0.34082 -33.9961 -1.00781 -53.9961c-3.33301 -100 -5 -153.667 -5 -161c0 -4.66699 -1 -8.66699 -3 -12c-0.666992 -6.66699 -3.5 -12.334 -8.5 -17.001s-10.833 -7 -17.5 -7c-7.33301 0 -13.5 2.5 -18.5 7.5s-7.5 11.167 -7.5 18.5
c0 25.333 1 61.5 3 108.5s3 88.833 3 125.5s-2.66699 71 -8 103c-0.666992 7.33301 1 13.833 5 19.5s9.66699 9.16699 17 10.5c10.667 1.33301 19 -2.33398 25 -11.001c8.66699 -4.66699 13.334 -11.667 14.001 -21c16.667 22 37.334 42.167 62.001 60.5
s50.334 32.5 77.001 42.5c40.667 15.333 77.334 18.333 110.001 9c39.333 -11.333 68.333 -38.333 87 -81c8 -18 13.667 -38.333 17 -61s5.33301 -42.167 6 -58.5s-1 -38.333 -5 -66s-7 -46.667 -9 -57s-6.66699 -31 -14 -62s-11.666 -48.167 -12.999 -51.5
c-1.33301 -6.66699 -5 -12 -11 -16s-12.667 -5 -20 -3c-7.33301 1.33301 -13 5.66602 -17 12.999c-11.333 6 -15.666 15.333 -12.999 28c0.666992 5.33301 6.66699 32 18 80c8.66699 35.333 14 62 16 80c7.33301 58.667 0.333008 106.667 -21 144
c-14 25.333 -33 40.333 -57 45c-22 4 -46.667 -0.333008 -74 -13s-52.166 -31 -74.499 -55s-37.166 -47.667 -44.499 -71c-3.33301 -8.66699 -9.33301 -14.334 -18 -17.001z" />
    <glyph glyph-name="o" unicode="o" horiz-adv-x="509" 
d="M46 335c14 36.667 31.667 77.6689 53 123.002c-12.667 -0.666992 -23.667 -4.33398 -33 -11.001c-14 -10 -21.667 -30.667 -23 -62c-0.666992 -16.667 0.333008 -33.334 3 -50.001zM85 232.002c7.33301 18.667 21 49.665 41 92.998c20.667 45.333 36 80.333 46 105
c0 0.666992 0.333008 1.33398 1 2.00098l-6 4c-5.33301 4 -11 7.33301 -17 10c-33.333 -73.333 -59.333 -136.666 -78 -189.999c4 -8 8.33301 -16 13 -24zM132 163c18.667 48 46.333 112.667 83 194c2.66699 4.66699 6 8.33398 10 11.001c-3.33301 8 -7.66602 16 -12.999 24
c-8.66699 -22.667 -21.334 -52.334 -38.001 -89.001c-27.333 -60 -43 -95 -47 -105c-2 -6 -6 -10.333 -12 -13zM271.999 390c41.333 29.333 83.3301 44 125.997 44c34 -0.666992 58.667 -12.334 74 -35.001c16.667 -24.667 18.667 -58.334 6 -101.001
c-14 -48 -45.667 -100 -95 -156c-10.667 -12.667 -31 -34.667 -61 -66l-56 -62c-4.66699 -6 -10.5 -9.33301 -17.5 -10s-13.167 1.33301 -18.5 6c-3.33301 2 -5.66602 4.66699 -6.99902 8c-12 -7.33301 -22.667 -6 -32 4c-23.333 22.667 -42.666 42.167 -57.999 58.5
s-33.166 37.833 -53.499 64.5s-36.5 51.667 -48.5 75s-22 49.833 -30 79.5s-11.333 58.834 -10 87.501c2.66699 48 17.667 82 45 102c16 12 34 18.833 54 20.5s38.667 -0.166016 56 -5.49902c17.333 -6 34 -14.333 50 -25c36.667 -24 62 -53.667 76 -89zM253.996 317
c-34 -75.333 -60.334 -136.999 -79.001 -184.999c-1.33301 -4.66699 -4 -8.33398 -8 -11.001l6 -6c10.667 28 26.334 63.667 47.001 107l47 97c-3.33301 -1.33301 -7 -2 -11 -2h-2zM391.995 308.001l5.99805 -1.99805c6 -4 10 -9.5 12 -16.5s1.33301 -13.5 -2 -19.5l-35 -59
c27.333 36 45.666 69.667 54.999 101c8 28 8.33301 47.333 1 58c-5.33301 8 -15.666 12 -30.999 12c-3.33301 0 -7 -0.333008 -11 -1c2.66699 0 5.33398 -0.666992 8.00098 -2c6.66699 -2.66699 11.334 -7.33398 14.001 -14.001s2.66699 -13.334 0 -20.001zM301.993 143.003
l-14 -27.001l22 22c-1.33301 0.666992 -2.33301 1.33398 -3 2.00098c-2 0.666992 -3.66699 1.66699 -5 3zM319.993 311.002c-6 -13.333 -23.6689 -50.3359 -53.002 -111.003c-21.333 -44.667 -37 -81.334 -47 -110.001c-2 -5.33301 -5.66699 -9.66602 -11 -12.999l18 -19
c2 -1.33301 3.33301 -3 4 -5c11.333 13.333 26 29.333 44 48c-7.33301 -3.33301 -14.666 -3 -21.999 1c-6.66699 2.66699 -11.167 7.33398 -13.5 14.001s-1.83301 13.334 1.5 20.001c10.667 22.667 31.334 61.334 62.001 116.001c27.333 48 46.666 85.667 57.999 113
c2.66699 6.66699 7.33398 11.334 14.001 14.001c-26.667 -5.33301 -51.334 -16 -74.001 -32c2 -0.666992 3.66699 -1.33398 5 -2.00098c6.66699 -3.33301 11.334 -8.33301 14.001 -15s2.66699 -13 0 -19z" />
    <glyph glyph-name="p" unicode="p" horiz-adv-x="457" 
d="M208 620c54.667 10 101.997 1.33301 141.997 -26c49.333 -33.333 77 -86.666 83 -159.999c5.33301 -63.333 -6 -114.333 -34 -153c-22 -30 -58 -58.333 -108 -85c-49.333 -26 -111.666 -44.333 -186.999 -55c-4 -64.667 -6.66699 -117.667 -8 -159
c0 -7.33301 -2.66699 -13.333 -8 -18s-11.666 -7 -18.999 -7s-13.333 2.66699 -18 8s-7 11.666 -7 18.999c0.666992 20.667 6 113.667 16 279c2 37.333 3.33301 63 4 77c-3.33301 0 -6.66602 1 -9.99902 3c-6.66699 2.66699 -11.167 7.5 -13.5 14.5s-1.83301 13.5 1.5 19.5
c6.66699 15.333 15 31.333 25 48c1.33301 40.667 1.33301 79 0 115c0 7.33301 2.33301 13.666 7 18.999s10.667 8 18 8h3c15.333 16.667 40.333 31 75 43l8 2c8 10.667 18 13.334 30 8.00098zM373.997 344l-52.001 -68c14.667 11.333 26.334 23 35.001 35
c7.33301 10 13 21 17 33zM247.996 572c-11.333 0 -22.668 -1.33203 -34.001 -3.99902c-12.667 -25.333 -32.667 -59.333 -60 -102l-35 -56l-2 -54c8.66699 14 27.334 46.667 56.001 98s53.667 90.666 75 117.999zM134.994 533.001
c-3.33301 -3.33301 -6.33301 -7.33301 -9 -12c-2 -2.66699 -4 -5 -6 -7v-5zM364.994 401.001c6 0 10.999 -1.66504 14.999 -4.99805l2 -2c0.666992 10.667 0.333984 22.667 -0.999023 36v5c-0.666992 -0.666992 -1 -1.33398 -1 -2.00098c-4 -10.667 -9 -21.334 -15 -32.001z
M335.993 474.003c-16.667 -26 -43 -63.0029 -79 -111.003l-44 -61c0.666992 -7.33301 -1.66602 -13.666 -6.99902 -18.999c-20.667 -24 -38.667 -51 -54 -81c23.333 5.33301 44.666 11.333 63.999 18c-4 0.666992 -8 2.33398 -12 5.00098
c-5.33301 4.66699 -8.5 10.5 -9.5 17.5s0.5 13.5 4.5 19.5l38 46l38.5 49c9 12 19 26.833 30 44.5s19.833 34.834 26.5 51.501c2.66699 6.66699 7.16699 11.334 13.5 14.001s13.166 2.66699 20.499 0c4.66699 -2 8.33398 -5 11.001 -9
c-8.66699 42.667 -27.667 73.667 -57 93c-7.33301 5.33301 -15.666 9.66602 -24.999 12.999c2 -8 0.333008 -15.333 -5 -22c-18 -23.333 -41.667 -61 -71 -113c-34.667 -61.333 -58.334 -101.666 -71.001 -120.999c-4 -6 -9.16699 -9.83301 -15.5 -11.5
s-12.5 -0.833984 -18.5 2.49902l-2 -39l-1 -25c7.33301 14.667 15 28 23 40c0.666992 2.66699 1.66699 5 3 7c18 26.667 44.333 63.667 79 111c34.667 48 60 84.333 76 109c4 6 9.5 9.83301 16.5 11.5s13.5 0.5 19.5 -3.5s9.83301 -9.5 11.5 -16.5s0.5 -13.5 -3.5 -19.5z
" />
    <glyph glyph-name="q" unicode="q" horiz-adv-x="535" 
d="M57 333c0 0.666992 3.00098 21.666 9.00098 62.999c5.33301 36.667 9 66.334 11 89.001c-28.667 -57.333 -35.334 -108 -20.001 -152zM268.001 -75.001c-0.666992 3.33301 -1.00195 6.66602 -1.00195 9.99902c2.66699 36 4.33398 57 5.00098 63
c-6 -6.66699 -11 -12.667 -15 -18c-13.333 -15.333 -21.666 -27.666 -24.999 -36.999c-2 -5.33301 -2 -9.33301 0 -12c7.33301 -7.33301 19.333 -9.33301 36 -6zM440.999 92.999l0.000976562 -3.00098c0 -17.333 -0.666992 -33.666 -2 -48.999
c7.33301 8 12.333 14.333 15 19c7.33301 12 8.66602 20.667 3.99902 26c-3.33301 4 -9 6.33301 -17 7zM343 52.998l-2 -2c-7.33301 -4 -15 -4.33301 -23 -1l-1 -2c12 -6.66699 16 -16.667 12 -30c-4 -15.333 -7 -39.333 -9 -72l12 7c-4 6 -5 12.667 -3 20
c7.33301 27.333 12 54 14 80zM276 80.998h1h-1zM273 75.998l-2.99609 10.0039l-16 47l-24 69c-44 -10.667 -88 -5.33398 -132 15.999c-12 5.33301 -23 11.666 -33 18.999c-4.66699 2 -8.33398 5 -11.001 9c-27.333 23.333 -44.5 53.166 -51.5 89.499s-6 72 3 107
s23.833 68.833 44.5 101.5c17.333 27.333 37.833 52 61.5 74s49.5 40 77.5 54s58.167 21 90.5 21s63.166 -8.66699 92.499 -26c36 -16.667 60.667 -44.667 74 -84c18.667 -54.667 13 -118 -17 -190c-15.333 -36 -36 -69.5 -62 -100.5s-55.333 -54.833 -88 -71.5l24 -72
l16 -47l1 -3c2 1.33301 7 4.5 15 9.5s14.5 8.66699 19.5 11s11.167 5.5 18.5 9.5s14.666 7.16699 21.999 9.5s14.666 4.16602 21.999 5.49902c34.667 6 61.334 -2 80.001 -24c21.333 -24.667 21.666 -54 0.999023 -88c-8.66699 -14 -25 -32.167 -49 -54.5
s-49.333 -42.5 -76 -60.5c-33.333 -21.333 -63 -35 -89 -41c-37.333 -9.33301 -66.666 -3 -87.999 19c-18 17.333 -22.333 39.333 -13 66c5.33301 15.333 16.666 33 33.999 53l40 44zM360.004 582.002c7.33301 5.33301 15.333 6.66797 24 4.00098l6 -4
c-6.66699 13.333 -16 23.666 -28 30.999c3.33301 -6 4 -12.333 2 -19zM398.004 548.004c1.33301 -0.666992 2.66797 -1 4.00098 -1c-0.666992 2 -1.33398 4.33301 -2.00098 7v-2zM130.006 524.004c0 -34 -4.00098 -78.9971 -12.001 -134.997
c-9.33301 -67.333 -14.666 -105.333 -15.999 -114l6 -4c-2.66699 5.33301 -3.66699 11 -3 17c4 18.667 9.5 50.167 16.5 94.5s14 84.166 21 119.499s15.833 67.666 26.5 96.999c-19.333 -14.667 -37 -32 -53 -52c9.33301 -4.66699 14 -12.334 14 -23.001zM291.005 601.007
c-7.33301 -18.667 -13.667 -45.666 -19 -80.999c-7.33301 -47.333 -12.666 -78 -15.999 -92l-11 -40l-11 -41c-3.33301 -10.667 -6.66602 -23.334 -9.99902 -38.001s-6 -28.667 -8 -42c-1.33301 -6.66699 -4.33301 -12 -9 -16c35.333 6 68.666 23.667 99.999 53
c-0.666992 0 -1.66699 0.333008 -3 1c-6 1.33301 -10.833 4.5 -14.5 9.5s-5.5 10.5 -5.5 16.5c-2.66699 -6 -6.83398 -10.5 -12.501 -13.5s-11.834 -3.5 -18.501 -1.5s-11.834 6 -15.501 12s-4.5 12.667 -2.5 20c8 30 34.333 117.333 79 262
c2.66699 8.66699 8.33398 14.334 17.001 17.001c-11.333 2.66699 -24 4 -38 4c-8 0 -14.667 3 -20 9c-20 -0.666992 -40 -5.66699 -60 -15c10.667 -7.33301 13.667 -17.333 9 -30c-10.667 -29.333 -19.667 -60.666 -27 -93.999c-7.33301 -34 -14.5 -74.333 -21.5 -121
s-12.5 -80.667 -16.5 -102c-2.66699 -11.333 -9.33398 -18 -20.001 -20c12.667 -4.66699 25.334 -7.33398 38.001 -8.00098c-8.66699 6 -12.334 14.333 -11.001 25c4 21.333 18 77 42 167c3.33301 13.333 8.33301 42 15 86c5.33301 39.333 12.666 70.333 21.999 93
c2.66699 6.66699 7.33398 11.334 14.001 14.001s13.334 2.66699 20.001 0s11.334 -7.33398 14.001 -14.001s2.66699 -13.334 0 -20.001z" />
    <glyph glyph-name="r" unicode="r" horiz-adv-x="320" 
d="M63 13l-0.000976562 1.99902c-0.666992 -2.66699 -1.33398 -5 -2.00098 -7c-1.33301 4 -2.33301 8.66699 -3 14c-1.33301 8 -2.33301 17.333 -3 28v43c0.666992 61.333 6 111.666 16 150.999c0 40 -1.33301 76 -4 108c-0.666992 6.66699 1.33301 12.834 6 18.501
s10.5 8.83398 17.5 9.50098s13.333 -1.33301 19 -6s8.83398 -10.667 9.50098 -18c0 -3.33301 0.333008 -6.66602 1 -9.99902c34.667 42.667 84 67.334 148 74.001c7.33301 0.666992 13.833 -1.33301 19.5 -6s8.83398 -10.5 9.50098 -17.5s-1.33301 -13.333 -6 -19
s-10.334 -8.83398 -17.001 -9.50098c-65.333 -6.66699 -110.666 -36.667 -135.999 -90c-6 -12 -11 -25.667 -15 -41c0 -16 -1.33301 -58.333 -4 -127l-3 -77l-1 -18v-4l3 15c0.666992 -14.667 -3.33301 -27.334 -12 -38.001c-9.33301 -11.333 -21 -9.66602 -35 5.00098
c-4 3.33301 -7 7.66602 -9 12.999c0.666992 2 1 4.33301 1 7zM61.999 5.99902c0 0.666992 -0.333984 1.33203 -1.00098 1.99902c-1.33301 -7.33301 -1.66602 -11.666 -0.999023 -12.999z" />
    <glyph glyph-name="s" unicode="s" horiz-adv-x="374" 
d="M298 450c18.667 -18 32.3389 -29.668 41.0059 -35.001c6 -4 9.83301 -9.5 11.5 -16.5s0.5 -13.5 -3.5 -19.5s-9.5 -9.83301 -16.5 -11.5s-13.5 -0.5 -19.5 3.5s-11.667 8.33301 -17 13c-12 0 -20.333 5 -25 15c-2 5.33301 -5 10.666 -9 15.999h-1c-8 8 -15 14.333 -21 19
c-18 11.333 -39 18.666 -63 21.999c-38 4.66699 -65 -2.33301 -81 -21c-10 -16.667 -11.667 -38.667 -5 -66c3.33301 -13.333 14 -34.333 32 -63c32 -52.667 49 -81 51 -85c42.667 -77.333 48.667 -137.666 18 -180.999c-10.667 -24 -31 -43.333 -61 -58
c-6.66699 -3.33301 -13.334 -3.83301 -20.001 -1.5s-11.667 6.5 -15 12.5c-0.666992 1.33301 -1.33398 2.33301 -2.00098 3c-3.33301 6 -4.5 12.333 -3.5 19s4.16699 12.334 9.5 17.001l19 12l16 11.5c4 3 7.66699 6.5 11 10.5h1c2 6.66699 2.66699 14.334 2 23.001
c-0.666992 22.667 -13.334 56.667 -38.001 102l-15 29l-18 33l-16 30c-6 12 -10.667 23 -14 33c-20.667 52.667 -22 97 -4 133c2.66699 6 5.66699 11.333 9 16c9.33301 14 21.666 25.333 36.999 34c21.333 12 45.166 17.5 71.499 16.5s52.166 -7.83301 77.499 -20.5
c10.667 -4.66699 21 -11 31 -19c11.333 -7.33301 21.333 -16 30 -26z" />
    <glyph glyph-name="t" unicode="t" horiz-adv-x="342" 
d="M118 409c-26.667 -1.33301 -49.999 -2 -69.999 -2c-7.33301 0 -13.5 2.5 -18.5 7.5s-7.5 11.167 -7.5 18.5s2.5 13.5 7.5 18.5s11.167 7.5 18.5 7.5c20 0 42.667 0.666992 68 2c-2.66699 58.667 -7.33398 124 -14.001 196c-0.666992 7.33301 1.33301 13.833 6 19.5
s10.5 8.83398 17.5 9.50098s13.333 -1.33301 19 -6s8.83398 -10.334 9.50098 -17.001c6 -61.333 10.667 -127.333 14 -198c58.667 4.66699 100 7.33398 124 8.00098c7.33301 0 13.666 -2.5 18.999 -7.5s8 -11 8 -18s-2.5 -13.167 -7.5 -18.5s-10.833 -8 -17.5 -8
c-23.333 -0.666992 -64 -3.33398 -122 -8.00098h-2c1.33301 -54 2 -189.333 2 -406c0 -7.33301 -2.5 -13.5 -7.5 -18.5s-11.167 -7.5 -18.5 -7.5s-13.5 2.5 -18.5 7.5s-7.5 11.167 -7.5 18.5c0 215.333 -0.666992 349.333 -2 402z" />
    <glyph glyph-name="u" unicode="u" horiz-adv-x="477" 
d="M97 358c0.666992 -9.33301 -0.337891 -39.3281 -3.00488 -89.9951c-2 -41.333 -2 -73.333 0 -96c4.66699 -55.333 24.334 -90 59.001 -104c3.33301 -0.666992 7 -1 11 -1c38 0 73.833 12 107.5 36s59.834 54.667 78.501 92c10.667 21.333 22.334 53.666 35.001 96.999v2
c0 0.666992 0.166992 2.16699 0.5 4.5s0.833008 5.16602 1.5 8.49902c0.666992 6.66699 2.33398 12 5.00098 16c1.33301 2.66699 3.33301 5 6 7v3c0.666992 2.66699 1.66699 5 3 7c2 5.33301 5.33301 9.33301 10 12c6.66699 4 14 5 22 3c5.33301 -2 9.66602 -5 12.999 -9
c4.66699 -6.66699 7.33398 -16.667 8.00098 -30c0.666992 -8 0.666992 -19 0 -33v-19v-1c0 -20.667 -2 -49.334 -6 -86.001c-3.33301 -29.333 -7 -59.333 -11 -90c-2 -20.667 -3.33301 -34 -4 -40c-0.666992 -4 -1.66699 -7.66699 -3 -11
c-0.666992 -2.66699 -1 -4.66699 -1 -6c-1.33301 -7.33301 -4.83301 -13.166 -10.5 -17.499s-12 -6 -19 -5s-12.667 4.33301 -17 10s-6.16602 11.834 -5.49902 18.501c0.666992 3.33301 1.33398 7.66602 2.00098 12.999s1.66699 12.5 3 21.5s2.33301 16.5 3 22.5l2 16
c-33.333 -49.333 -74.333 -81.333 -123 -96c-12 -3.33301 -28.833 -5.33301 -50.5 -6s-38.5 0.666016 -50.5 3.99902c-8.66699 1.33301 -16.667 3.33301 -24 6c-30 5.33301 -53.667 20 -71 44c-16 23.333 -26 55.666 -30 96.999
c-2.66699 27.333 -2.33398 62.666 0.999023 105.999c3.33301 50.667 5 79 5 85c0 2.66699 0.333008 5 1 7c0 7.33301 2.33301 13.5 7 18.5s10.5 7.83301 17.5 8.5s13.167 -1.5 18.5 -6.5s8.33301 -11.167 9 -18.5z" />
    <glyph glyph-name="v" unicode="v" horiz-adv-x="419" 
d="M27 406c0.666992 10.667 5.99902 18.0049 15.999 22.0049c6.66699 2.66699 13.334 2.66699 20.001 0s11.334 -7.33398 14.001 -14.001l12 -29c34 -54.667 68 -126.334 102 -215.001c1.33301 -3.33301 3 -7 5 -11l3 -8c28 72 70.667 148.333 128 229
c3.33301 4.66699 7.66602 8 12.999 10l8 12c4 6 9.5 9.83301 16.5 11.5s13.5 0.5 19.5 -3.5s9.83301 -9.5 11.5 -16.5s0.5 -13.5 -3.5 -19.5c-55.333 -85.333 -96.666 -168.666 -123.999 -249.999c-0.666992 -1.33301 -5.66699 -18.666 -15 -51.999l-9 -32
c-1.33301 -4.66699 -2.66602 -8.33398 -3.99902 -11.001l-2 -5c0 -0.666992 -0.333008 -1.33398 -1 -2.00098l-2 -4c-2.66699 -4.66699 -7.33398 -8 -14.001 -10c-5.33301 -1.33301 -9.83301 -1.33301 -13.5 0s-6.66699 2.66602 -9 3.99902s-3.5 2.33301 -3.5 3
c-1.33301 1.33301 -2.66602 3 -3.99902 5s-2.33301 4 -3 6c-1.33301 3.33301 -3.33301 7.66602 -6 12.999l-4 14c-0.666992 0 -1 0.333008 -1 1c-2 1.33301 -3.33301 3 -4 5c-1.33301 1.33301 -2.33301 3 -3 5s-1.33398 4.66699 -2.00098 8l-7 23
c-7.33301 22.667 -12 37.667 -14 45c-11.333 27.333 -30 67.666 -56 120.999c-22 44 -38 77 -48 99l-14 21c-4.66699 8 -5.33398 16.333 -2.00098 25z" />
    <glyph glyph-name="w" unicode="w" horiz-adv-x="545" 
d="M58 521c1.33301 -17.333 3.33008 -52.333 5.99707 -105l5 -127c3.33301 -51.333 7.33301 -93.333 12 -126c4.66699 -38 10.334 -63.667 17.001 -77c6 -12.667 14.5 -22.667 25.5 -30s21.833 -11 32.5 -11c11.333 0 20.333 2.33301 27 7
c5.33301 10.667 9.33301 24.667 12 42c2 10.667 4 26.667 6 48v7c0 6 0.666992 11 2 15c0.666992 4 2 7.33301 4 10c4.66699 9.33301 12 14.333 22 15c14.667 0.666992 25.334 -6 32.001 -20c2 -5.33301 3.66699 -12.333 5 -21c0.666992 -3.33301 1.66699 -9.33301 3 -18
c2.66699 -12 5.66699 -23.333 9 -34c12 -36 25.667 -58.667 41 -68c22 -8 41.333 -4.66699 58 10l3 2c17.333 18.667 33 49 47 91c10.667 32.667 20.334 72 29.001 118c5.33301 38 8 70.333 8 97c0 7.33301 2.5 13.5 7.5 18.5s11.167 7.5 18.5 7.5
c10.667 0 18.334 -5 23.001 -15c7.33301 -6 10.333 -13.667 9 -23c-7.33301 -47.333 -12.333 -78.666 -15 -93.999c-7.33301 -49.333 -17.333 -92.666 -30 -129.999c-16.667 -48 -37 -83.333 -61 -106c-31.333 -32.667 -67 -42.334 -107 -29.001c-4 1.33301 -8 3 -12 5
c-2 1.33301 -4.33301 2.33301 -7 3c-22.667 10.667 -40 28.667 -52 54l-4 -6c-3.33301 -4.66699 -7 -9 -11 -13c-12.667 -21.333 -30 -34.333 -52 -39c-26.667 -6 -52.667 0 -78 18c-21.333 15.333 -37 34.666 -47 57.999c-20 46.667 -33 125 -39 235
c-0.666992 20.667 -2 59.5 -4 116.5s-4 97.167 -6 120.5c-0.666992 6.66699 1.33301 12.834 6 18.501s10.667 8.83398 18 9.50098c11.333 1.33301 19.666 -3.33398 24.999 -14.001c7.33301 -4.66699 11.333 -11.334 12 -20.001z" />
    <glyph glyph-name="x" unicode="x" horiz-adv-x="399" 
d="M261 150c19.333 -21.333 39.667 -47.002 61 -77.002c4 -4.66699 5.66699 -10.334 5 -17.001l5 -7c4 -6 5.16699 -12.5 3.5 -19.5s-5.5 -12.5 -11.5 -16.5s-12.5 -5.16699 -19.5 -3.5s-12.5 5.5 -16.5 11.5c-26 39.333 -49 70.666 -69 93.999
c-38.667 -36 -66.667 -70.333 -84 -103c-4 -8 -10.333 -12.667 -19 -14c-8.66699 -10 -19.334 -12 -32.001 -6c-6 3.33301 -10.167 8.33301 -12.5 15s-1.83301 13.334 1.5 20.001c23.333 46.667 56.333 92.667 99 138c-32 28 -65.333 49 -100 63
c-6.66699 2.66699 -11.334 7.33398 -14.001 14.001s-2.66699 13.334 0 20.001s7.33398 11.334 14.001 14.001s13.334 2.66699 20.001 0l10 -4c2 -0.666992 3.66699 -1.33398 5 -2.00098c33.333 -11.333 67.666 -34 102.999 -68c20.667 19.333 45.334 41 74.001 65
c6 4.66699 12.5 6.66699 19.5 6s12.833 -3.66699 17.5 -9c0.666992 -1.33301 1.66699 -2.66602 3 -3.99902l12 8c6 4 12.5 5.16699 19.5 3.5s12.5 -5.5 16.5 -11.5s5.16699 -12.5 3.5 -19.5s-5.5 -12.5 -11.5 -16.5c-38 -24 -72.333 -48.667 -103 -74z" />
    <glyph glyph-name="y" unicode="y" 
d="M97 471c0.666992 -5.33301 2.33398 -34.6699 5.00098 -88.0029c2 -38.667 5.33301 -69 10 -91c6 -28.667 15.333 -50 28 -64c14 -15.333 34 -23 60 -23c24 0 48 7.83301 72 23.5s45.333 36.167 64 61.5c8.66699 11.333 15.334 21 20.001 29c2 8 4.66699 18 8 30l8 30
c1.33301 4.66699 2.33301 8 3 10s1 3.66699 1 5c1.33301 2 2.33301 3.66699 3 5c2.66699 4 5.66699 7 9 9c6 2.66699 12 3.66699 18 3c6 -1.33301 11 -4.66602 15 -9.99902c6.66699 -8 10.667 -20 12 -36c0.666992 -10.667 0 -24 -2 -40
c-2.66699 -26 -8.33398 -59.667 -17.001 -101c-16.667 -77.333 -31.667 -133.333 -45 -168c-15.333 -39.333 -36 -79.333 -62 -120c-6 -9.33301 -14.333 -13.333 -25 -12c-6 -0.666992 -11.667 0.666016 -17 3.99902c-6 4 -9.83301 9.5 -11.5 16.5s-0.5 13.5 3.5 19.5
c24.667 37.333 44 74 58 110c6 17.333 17 61.333 33 132c-34.667 -35.333 -74.667 -54.666 -120 -57.999c-44 -2.66699 -80.167 6.33301 -108.5 27s-48.833 49 -61.5 85c-20 56 -24.333 124 -13 204v1c-0.666992 6.66699 1.16602 12.834 5.49902 18.501s10 9 17 10
s13.333 -0.666992 19 -5s9.16699 -10.166 10.5 -17.499z" />
    <glyph glyph-name="z" unicode="z" horiz-adv-x="388" 
d="M87 433c14.667 0 34 2.00098 58 6.00098c32 5.33301 53 8.33301 63 9s22.667 0.666992 38 0c10.667 -0.666992 19.334 -1.33398 26.001 -2.00098c13.333 -2.66699 23 -7.33398 29 -14.001c8.66699 -10 11.667 -24 9 -42c-1.33301 -11.333 -5 -25.333 -11 -42
c-8 -24 -23.333 -56.667 -46 -98l-25 -46c-22.667 -54 -37.667 -92 -45 -114c-6 -18 -10 -32 -12 -42c-0.666992 -1.33301 -1 -2.33301 -1 -3l10 -2c13.333 -1.33301 32 -1.66602 56 -0.999023h6c48 3.33301 78 4.33301 90 3h7c7.33301 0 13.5 -2.5 18.5 -7.5
s7.5 -11.167 7.5 -18.5s-2.5 -13.5 -7.5 -18.5s-11.167 -7.5 -18.5 -7.5c-4 0 -17 -0.5 -39 -1.5s-40.333 -1.5 -55 -1.5l-37 -3c-30.667 -2 -54.334 -3 -71.001 -3c-10.667 0 -19.667 0.666992 -27 2c-12 1.33301 -21 4.66602 -27 9.99902
c-4.66699 4.66699 -7.33398 10.667 -8.00098 18v6c0.666992 2 1.33398 4.33301 2.00098 7c0.666992 3.33301 2 7.33301 4 12c3.33301 6.66699 7.66602 16 12.999 28l23 46c3.33301 7.33301 15.333 29 36 65l28 48l3 6c23.333 57.333 39 98 47 122
c4.66699 14 7.66699 25.333 9 34l-22 -5c-3.33301 -0.666992 -20.666 -4.66699 -51.999 -12l-19 -5c-5.33301 -1.33301 -8.5 -2 -9.5 -2s-2.66699 -0.333008 -5 -1s-3.83301 -1.16699 -4.5 -1.5s-4 -1.5 -10 -3.5l-20 -8c-7.33301 -2 -14.166 -1.5 -20.499 1.5
s-10.833 7.83301 -13.5 14.5c-2.66699 8.66699 -1.33398 16.667 3.99902 24c-4.66699 4.66699 -7 10.334 -7 17.001c0 7.33301 2.5 13.5 7.5 18.5s11.167 7.5 18.5 7.5z" />
    <glyph glyph-name="braceleft" unicode="{" horiz-adv-x="363" 
d="M321 844c-27.333 -7.33301 -52.667 -22.166 -76 -44.499s-43.666 -49.833 -60.999 -82.5c-16.667 -32 -28.667 -65.167 -36 -99.5s-9.66602 -65.5 -6.99902 -93.5c0.666992 -6 4.66699 -20 12 -42c8 -24 11.333 -43.667 10 -59c-2.66699 -28 -20.667 -55.333 -54 -82
c-14.667 -11.333 -23.334 -18.333 -26.001 -21l-6 -9c0 -4 7.66699 -13.333 23 -28c1.33301 -0.666992 4.16602 -2.83398 8.49902 -6.50098s7.5 -6.5 9.5 -8.5s5 -5.16699 9 -9.5s7.16699 -8 9.5 -11s4.83301 -6.5 7.5 -10.5s4.66699 -8 6 -12
c8.66699 -22.667 13.167 -45.5 13.5 -68.5s-1.83398 -45.833 -6.50098 -68.5s-7 -35.334 -7 -38.001c-0.666992 -13.333 3.66602 -23.333 12.999 -30c16.667 -13.333 50.667 -24.333 102 -33c6.66699 -1.33301 12 -5 16 -11s5.5 -12.5 4.5 -19.5s-4.5 -12.5 -10.5 -16.5
s-12.667 -5.66699 -20 -5c-59.333 10.667 -100.666 25 -123.999 43c-24 18.667 -35 44 -33 76c0.666992 10 2.33398 22 5.00098 36l7 37c2 10 2.5 22.167 1.5 36.5s-4.16699 28.833 -9.5 43.5c-2 4.66699 -14 17 -36 37c-28.667 26 -42.334 49.667 -41.001 71
c0.666992 14 7.66699 27.667 21 41c2.66699 2.66699 13 11.334 31 26.001c21.333 17.333 32.666 32.333 33.999 45c0.666992 8.66699 -1.66602 21.334 -6.99902 38.001c-8.66699 25.333 -13.667 43 -15 53c-3.33301 34 -0.666016 70.667 8.00098 110s22.334 77 41.001 113
c20 38 44.333 70.667 73 98s60.667 45.666 96 54.999c7.33301 2 14 1.16699 20 -2.5s10 -9 12 -16s1.16699 -13.5 -2.5 -19.5s-8.83398 -10 -15.501 -12z" />
    <glyph glyph-name="bar" unicode="|" horiz-adv-x="201" 
d="M135 744c2.66699 -30 9.5 -87.168 20.5 -171.501s17.833 -149.5 20.5 -195.5c2 -29.333 3 -60.5 3 -93.5s-0.5 -69.833 -1.5 -110.5s-1.5 -71.667 -1.5 -93c0 -7.33301 -2.5 -13.5 -7.5 -18.5s-11.167 -7.5 -18.5 -7.5s-13.5 2.5 -18.5 7.5s-7.5 11.167 -7.5 18.5
c0 22 0.5 54.667 1.5 98s1.5 75.833 1.5 97.5s-1 54.167 -3 97.5c-2.66699 46 -9.33398 111 -20.001 195c-11.333 82.667 -18.333 139.334 -21 170.001c-0.666992 7.33301 1.33301 13.833 6 19.5s10.5 8.83398 17.5 9.50098s13.333 -1.33301 19 -6
s8.83398 -10.334 9.50098 -17.001z" />
    <glyph glyph-name="braceright" unicode="}" horiz-adv-x="369" 
d="M52 847c27.333 -2 51 -6.32812 71 -12.9951s42 -17.334 66 -32.001c47.333 -28 79.333 -59.333 96 -94c16.667 -33.333 23 -71.333 19 -114c-2 -22 -9.66699 -58.667 -23 -110c-12.667 -48.667 -20.334 -86 -23.001 -112c-1.33301 -10 -1.66602 -17.667 -0.999023 -23
c2 0 5 0.666992 9 2c8 2 13.667 3.33301 17 4c20.667 3.33301 36.667 -1 48 -13c17.333 -18 20.666 -45.667 9.99902 -83c-7.33301 -24.667 -20.666 -54.334 -39.999 -89.001c-31.333 -56 -62.666 -102 -93.999 -138c-5.33301 -6 -13.666 -13.333 -24.999 -22
s-18 -13.667 -20 -15c-5.33301 -4.66699 -11.666 -6.66699 -18.999 -6s-13.333 3.66699 -18 9s-6.66699 11.666 -6 18.999s3.66699 13.333 9 18l23 17c7.33301 5.33301 12.666 10 15.999 14c29.333 33.333 59 76.333 89 129c17.333 31.333 29 57.333 35 78
c4 14 5 24.333 3 31h-2c-2 -0.666992 -6 -1.66699 -12 -3c-7.33301 -2 -13 -3.33301 -17 -4c-21.333 -3.33301 -37.333 2.66699 -48 18c-9.33301 12.667 -12.333 33.667 -9 63c2.66699 25.333 11 65 25 119c12 46.667 19 80.667 21 102
c3.33301 32 -1.33398 60.667 -14.001 86c-12 25.333 -37 49.666 -75 72.999c-21.333 12 -40 20.667 -56 26c-15.333 5.33301 -35 9 -59 11c-7.33301 0.666992 -13.333 3.66699 -18 9s-6.66699 11.666 -6 18.999s3.66699 13.333 9 18s11.666 6.66699 18.999 6z" />
    <glyph glyph-name="asciitilde" unicode="~" horiz-adv-x="645" 
d="M17 350l50.002 25.999c22.667 11.333 42 20.333 58 27c49.333 20 92.666 26.667 129.999 20c26 -5.33301 58 -18.666 96 -39.999c6 -3.33301 19.333 -11.333 40 -24s37 -22 49 -28c30 -16 55 -24 75 -24c22.667 -0.666992 43.334 9 62.001 29
c4.66699 5.33301 10.667 8 18 8s13.666 -2.33301 18.999 -7s8 -10.667 8 -18s-2.33301 -13.666 -7 -18.999c-29.333 -31.333 -63 -46.333 -101 -45c-28 0 -61 10 -99 30c-11.333 6 -27.666 15.5 -48.999 28.5s-35 21.167 -41 24.5c-32.667 18.667 -59.334 29.667 -80.001 33
c-27.333 5.33301 -61 0 -101 -16c-14.667 -6 -32.334 -14.333 -53.001 -25l-52 -26c-6 -3.33301 -12.5 -3.83301 -19.5 -1.5s-12 6.66602 -15 12.999s-3.33301 13 -1 20s6.83301 11.833 13.5 14.5z" />
    <glyph glyph-name="quoteleft" unicode="&#x2018;" horiz-adv-x="191" 
d="M161 814c-16 -17.333 -28.6689 -43.333 -38.002 -78c-10 -35.333 -9.66699 -59.333 1 -72c2 -2.66699 4.33301 -5 7 -7l11 -7l13 -11c6 -4 9.33301 -9.66699 10 -17s-1.16602 -13.833 -5.49902 -19.5s-10.166 -8.83398 -17.499 -9.50098s-13.666 1.33301 -18.999 6
c-0.666992 0 -3.83398 2 -9.50098 6s-11.167 8.16699 -16.5 12.5s-9.66602 8.5 -12.999 12.5c-22 27.333 -25.667 67.333 -11 120c11.333 42.667 28 76 50 100c4.66699 5.33301 10.667 8 18 8s13.666 -2.33301 18.999 -7s8 -10.667 8 -18s-2.33301 -13.666 -7 -18.999z" />
    <glyph glyph-name="quoteright" unicode="&#x2019;" horiz-adv-x="199" 
d="M141 839c51.333 -62.667 46.332 -139.333 -15.001 -230c-4.66699 -6 -10.5 -9.66699 -17.5 -11s-13.5 0.166992 -19.5 4.5s-9.66699 10 -11 17s0 13.5 4 19.5c15.333 22 26.5 42 33.5 60s9.66699 36.167 8 54.5s-9.16699 35.5 -22.5 51.5
c-4.66699 6 -6.66699 12.5 -6 19.5s3.83398 12.833 9.50098 17.5s12 6.66699 19 6s12.833 -3.66699 17.5 -9z" />
    <glyph glyph-name="quotedblleft" unicode="&#x201c;" horiz-adv-x="299" 
d="M151 714c-10 -34 -15.667 -71.665 -17 -112.998c-2 -48.667 4 -79.334 18 -92.001c2.66699 -2 5.33398 -3.66699 8.00098 -5l11 -6l15 -7c6 -4 10 -9.5 12 -16.5s1.16699 -13.5 -2.5 -19.5s-9 -10 -16 -12s-13.5 -1.33301 -19.5 2c-0.666992 0.666992 -4 2.5 -10 5.5
s-12 6.16699 -18 9.5s-10.667 7 -14 11c-26.667 23.333 -38.667 67.333 -36 132c1.33301 45.333 7.66602 87 18.999 125c2 7.33301 6.16699 12.666 12.5 15.999s13 4 20 2s12.167 -6.16699 15.5 -12.5s4 -12.833 2 -19.5zM274 713.002c-8.66699 -74 -8 -149.995 2 -227.995
c0.666992 -6.66699 -1.16602 -12.834 -5.49902 -18.501s-10 -9 -17 -10s-13.333 0.666992 -19 5s-9.16699 10.166 -10.5 17.499c-10 82 -10.667 162 -2 240c0.666992 7.33301 3.83398 13.166 9.50098 17.499s12.167 6.16602 19.5 5.49902s13.166 -3.83398 17.499 -9.50098
s6.16602 -12.167 5.49902 -19.5z" />
    <glyph glyph-name="quotedblright" unicode="&#x201d;" horiz-adv-x="356" 
d="M233 698c0 -5.33301 -0.166016 -17.5029 -0.499023 -36.5029s-0.833008 -32 -1.5 -39s-1.5 -18.667 -2.5 -35s-2.5 -29.5 -4.5 -39.5l-9 -34c-3.33301 -14 -7.83301 -27 -13.5 -39s-12.167 -24.333 -19.5 -37c-3.33301 -6 -8.5 -9.83301 -15.5 -11.5
s-13.667 -0.666992 -20 3s-10.333 9 -12 16s-0.5 13.833 3.5 20.5c6 10 11.333 19.833 16 29.5s8.66699 20.5 12 32.5l6 30c2 7.33301 3.5 18.833 4.5 34.5s1.66699 26.334 2 32.001s0.833008 18.334 1.5 38.001s1 32.167 1 37.5c0 7.33301 2.66699 13.333 8 18
s11.666 7 18.999 7s13.333 -2.66699 18 -8s7 -11.666 7 -18.999zM323.001 714.997c6.66699 -30 10.334 -59.3311 11.001 -87.998s-3.5 -59.334 -12.5 -92.001s-24.167 -60.334 -45.5 -83.001c-4.66699 -5.33301 -10.5 -8.33301 -17.5 -9s-13.167 1.5 -18.5 6.5
s-8.33301 11 -9 18s1.66602 13.167 6.99902 18.5c43.333 48.667 55 121.667 35 219c-2 6.66699 -1 13 3 19s9.5 9.83301 16.5 11.5s13.5 0.5 19.5 -3.5s9.66699 -9.66699 11 -17z" />
    <glyph glyph-name="uni3000" unicode="&#x3000;" horiz-adv-x="1000" 
 />
    <glyph glyph-name=".null" horiz-adv-x="0" 
 />
    <glyph glyph-name="nonmarkingreturn" horiz-adv-x="333" 
 />
  </font>
</defs>
</svg>
